<svg width="87" height="59" viewBox="0 0 87 59" fill="none" xmlns="http://www.w3.org/2000/svg">
<path d="M3.99571 47.3904C3.48605 47.4014 2.97918 47.3124 2.50372 47.1285C2.10099 46.9688 1.73898 46.7212 1.44411 46.4038C1.16726 46.0893 0.959764 45.7199 0.835136 45.3199C0.693724 44.8854 0.623797 44.4309 0.628085 43.974C0.628521 43.5593 0.698509 43.1477 0.835136 42.7561C0.965647 42.3531 1.17239 41.9789 1.44411 41.6539C1.73718 41.3147 2.09817 41.0409 2.50372 40.85C2.97092 40.6343 3.48122 40.528 3.99571 40.5394H4.60468C4.78471 40.5306 4.96509 40.547 5.14057 40.5882C5.31109 40.6369 5.47551 40.643 5.63993 40.6795L6.14538 40.8074C6.15736 41.0319 6.18175 41.2555 6.21846 41.4773C6.25905 41.7411 6.31386 42.0091 6.38288 42.2811C6.33218 42.308 6.27585 42.3226 6.21846 42.3237C6.17004 42.3314 6.12072 42.3314 6.0723 42.3237C6.04943 42.315 6.02939 42.3002 6.01436 42.2808C5.99933 42.2615 5.98989 42.2384 5.98705 42.2141C5.90233 41.8339 5.6868 41.4955 5.37807 41.258C5.04895 41.0565 4.66755 40.9569 4.28192 40.9718C3.90028 40.9648 3.52118 41.0353 3.1675 41.1789C2.85894 41.3054 2.58231 41.4988 2.35757 41.7452C2.12662 42.0001 1.95229 42.3011 1.84603 42.6282C1.72872 42.9984 1.67116 43.3848 1.67552 43.7731C1.66868 44.2122 1.73875 44.6491 1.88257 45.0641C2.01188 45.4324 2.20571 45.7747 2.455 46.075C2.68577 46.3509 2.97213 46.575 3.29539 46.7327C3.6162 46.8876 3.9683 46.9668 4.32455 46.9641C4.57236 46.9737 4.82032 46.9491 5.06141 46.891C5.24348 46.8436 5.4136 46.7586 5.56077 46.6413C5.69596 46.5289 5.80947 46.3927 5.8957 46.2394C5.99462 46.0571 6.0801 45.8678 6.15147 45.6731C6.17146 45.6257 6.20558 45.5857 6.24918 45.5584C6.29278 45.5312 6.34372 45.518 6.39506 45.5208H6.50467L6.58993 45.5574C6.51076 45.7949 6.42551 46.0567 6.34634 46.3369C6.2643 46.6173 6.19721 46.9019 6.14538 47.1894C5.81247 47.2422 5.47348 47.2848 5.12839 47.3173C4.78331 47.3498 4.40575 47.3741 3.99571 47.3904Z" fill="#40484E"/>
<path d="M8.50778 43.9678C8.50278 43.5086 8.58974 43.0531 8.76355 42.628C8.92477 42.2277 9.15801 41.8603 9.45168 41.5441C9.74015 41.2338 10.0854 40.9816 10.4687 40.8011C10.8493 40.6205 11.2653 40.5269 11.6866 40.5271C12.2137 40.5171 12.7375 40.6123 13.2273 40.8072C13.6302 40.9702 13.9936 41.2176 14.293 41.5327C14.5923 41.8478 14.8207 42.2234 14.9629 42.6341C15.1053 43.0517 15.1773 43.49 15.176 43.9312C15.1846 44.4229 15.0956 44.9114 14.9142 45.3684C14.7506 45.7724 14.5031 46.137 14.1882 46.4383C13.8733 46.7395 13.498 46.9706 13.0872 47.1162C12.6602 47.2726 12.2084 47.351 11.7536 47.3476C11.3015 47.3527 10.8527 47.27 10.4321 47.104C10.0437 46.9483 9.69284 46.7116 9.40297 46.4097C9.10853 46.0975 8.88063 45.7288 8.7331 45.3258C8.57864 44.8899 8.50236 44.4302 8.50778 43.9678ZM11.9972 46.8908C12.2973 46.8942 12.5945 46.8318 12.868 46.7081C13.1288 46.5901 13.3613 46.4178 13.5501 46.2027C13.7561 45.982 13.9174 45.7235 14.0251 45.4415C14.133 45.1281 14.1866 44.7986 14.1834 44.4671C14.1851 44.0098 14.132 43.5538 14.0251 43.1091C13.9289 42.7196 13.7639 42.3505 13.5379 42.0191C13.3393 41.719 13.0721 41.4706 12.7584 41.2944C12.4198 41.1134 12.04 41.0231 11.6562 41.0325C11.3824 41.0319 11.1112 41.0857 10.8584 41.1909C10.6059 41.2951 10.3778 41.4506 10.1885 41.6476C9.98736 41.8604 9.83009 42.1108 9.72572 42.3844C9.60613 42.7057 9.54828 43.0466 9.55521 43.3892C9.55258 43.8591 9.6078 44.3275 9.71963 44.7838C9.81485 45.1791 9.97539 45.5558 10.1946 45.8982C10.3932 46.2052 10.6626 46.46 10.9802 46.6412C11.2919 46.8109 11.6423 46.8969 11.9972 46.8908Z" fill="#40484E"/>
<path d="M23.9094 40.862L23.9581 40.7828C23.9784 40.7531 24.0086 40.7315 24.0433 40.7219L24.2078 40.6854C24.303 40.6783 24.3987 40.6783 24.494 40.6854H25.5962C25.6014 40.7401 25.6014 40.7951 25.5962 40.8498C25.5962 40.9594 25.5597 41.0142 25.4927 41.0203C25.3223 41.0323 25.1563 41.08 25.0055 41.1604C24.9671 41.1853 24.9358 41.2197 24.9145 41.2602C24.8932 41.3007 24.8826 41.346 24.8837 41.3918V41.6597C24.8817 41.9486 24.8959 42.2373 24.9264 42.5245C24.969 42.9264 24.9751 43.4623 25.0055 44.1322C25.036 44.802 25.0725 45.6363 25.1151 46.629C25.1137 46.6838 25.1251 46.7382 25.1483 46.7879C25.1716 46.8376 25.2061 46.8812 25.2491 46.9152C25.4033 46.9997 25.5733 47.0515 25.7485 47.0674C25.765 47.0699 25.7807 47.0762 25.7944 47.0857C25.8081 47.0952 25.8195 47.1077 25.8276 47.1222C25.8367 47.1582 25.8367 47.1959 25.8276 47.2318C25.8327 47.2865 25.8327 47.3416 25.8276 47.3963L25.1821 47.3597H23.4648C23.4597 47.305 23.4597 47.25 23.4648 47.1953C23.4648 47.0857 23.5014 47.0309 23.5683 47.0309C23.7596 47.001 23.9459 46.9457 24.1225 46.8665C24.1707 46.8397 24.2101 46.7996 24.236 46.751C24.2619 46.7024 24.2733 46.6473 24.2687 46.5924V46.2149C24.2734 45.9341 24.2592 45.6533 24.226 45.3745C24.1834 45.0456 24.1895 44.6863 24.1773 44.2966C24.1651 43.9069 24.1408 43.5476 24.1286 43.2065C24.1164 42.8655 24.1286 42.5976 24.086 42.3235C24.0433 42.0495 24.086 41.9277 24.086 41.8729L21.8328 47.2075C21.8121 47.2572 21.7855 47.3042 21.7536 47.3475C21.742 47.3619 21.727 47.3733 21.7101 47.3807C21.6931 47.3881 21.6746 47.3914 21.6562 47.3902H21.5648L19.0802 41.6841V42.1774C19.0853 42.4865 19.0711 42.7957 19.0376 43.103C18.995 43.4562 19.001 43.8399 18.9828 44.2418C18.9645 44.6437 18.9462 45.0091 18.928 45.3501C18.9097 45.6911 18.928 45.9591 18.8853 46.2027C18.8775 46.3243 18.8775 46.4464 18.8853 46.5681C18.8853 46.7751 19.1147 46.9213 19.5735 47.0065C19.6405 47.0065 19.677 47.0674 19.677 47.1709C19.6821 47.2256 19.6821 47.2807 19.677 47.3354L19.1411 47.2988H18.2337L17.7161 47.3354C17.711 47.2807 17.711 47.2256 17.7161 47.1709C17.7161 47.0735 17.7527 47.0248 17.8196 47.0065C17.9449 46.9783 18.0658 46.9332 18.1789 46.8726C18.2326 46.8438 18.2781 46.8019 18.3111 46.7508C18.3441 46.6996 18.3636 46.641 18.3677 46.5802V46.0687C18.3619 45.7331 18.3782 45.3974 18.4164 45.0639C18.4652 44.6742 18.453 44.2661 18.4712 43.846C18.4895 43.4258 18.5078 43.0117 18.526 42.628C18.5443 42.2444 18.526 41.9521 18.5687 41.7146V41.3492C18.5709 41.3017 18.5602 41.2545 18.5377 41.2127C18.5151 41.1709 18.4817 41.1359 18.4408 41.1117C18.2888 41.04 18.1264 40.9928 17.9597 40.9716C17.8927 40.9716 17.8562 40.9107 17.8562 40.8011C17.8513 40.7464 17.8513 40.6914 17.8562 40.6367H19.0741C19.1694 40.6296 19.2651 40.6296 19.3603 40.6367L19.5248 40.6732C19.5595 40.6828 19.5897 40.7044 19.61 40.7341L19.6587 40.8133L21.8328 45.8799L23.9094 40.862Z" fill="#40484E"/>
<path d="M28.9465 41.4101C28.9517 41.3521 28.9393 41.2938 28.9111 41.2428C28.8829 41.1918 28.8401 41.1504 28.7882 41.1239C28.609 41.0484 28.4206 40.9972 28.2279 40.9717C28.2097 40.9728 28.1916 40.9682 28.1763 40.9583C28.1609 40.9484 28.1491 40.9339 28.1427 40.9168C28.1353 40.8786 28.1353 40.8394 28.1427 40.8011C28.1376 40.7464 28.1376 40.6914 28.1427 40.6367L28.7943 40.6733H32.1619C32.3994 40.6733 32.5638 40.6428 32.6491 40.6428C32.7343 40.6428 32.7891 40.6976 32.8196 40.8133C32.8569 40.9449 32.8834 41.0793 32.8987 41.2152C32.9099 41.3813 32.9344 41.5463 32.9718 41.7085C32.9937 41.8653 33.041 42.0176 33.1119 42.1592C33.0921 42.1855 33.0643 42.2047 33.0327 42.214H32.9048C32.8714 42.2174 32.8377 42.2105 32.8083 42.1941C32.7789 42.1778 32.7552 42.1528 32.7404 42.1226C32.6711 41.9615 32.5917 41.8049 32.5029 41.6537C32.4342 41.5341 32.3456 41.427 32.241 41.337C32.139 41.2545 32.0207 41.1944 31.8939 41.1604C31.7285 41.1204 31.5586 41.102 31.3885 41.1056H29.9087V43.7851H31.4189C31.482 43.7877 31.5443 43.7703 31.5968 43.7352C31.6493 43.7002 31.6894 43.6495 31.7112 43.5902C31.7756 43.4377 31.8226 43.2783 31.8513 43.1152C31.8588 43.0737 31.8819 43.0367 31.9159 43.0118C31.9499 42.9868 31.9922 42.9759 32.034 42.9813C32.0886 42.9746 32.1438 42.9746 32.1984 42.9813C32.197 43.1524 32.1848 43.3232 32.1619 43.4928V44.4123C32.1568 44.6001 32.1711 44.7878 32.2045 44.9726C32.154 44.979 32.1028 44.979 32.0523 44.9726C32.0082 44.983 31.9623 44.983 31.9183 44.9726C31.8992 44.9616 31.8834 44.9455 31.8727 44.9262C31.8619 44.9069 31.8566 44.8851 31.8574 44.863C31.8344 44.7013 31.7893 44.5435 31.7234 44.3941C31.7018 44.3342 31.662 44.2827 31.6096 44.2466C31.5571 44.2106 31.4947 44.1919 31.4311 44.1931H29.9209V46.5498C29.9209 46.6838 30.0061 46.7752 30.1827 46.83C30.3823 46.8875 30.5858 46.9303 30.7917 46.9579C30.8709 46.9579 30.9135 47.0248 30.9135 47.1345C30.9192 47.1911 30.9192 47.2483 30.9135 47.305H28.8125L28.2036 47.3415C28.1985 47.2868 28.1985 47.2318 28.2036 47.1771C28.2036 47.0736 28.2401 47.0187 28.3071 47.0127C28.4871 46.972 28.6641 46.9191 28.8369 46.8543C28.8957 46.8356 28.9467 46.798 28.9819 46.7474C29.0171 46.6967 29.0347 46.6358 29.0318 46.5742L28.9465 41.4101Z" fill="#40484E"/>
<path d="M34.9874 43.9678C34.9824 43.5086 35.0693 43.0531 35.2431 42.628C35.4122 42.233 35.6515 41.8719 35.9495 41.5623C36.231 41.2474 36.5699 40.989 36.9483 40.8011C37.3288 40.6203 37.7449 40.5267 38.1662 40.5271C38.6933 40.5171 39.2171 40.6123 39.7069 40.8072C40.107 40.971 40.4676 41.2181 40.7647 41.532C41.0619 41.846 41.2887 42.2196 41.4303 42.628C41.5729 43.0456 41.645 43.4839 41.6434 43.9251C41.6518 44.4168 41.5628 44.9052 41.3816 45.3623C41.218 45.7663 40.9705 46.1309 40.6556 46.4322C40.3407 46.7335 39.9655 46.9645 39.5547 47.1101C39.1276 47.2665 38.6758 47.3449 38.221 47.3415C37.7689 47.3465 37.3201 47.2638 36.8995 47.0979C36.511 46.9423 36.1601 46.7056 35.8704 46.4037C35.5759 46.0915 35.348 45.7227 35.2005 45.3197C35.051 44.885 34.9789 44.4274 34.9874 43.9678ZM38.4768 46.8908C38.7769 46.8942 39.0741 46.8318 39.3476 46.7081C39.6084 46.5901 39.8409 46.4178 40.0297 46.2027C40.2239 45.9753 40.3728 45.7128 40.4681 45.4293C40.5766 45.116 40.6301 44.7864 40.6265 44.4549C40.6306 43.9978 40.5795 43.5418 40.4742 43.0969C40.3842 42.7133 40.2275 42.3485 40.0114 42.0191C39.8128 41.719 39.5456 41.4706 39.2319 41.2944C38.8933 41.1134 38.5135 41.0231 38.1297 41.0325C37.8559 41.0319 37.5847 41.0857 37.3319 41.1909C37.0794 41.2951 36.8513 41.4506 36.662 41.6476C36.4606 41.8602 36.3033 42.1107 36.1992 42.3844C36.0796 42.7057 36.0218 43.0466 36.0287 43.3892C36.0258 43.8591 36.0811 44.3275 36.1931 44.7838C36.2865 45.1787 36.4449 45.5554 36.662 45.8982C36.8566 46.2005 37.1194 46.4529 37.4293 46.6351C37.7489 46.8143 38.1105 46.9047 38.4768 46.8969V46.8908Z" fill="#40484E"/>
<path d="M46.4707 44.3027H45.7217V46.5377C45.7171 46.6043 45.7351 46.6704 45.7726 46.7256C45.8102 46.7808 45.8651 46.8219 45.9287 46.8421C46.1261 46.9082 46.3304 46.9511 46.5377 46.97C46.6169 46.97 46.6595 47.0431 46.6595 47.1466C46.6652 47.2033 46.6652 47.2604 46.6595 47.3171L45.9957 47.2806H44.6194L43.9678 47.3171C43.9628 47.2624 43.9628 47.2074 43.9678 47.1527C43.9678 47.0553 44.0044 47.0066 44.0774 46.9883C44.2643 46.9667 44.447 46.9174 44.6194 46.8421C44.6713 46.814 44.7139 46.7714 44.742 46.7195C44.7701 46.6676 44.7825 46.6087 44.7778 46.5498V41.4101C44.7816 41.3528 44.7701 41.2955 44.7444 41.2441C44.7187 41.1927 44.6798 41.1491 44.6316 41.1178C44.4524 41.0314 44.2578 40.9817 44.0592 40.9717C43.9922 40.9717 43.9556 40.9108 43.9556 40.8011C43.9505 40.7465 43.9505 40.6914 43.9556 40.6367L44.5646 40.6733H46.5438C47.1358 40.6296 47.7237 40.8003 48.2002 41.1543C48.3784 41.316 48.5188 41.515 48.6114 41.737C48.704 41.9591 48.7466 42.1989 48.7361 42.4393C48.7354 42.5984 48.7108 42.7564 48.663 42.9082C48.6093 43.0769 48.5313 43.2369 48.4316 43.3832C48.3187 43.5475 48.1811 43.6934 48.0236 43.8155C47.8402 43.9567 47.6343 44.0658 47.4146 44.1383L49.1076 46.495C49.2142 46.6529 49.3615 46.7792 49.5338 46.8604C49.6755 46.9232 49.8222 46.9741 49.9723 47.0127C50.0332 47.0127 50.0636 47.0736 50.0636 47.1527C50.0695 47.2135 50.0695 47.2747 50.0636 47.3354L49.4973 47.2989H48.8883C48.727 47.2916 48.5736 47.2268 48.456 47.1162C48.2971 46.9796 48.1577 46.8218 48.0419 46.6473L46.4707 44.3027ZM46.2576 43.8886C46.6459 43.9135 47.0316 43.8086 47.3537 43.5902C47.495 43.4564 47.6032 43.2916 47.6698 43.1087C47.7364 42.9259 47.7595 42.73 47.7374 42.5367C47.7404 42.341 47.7137 42.1459 47.6582 41.9582C47.6088 41.7885 47.5213 41.6323 47.4024 41.5015C47.2719 41.365 47.1113 41.2607 46.9335 41.197C46.7067 41.1176 46.4673 41.0804 46.2271 41.0874H45.7217V43.8886H46.2576Z" fill="#40484E"/>
<path d="M54.8264 41.0868V46.5066C54.8223 46.5746 54.8387 46.6423 54.8734 46.7009C54.9082 46.7595 54.9597 46.8064 55.0213 46.8355C55.2294 46.9182 55.4493 46.9675 55.6729 46.9816C55.746 46.9816 55.7825 47.0364 55.7825 47.146C55.7878 47.2028 55.7878 47.2598 55.7825 47.3166L55.1004 47.28H53.6511L52.9569 47.3166C52.9508 47.2599 52.9508 47.2027 52.9569 47.146C52.9569 47.0486 52.9934 46.9999 53.0604 46.9816C53.2853 46.9597 53.5064 46.9085 53.7181 46.8294C53.7809 46.803 53.8339 46.7578 53.8699 46.7C53.9059 46.6422 53.9231 46.5746 53.919 46.5066V41.0868H52.8716C52.6991 41.0828 52.5269 41.1033 52.3601 41.1477C52.229 41.1832 52.1067 41.2454 52.0008 41.3304C51.8942 41.4184 51.8053 41.5258 51.7389 41.647C51.6658 41.7749 51.5867 41.9272 51.5075 42.0916C51.5021 42.1078 51.4933 42.1226 51.4818 42.1352C51.4702 42.1478 51.4562 42.1578 51.4405 42.1647H51.3553C51.2853 42.1669 51.2166 42.1454 51.1604 42.1038C51.2274 41.8602 51.2761 41.647 51.3126 41.4522L51.404 40.9772C51.4231 40.8792 51.4517 40.7834 51.4892 40.6909C51.4995 40.6605 51.5192 40.634 51.5455 40.6154C51.5717 40.5968 51.6032 40.587 51.6354 40.5874H57.1527C57.1856 40.5874 57.2177 40.5981 57.244 40.6179C57.2704 40.6376 57.2896 40.6654 57.2988 40.697C57.3362 40.7937 57.3647 40.8936 57.3841 40.9954C57.4029 41.1553 57.4314 41.3139 57.4693 41.4704C57.5066 41.6771 57.5595 41.8807 57.6277 42.0794L57.5302 42.122C57.4941 42.1298 57.4568 42.1298 57.4206 42.122H57.3293C57.3125 42.1159 57.2972 42.1062 57.2846 42.0936C57.272 42.081 57.2623 42.0657 57.2562 42.0489C57.19 41.8964 57.1147 41.748 57.0309 41.6044C56.9657 41.4841 56.879 41.3768 56.7751 41.2877C56.6717 41.2024 56.5513 41.1402 56.4219 41.105C56.2551 41.0607 56.0829 41.0402 55.9104 41.0441L54.8264 41.0868Z" fill="#40484E"/>
<path d="M64.461 46.5377C64.4582 46.589 64.4714 46.6399 64.4986 46.6835C64.5259 46.7271 64.5659 46.7613 64.6133 46.7812C64.7446 46.8347 64.8857 46.8596 65.0274 46.8543H66.1357C66.3075 46.8571 66.4785 46.8303 66.6412 46.7752C66.7767 46.7279 66.9011 46.6533 67.0065 46.5559C67.1133 46.4525 67.2037 46.3334 67.2745 46.2027C67.3574 46.0508 67.4267 45.8919 67.4815 45.7277C67.4951 45.7055 67.5154 45.6881 67.5395 45.6783C67.5636 45.6684 67.5903 45.6665 67.6155 45.6729C67.6517 45.6654 67.689 45.6654 67.7251 45.6729L67.8408 45.7277C67.7921 45.9287 67.7495 46.1479 67.7069 46.3732C67.6642 46.5986 67.6216 46.8543 67.5912 47.1405C67.5921 47.167 67.5872 47.1933 67.5766 47.2175C67.5661 47.2417 67.5502 47.2633 67.5303 47.2806C67.4903 47.2909 67.4484 47.2909 67.4085 47.2806H66.9761C66.826 47.273 66.6756 47.273 66.5255 47.2806H63.3527L62.6707 47.3171C62.6653 47.2625 62.6653 47.2074 62.6707 47.1527C62.6707 47.0553 62.7072 47.0066 62.7742 46.9883C62.9697 46.9637 63.1606 46.9103 63.3405 46.83C63.3888 46.8045 63.4288 46.7657 63.4558 46.7182C63.4828 46.6708 63.4956 46.6166 63.4928 46.562V41.4101C63.4986 41.3532 63.4886 41.2958 63.4639 41.2442C63.4392 41.1927 63.4007 41.1489 63.3527 41.1178C63.1797 41.0383 62.9943 40.9888 62.8046 40.9717C62.7881 40.9691 62.7724 40.9629 62.7587 40.9534C62.745 40.9439 62.7336 40.9314 62.7255 40.9168C62.7164 40.8809 62.7164 40.8432 62.7255 40.8072C62.7205 40.7505 62.7205 40.6934 62.7255 40.6367L63.4075 40.6733H64.7046L65.3928 40.6367C65.3979 40.6914 65.3979 40.7465 65.3928 40.8011C65.3928 40.9148 65.3562 40.9757 65.2831 40.9838C65.0621 41.0014 64.8447 41.0506 64.6376 41.13C64.5707 41.1601 64.5148 41.2102 64.4777 41.2735C64.4406 41.3368 64.4241 41.4101 64.4306 41.4832L64.461 46.5377Z" fill="#40484E"/>
<path d="M71.2682 46.562C71.2618 46.6173 71.2717 46.6732 71.2965 46.7229C71.3214 46.7727 71.3602 46.8141 71.4083 46.8421C71.5774 46.9172 71.7555 46.9704 71.9381 47.0005C72.0051 47.0005 72.0416 47.0675 72.0416 47.1649C72.0468 47.2196 72.0468 47.2746 72.0416 47.3293L71.4326 47.2928H70.2147L69.6057 47.3293C69.6007 47.2746 69.6007 47.2196 69.6057 47.1649C69.6057 47.0675 69.6423 47.0187 69.7092 47.0005C69.8922 46.9754 70.0707 46.9241 70.239 46.8482C70.2871 46.8186 70.3257 46.776 70.3505 46.7254C70.3753 46.6747 70.3852 46.6181 70.3791 46.562V41.4101C70.3849 41.3532 70.3749 41.2958 70.3502 41.2442C70.3255 41.1927 70.287 41.1489 70.239 41.1178C70.072 41.0395 69.8928 40.9901 69.7092 40.9717C69.6918 40.9696 69.6752 40.9628 69.6613 40.9521C69.6473 40.9414 69.6365 40.9271 69.6301 40.9108C69.6233 40.8745 69.6233 40.8374 69.6301 40.8011C69.625 40.7464 69.625 40.6914 69.6301 40.6367L70.239 40.6733H71.457L72.1025 40.6367C72.1077 40.6914 72.1077 40.7465 72.1025 40.8011C72.1025 40.9047 72.066 40.9595 71.999 40.9717C71.8153 40.9898 71.6362 41.0393 71.4692 41.1178C71.4212 41.1489 71.3827 41.1927 71.358 41.2442C71.3333 41.2958 71.3233 41.3532 71.3291 41.4101L71.2682 46.562Z" fill="#40484E"/>
<path d="M74.9527 41.4101C74.9579 41.3521 74.9455 41.2938 74.9173 41.2428C74.8891 41.1918 74.8463 41.1504 74.7944 41.1239C74.6152 41.0485 74.4268 40.9973 74.2341 40.9717C74.2159 40.9728 74.1978 40.9682 74.1825 40.9583C74.1671 40.9484 74.1553 40.9339 74.1489 40.9168C74.1415 40.8786 74.1415 40.8394 74.1489 40.8011C74.1434 40.7465 74.1434 40.6914 74.1489 40.6367L74.8005 40.6733H78.1681C78.4056 40.6733 78.57 40.6428 78.6553 40.6428C78.7405 40.6428 78.7953 40.6976 78.8258 40.8133C78.8634 40.9448 78.8899 41.0793 78.9049 41.2152C78.9161 41.3813 78.9405 41.5463 78.978 41.7085C78.9999 41.8653 79.0472 42.0176 79.1181 42.1592C79.0983 42.1855 79.0705 42.2047 79.0389 42.214H78.9354C78.9018 42.2183 78.8677 42.2118 78.8381 42.1953C78.8085 42.1789 78.785 42.1534 78.771 42.1226C78.7014 41.9616 78.6221 41.805 78.5335 41.6537C78.4647 41.5341 78.3762 41.427 78.2716 41.337C78.1696 41.2544 78.0513 41.1942 77.9245 41.1604C77.7591 41.1203 77.5892 41.1019 77.419 41.1056H75.9088V43.7851H77.419C77.4811 43.7864 77.542 43.7684 77.5933 43.7334C77.6446 43.6985 77.6837 43.6484 77.7053 43.5902C77.7675 43.4374 77.8124 43.2781 77.8392 43.1152C77.8467 43.0737 77.8698 43.0367 77.9038 43.0118C77.9378 42.9868 77.9801 42.9759 78.0219 42.9813C78.0765 42.9744 78.1317 42.9744 78.1863 42.9813C78.1909 43.1526 78.1787 43.3239 78.1498 43.4928C78.1314 43.6608 78.1314 43.8303 78.1498 43.9982V44.4123C78.1447 44.6001 78.159 44.7878 78.1924 44.9726C78.1419 44.979 78.0907 44.979 78.0402 44.9726C77.9961 44.9825 77.9503 44.9825 77.9062 44.9726C77.8871 44.9616 77.8713 44.9455 77.8606 44.9262C77.8499 44.9069 77.8446 44.8851 77.8453 44.863C77.8228 44.7012 77.7777 44.5434 77.7113 44.3941C77.6897 44.3342 77.6499 44.2827 77.5975 44.2466C77.5451 44.2106 77.4826 44.1919 77.419 44.1931H75.9088V46.5498C75.9088 46.6838 75.994 46.7752 76.1706 46.83C76.3703 46.8874 76.5738 46.9301 76.7796 46.9579C76.8588 46.9579 76.9014 47.0248 76.9014 47.1345C76.9067 47.1912 76.9067 47.2483 76.9014 47.305H74.8005L74.1915 47.3415C74.186 47.2868 74.186 47.2318 74.1915 47.1771C74.1915 47.0736 74.228 47.0187 74.295 47.0127C74.475 46.9719 74.652 46.919 74.8248 46.8543C74.8836 46.8356 74.9346 46.798 74.9698 46.7474C75.0051 46.6967 75.0226 46.6358 75.0197 46.5742L74.9527 41.4101Z" fill="#40484E"/>
<path d="M82.9175 41.0874V43.6877H84.5008C84.5646 43.6899 84.6274 43.6715 84.68 43.6353C84.7326 43.5992 84.7723 43.5471 84.7931 43.4867C84.8577 43.3321 84.9046 43.1707 84.9332 43.0056C84.9406 42.9641 84.9637 42.9271 84.9977 42.9022C85.0317 42.8772 85.074 42.8663 85.1158 42.8716H85.2742C85.2788 43.0409 85.2665 43.2102 85.2376 43.3771C85.2193 43.543 85.2193 43.7105 85.2376 43.8765V44.2966C85.2322 44.4844 85.2465 44.6722 85.2803 44.8569H85.128C85.0847 44.8626 85.0408 44.8521 85.0048 44.8273C84.9689 44.8026 84.9433 44.7654 84.9332 44.7229C84.9045 44.5579 84.8575 44.3965 84.7931 44.2418C84.7712 44.1826 84.7312 44.1318 84.6786 44.0968C84.6261 44.0618 84.5638 44.0444 84.5008 44.047H82.9175V46.4402C82.9175 46.5803 83.0088 46.6777 83.1915 46.7265C83.4882 46.7846 83.7905 46.8091 84.0928 46.7995H84.6652C84.8396 46.8039 85.0132 46.775 85.1767 46.7143C85.3172 46.6603 85.4471 46.582 85.5604 46.4829C85.6754 46.3815 85.7759 46.2647 85.8588 46.1357C85.952 45.9923 86.0374 45.8439 86.1146 45.6912C86.1146 45.6425 86.1876 45.6181 86.2668 45.6181C86.3033 45.6197 86.3388 45.6302 86.3703 45.6486L86.4799 45.7095C86.4113 45.8579 86.3583 46.013 86.3216 46.1723L86.1937 46.6838C86.1592 46.8242 86.1165 46.9625 86.0658 47.0979C86.0212 47.2116 85.9664 47.2684 85.9014 47.2684H81.8335L81.2245 47.305C81.2194 47.2503 81.2194 47.1952 81.2245 47.1406C81.2245 47.0431 81.261 46.9944 81.328 46.9761C81.5181 46.9474 81.7041 46.8963 81.8822 46.8239C81.9364 46.7992 81.9817 46.7586 82.0122 46.7074C82.0427 46.6563 82.0568 46.5971 82.0527 46.5377V41.4101C82.0585 41.3542 82.0478 41.2979 82.0218 41.2481C81.9958 41.1982 81.9557 41.1572 81.9066 41.13C81.7229 41.0541 81.5307 41.0009 81.3341 40.9717C81.2671 40.9717 81.2306 40.8986 81.2306 40.8011C81.2286 40.7728 81.2286 40.7443 81.2306 40.7159C81.2286 40.6895 81.2286 40.6631 81.2306 40.6367L81.9614 40.6793H85.2742L85.7187 40.6489C85.804 40.6489 85.8649 40.7037 85.8953 40.8194C85.9314 40.9513 85.9578 41.0856 85.9745 41.2213C85.9856 41.3895 86.0101 41.5564 86.0476 41.7207C86.069 41.8774 86.1207 42.0283 86.1998 42.1652C86.1473 42.2052 86.0831 42.2266 86.0171 42.2261C85.9828 42.23 85.9481 42.2233 85.9177 42.207C85.8872 42.1907 85.8624 42.1655 85.8466 42.1348C85.7654 41.9602 85.6883 41.81 85.6152 41.6841C85.5468 41.5661 85.4582 41.4609 85.3533 41.3736C85.25 41.2881 85.1296 41.2258 85.0001 41.1909C84.8334 41.1465 84.6611 41.126 84.4886 41.13L82.9175 41.0874Z" fill="#40484E"/>
<path d="M23.0012 58.6925V56.3784H23.7685C23.9236 56.3706 24.0788 56.3935 24.2251 56.4458C24.3714 56.498 24.5059 56.5786 24.6211 56.6829C24.8254 56.9188 24.938 57.2204 24.938 57.5324C24.938 57.8445 24.8254 58.1461 24.6211 58.382C24.5068 58.4879 24.3725 58.57 24.2261 58.6233C24.0797 58.6767 23.9241 58.7002 23.7685 58.6925H23.0012ZM23.3239 58.4124H23.7685C23.9941 58.4189 24.2131 58.3357 24.3775 58.181C24.4585 58.0939 24.5208 57.9912 24.5606 57.8792C24.6004 57.7671 24.6168 57.6481 24.6089 57.5294C24.6224 57.4212 24.6136 57.3114 24.583 57.2068C24.5525 57.1022 24.5008 57.0049 24.4312 56.921C24.3615 56.8371 24.2755 56.7684 24.1782 56.7191C24.081 56.6697 23.9747 56.6409 23.8659 56.6342H23.3057L23.3239 58.4124Z" fill="#40484E"/>
<path d="M27.1617 58.6808V56.3789H28.5319V56.6347H27.5149V57.3594H28.3371V57.6395H27.5149V58.3824H28.5319V58.6626L27.1617 58.6808Z" fill="#40484E"/>
<path d="M31.3806 58.6811L30.5403 56.373H30.8874L31.4598 57.999L31.5511 58.3157C31.5734 58.2085 31.6018 58.1028 31.6364 57.999L32.2454 56.373H32.5864L31.746 58.6811H31.3806Z" fill="#40484E"/>
<path d="M34.6873 58.693V56.3789H36.0331V56.6347H35.0101V57.3594H35.8383V57.6395H35.0101V58.3824H36.088V58.6626L34.6873 58.693Z" fill="#40484E"/>
<path d="M38.3047 58.6811V56.373H38.6274V58.4009H39.6627V58.6811H38.3047Z" fill="#40484E"/>
<path d="M41.4968 57.5115C41.4561 57.3332 41.4562 57.1479 41.4969 56.9696C41.5377 56.7912 41.6181 56.6244 41.7321 56.4814C41.8462 56.3384 41.9911 56.2229 42.1559 56.1435C42.3207 56.0642 42.5013 56.0229 42.6843 56.0229C42.8672 56.0229 43.0478 56.0642 43.2126 56.1435C43.3774 56.2229 43.5223 56.3384 43.6364 56.4814C43.7504 56.6244 43.8308 56.7912 43.8716 56.9696C43.9123 57.1479 43.9124 57.3332 43.8718 57.5115C43.9124 57.6899 43.9123 57.8751 43.8716 58.0535C43.8308 58.2318 43.7504 58.3987 43.6364 58.5417C43.5223 58.6847 43.3774 58.8002 43.2126 58.8795C43.0478 58.9589 42.8672 59.0001 42.6843 59.0001C42.5013 59.0001 42.3207 58.9589 42.1559 58.8795C41.9911 58.8002 41.8462 58.6847 41.7321 58.5417C41.6181 58.3987 41.5377 58.2318 41.4969 58.0535C41.4562 57.8751 41.4561 57.6899 41.4968 57.5115ZM41.8317 57.5115C41.8251 57.7521 41.9125 57.9859 42.0753 58.1631C42.1542 58.2449 42.2488 58.3099 42.3535 58.3544C42.4581 58.3988 42.5706 58.4217 42.6843 58.4217C42.7979 58.4217 42.9104 58.3988 43.015 58.3544C43.1197 58.3099 43.2143 58.2449 43.2932 58.1631C43.4561 57.9859 43.5434 57.7521 43.5368 57.5115C43.5374 57.2847 43.4501 57.0664 43.2932 56.9026C43.1313 56.7419 42.9124 56.6518 42.6843 56.6518C42.4561 56.6518 42.2372 56.7419 42.0753 56.9026C41.9161 57.0654 41.8266 57.2838 41.8256 57.5115H41.8317Z" fill="#40484E"/>
<path d="M46.1052 58.6804V56.3724H46.9517C47.0476 56.3679 47.1435 56.3828 47.2335 56.4163C47.3235 56.4498 47.4058 56.5011 47.4754 56.5672C47.5432 56.636 47.596 56.718 47.6306 56.8081C47.6652 56.8982 47.6808 56.9945 47.6764 57.0909C47.6805 57.1883 47.6649 57.2854 47.6303 57.3765C47.5958 57.4676 47.5431 57.5507 47.4754 57.6208C47.4072 57.6875 47.3261 57.7397 47.2372 57.7742C47.1482 57.8088 47.0532 57.8249 46.9578 57.8217H46.4341V58.6743L46.1052 58.6804ZM46.428 57.5477H46.9091C46.9693 57.5507 47.0295 57.5415 47.086 57.5206C47.1425 57.4996 47.1942 57.4674 47.2379 57.4259C47.2792 57.382 47.3112 57.3303 47.3321 57.2738C47.353 57.2173 47.3624 57.1572 47.3597 57.097C47.3626 57.0378 47.3533 56.9785 47.3324 56.923C47.3114 56.8675 47.2793 56.8168 47.2379 56.7743C47.1958 56.7295 47.1448 56.6939 47.0882 56.6697C47.0316 56.6456 46.9706 56.6335 46.9091 56.6342H46.4341L46.428 57.5477Z" fill="#40484E"/>
<path d="M49.7477 58.6808L49.9548 56.3789H50.2897L50.8195 57.5969L50.9291 57.9074C50.9718 57.7856 51.0083 57.6821 51.0449 57.5969L51.5747 56.3789H51.9096L52.0923 58.6808H51.7817L51.6721 57.2436V56.9026L51.5503 57.2436L51.0875 58.2789H50.8013L50.3445 57.2436L50.2227 56.8965C50.2295 57.0121 50.2295 57.128 50.2227 57.2436L50.1131 58.693L49.7477 58.6808Z" fill="#40484E"/>
<path d="M54.3884 58.6565V56.3789H55.716V56.6347H54.7173V57.3654H55.5333V57.6395H54.7173V58.3702H55.7769V58.6443L54.3884 58.6565Z" fill="#40484E"/>
<path d="M58.0117 58.6805V56.3786H58.3283L59.3575 57.8523L59.5463 58.1873V56.3604H59.8629V58.6623H59.5463L58.5171 57.1703L58.3283 56.8354V58.6623L58.0117 58.6805Z" fill="#40484E"/>
<path d="M62.7797 58.6747V56.6346H61.988V56.3545H63.888V56.6346H63.0964V58.6503L62.7797 58.6747Z" fill="#40484E"/>
<path d="M55.0094 9.87753V8.59869L51.3069 7.13107L48.737 6.13844V18.4031H47.8845V5.16409L51.3069 6.47947V5.73652L47.8845 4.1471L46.8614 2.80736H40.2114L39.1883 4.1471L35.7659 5.73652V6.47947L39.1883 5.16409V18.4031H38.3419V6.13844L35.7659 7.13107L32.0634 8.59869V9.87753L25.797 11.5218V27.0384L36.4906 31.5752H42.5011V28.6217H44.5717V31.6118H50.5639L61.2575 27.0749V11.5157L55.0094 9.87753ZM49.4617 11.1259V9.74356L58.511 11.7288V12.4778L50.1803 11.0711V24.7547L49.4617 24.9679V11.1259ZM58.511 13.3182V23.5611L54.979 24.5964V12.8554L58.511 13.3182ZM53.8524 12.7093V24.8887L51.8245 25.4977V12.4474L53.8524 12.7093ZM40.9239 3.95832H46.155L46.6909 5.17627H40.388L40.9239 3.95832ZM43.5364 20.906H41.1005V18.939H45.9236V20.906H43.5364ZM45.9723 22.0874V24.0544H41.1492V22.0874H45.9723ZM43.987 17.7637H41.1492V7.95927C41.1492 7.47818 41.6729 7.16761 43.1345 7.16761H43.987C45.4486 7.16761 45.9723 7.47818 45.9723 7.95927V17.7637H43.987ZM28.5861 11.741L37.6355 9.74356V24.9679L36.9169 24.7608V11.0772L28.5861 12.4961V11.741ZM35.2848 25.5099L33.2569 24.9009V12.7214L35.2848 12.4596V25.5099ZM28.5861 13.3304L32.1182 12.8676V24.6025L28.5861 23.5672V13.3304ZM26.3816 12.2343L27.7275 11.942V23.3297L26.3816 22.9339V12.2343ZM60.7399 26.4477L50.6066 30.5765H45.9845V27.1054L43.5486 26.3746L41.1127 27.1054V30.5765H36.4906L26.3573 26.4477V23.7499L36.4906 26.947H40.2114V26.3381L43.5669 25.3576L46.9101 26.3198V26.9288H50.5639L60.7216 23.7499L60.7399 26.4477ZM60.7399 22.9278L59.394 23.3236V11.9359L60.7399 12.2282V22.9278ZM45.5825 2.28365L44.5168 0.304486C43.9079 0.304486 43.7435 0 43.5547 0C43.3659 0 43.2136 0.304486 42.5925 0.304486L41.5268 2.28365H45.5825Z" fill="#40484E"/>
<path d="M72.5856 51.915H14.3556V51.9759H72.5856V51.915Z" fill="#40484E"/>
</svg>
