<svg width="160" height="31" viewBox="0 0 160 31" fill="none" xmlns="http://www.w3.org/2000/svg">
<path d="M15.3605 0.0607954C16.9605 0.321355 17.8404 0.842474 14.5205 1.18321C13.7805 1.26338 7.94068 1.9248 6.72071 2.10519C4.92075 2.38579 6.26072 2.82674 8.14067 3.46811C9.58064 3.96919 13.6605 5.03147 18.4204 6.2541V0.962732C18.4004 -0.0594628 14.9605 0.000666249 14.9605 0.000666249C15.1405 0.0407523 15.2805 0.0607954 15.3605 0.0607954Z" fill="white"/>
<path d="M39.7189 11.5055C42.0988 12.0667 42.3988 13.3695 38.2589 14.9529C29.9991 18.0997 26.3592 19.3825 19.5194 21.7676C17.7794 22.3689 17.9594 23.1305 19.5994 23.7318C29.2191 27.2193 41.4188 29.9251 43.1788 30.3059V13.2894C43.1788 11.5456 39.5589 11.3853 39.1589 11.3652C39.3989 11.4254 39.5989 11.4855 39.7189 11.5055Z" fill="white"/>
<path d="M4.61989 20.0836C7.9598 18.9812 18.8995 16.1551 27.2593 14.0907C30.3392 13.3291 29.4993 12.6877 27.7193 12.2467C17.0196 9.56097 4.91988 5.77284 0.479988 3.989C0.299993 3.92888 0.159996 3.8487 0 3.78857V21.8273C0 23.7314 3.73991 24.493 3.73991 24.493L3.77991 24.473C-0.0599987 22.629 2.15995 20.9053 4.61989 20.0836Z" fill="white"/>
<path d="M65.0388 15.8345C63.8788 15.8345 63.2988 16.3957 63.2988 17.5782V30.2053H66.8987V15.8345H65.0388Z" fill="white"/>
<path d="M83.2585 15.8345L78.1987 30.2053H74.3787L69.3389 15.8345H73.3188L76.2187 25.9161L78.7186 17.1172C78.9986 16.2754 79.5786 15.8345 80.4786 15.8345H83.2585Z" fill="white"/>
<path d="M91.6981 30.5263C87.3582 30.386 85.1982 27.8606 85.1982 22.9701C85.1982 18.0796 87.3982 15.6343 91.7581 15.6143C96.318 15.6143 98.4579 18.4203 98.1779 24.0323H88.9182C89.0582 26.2371 89.9981 27.3394 91.7581 27.3394C92.5981 27.3394 93.378 26.9787 94.078 26.3172C94.398 25.9565 94.818 25.7961 95.298 25.7961H97.9579C97.158 28.8427 95.218 30.5263 91.6981 30.5263ZM88.9582 21.4668H94.338C94.118 19.5627 93.2381 18.5806 91.6781 18.5806C90.1381 18.5806 89.2181 19.5627 88.9582 21.4668Z" fill="white"/>
<path d="M117.017 27.6C118.537 27.6 119.297 27.159 119.297 26.237C119.297 25.4955 118.057 24.9142 115.577 24.4733C112.397 23.9121 110.777 22.489 110.757 20.2442C110.757 17.1575 113.197 15.6744 116.477 15.6343C118.317 15.6343 119.777 16.0351 120.857 16.8569C121.917 17.6987 122.477 18.8612 122.557 20.3644H120.277C119.437 20.3444 118.897 20.0437 118.677 19.4625C118.437 18.8412 117.697 18.4804 116.517 18.4804C115.117 18.4804 114.397 18.8612 114.397 19.6028C114.397 20.3444 115.317 20.9056 117.177 21.2664C119.617 21.7474 121.217 22.3888 121.997 23.1103C122.677 23.8118 122.997 24.6937 122.997 25.6558C122.997 29.1834 120.237 30.4862 116.437 30.4862C114.437 30.4862 112.917 30.0452 111.937 29.2034C110.857 28.3817 110.317 27.139 110.317 25.4754H113.997C114.117 27.0588 115.257 27.6 117.017 27.6Z" fill="white"/>
<path d="M127.017 15.8345C125.857 15.8345 125.277 16.3957 125.277 17.5782V30.2053H128.877V15.8345H127.017Z" fill="white"/>
<path d="M144.797 13.5695V23.9919C144.797 28.3012 142.557 30.4458 138.077 30.4257C133.637 30.3456 131.417 27.9203 131.417 23.1501C131.417 18.2596 133.317 15.7743 137.137 15.634C138.917 15.634 140.297 16.3755 141.237 17.8587V11.7456H143.017C143.997 11.7456 144.797 12.5874 144.797 13.5695ZM135.137 22.9898C135.117 25.896 136.077 27.3591 138.137 27.3591C140.197 27.3591 141.217 25.896 141.217 22.9898C141.137 20.2238 140.137 18.8609 138.177 18.8609C136.237 18.8609 135.237 20.2038 135.137 22.9898Z" fill="white"/>
<path d="M153.496 30.5263C149.156 30.386 146.996 27.8606 146.996 22.9701C146.996 18.0796 149.196 15.6343 153.556 15.6143C158.116 15.6143 160.256 18.4203 159.976 24.0323H150.716C150.856 26.2371 151.796 27.3394 153.556 27.3394C154.396 27.3394 155.176 26.9787 155.876 26.3172C156.196 25.9565 156.616 25.7961 157.096 25.7961H159.756C158.976 28.8427 157.016 30.5263 153.496 30.5263ZM150.756 21.4668H156.136C155.916 19.5627 155.036 18.5806 153.476 18.5806C151.956 18.5806 151.036 19.5627 150.756 21.4668Z" fill="white"/>
<path d="M53.0186 19.7232C53.0186 18.8613 53.0186 18.0596 53.0186 17.298C53.0186 16.4562 53.7185 15.8348 54.4785 15.8348C55.2385 15.8348 56.4785 15.8348 56.4785 15.8348C56.5185 16.1555 56.5785 17.5786 56.5785 18.3603C57.1384 16.7167 58.5184 15.5142 60.6984 15.5142C60.6984 15.5142 60.6984 17.1176 60.6984 17.8993C60.6984 18.681 60.1784 19.2622 59.4184 19.3624C57.6184 19.6029 56.5785 20.7053 56.5785 23.9523V30.2057H53.0386V19.7232H53.0186Z" fill="white"/>
<path d="M100.857 19.7232C100.857 18.8613 100.857 18.0596 100.857 17.298C100.857 16.4562 101.557 15.8348 102.317 15.8348C103.077 15.8348 104.317 15.8348 104.317 15.8348C104.357 16.1555 104.417 17.5786 104.417 18.3603C104.977 16.7167 106.357 15.5142 108.537 15.5142C108.537 15.5142 108.537 17.1176 108.537 17.8993C108.537 18.681 108.017 19.2622 107.257 19.3624C105.457 19.6029 104.417 20.7053 104.417 23.9523V30.2057H100.877V19.7232H100.857Z" fill="white"/>
<path d="M53.1595 2.26611H54.3195L56.0395 4.35059L54.1395 6.75576H53.0195L54.8995 4.35059L53.1595 2.26611ZM56.0795 6.7758V2.26611H57.0394V6.7758H56.0795ZM58.2194 4.33055L60.1394 6.7758H58.9594L57.0594 4.37063L58.7794 2.28616H59.9394L58.2194 4.33055Z" fill="white"/>
<path d="M66.3987 2.1665H66.7187V6.7764H65.7587V3.97038L63.1388 6.85658H62.7988V2.24668H63.7588V5.0527L66.3987 2.1665Z" fill="white"/>
<path d="M70.8584 6.7758V3.10792H69.3984V2.26611H73.2383V3.10792H71.7984V6.7758H70.8584Z" fill="white"/>
<path d="M76.2193 2.26611H79.5192V6.7758H78.5592V3.10792H77.1193V3.54887C77.0793 4.73141 76.9593 5.55317 76.7393 6.07429C76.5193 6.57537 76.1393 6.83593 75.6193 6.83593C75.4993 6.83593 75.3793 6.81588 75.2793 6.7758V5.97408C75.3793 5.99412 75.4393 5.99412 75.4593 5.99412C75.7193 5.99412 75.9193 5.79369 76.0393 5.39283C76.1593 4.99197 76.2193 4.33055 76.2393 3.40857L76.2193 2.26611Z" fill="white"/>
<path d="M82.4592 4.51123C82.4392 3.86986 82.6792 3.30865 83.1591 2.84766C83.6391 2.38667 84.1991 2.14615 84.8391 2.1662C85.4991 2.14615 86.0591 2.38667 86.5391 2.84766C87.019 3.30865 87.239 3.86986 87.239 4.51123C87.259 5.15261 87.019 5.71382 86.5391 6.17481C86.0591 6.6358 85.4991 6.87631 84.8391 6.85627C84.1991 6.87631 83.6391 6.6358 83.1591 6.15476C82.6792 5.71382 82.4592 5.15261 82.4592 4.51123ZM86.2391 4.53128C86.2391 4.11037 86.0991 3.76964 85.8391 3.48904C85.5791 3.20844 85.2391 3.06813 84.8591 3.06813C84.4591 3.06813 84.1391 3.20844 83.8591 3.48904C83.5991 3.76964 83.4591 4.13042 83.4591 4.53128C83.4591 4.95218 83.5991 5.29291 83.8591 5.57352C84.1191 5.85412 84.4591 5.99442 84.8591 5.99442C85.2591 5.99442 85.5791 5.85412 85.8591 5.57352C86.0991 5.29291 86.2391 4.93214 86.2391 4.53128Z" fill="white"/>
<path d="M93.9981 5.41287C93.9981 5.81373 93.8581 6.15446 93.5581 6.39498C93.2581 6.65554 92.8781 6.7758 92.3981 6.7758H90.1582V2.26611H92.1382C92.5781 2.26611 92.9381 2.38637 93.2181 2.60685C93.4981 2.82732 93.6381 3.12796 93.6381 3.48874C93.6381 3.84951 93.4981 4.13012 93.2181 4.33055C93.7381 4.53098 93.9981 4.89175 93.9981 5.41287ZM91.0982 3.04779V4.06999H92.0982C92.5181 4.06999 92.7381 3.8896 92.7381 3.54887C92.7381 3.20814 92.5181 3.04779 92.0982 3.04779H91.0982ZM93.0781 5.39283C93.0781 5.21244 93.0181 5.07214 92.8781 4.97192C92.7381 4.87171 92.5581 4.81158 92.2981 4.81158H91.0982V5.99412H92.2981C92.5381 5.99412 92.7181 5.93399 92.8581 5.83378C93.0181 5.71352 93.0781 5.57322 93.0781 5.39283Z" fill="white"/>
<path d="M100.598 2.1665H100.918V6.7764H99.958V3.97038L97.338 6.85658H96.998V2.24668H97.958V5.0527L100.598 2.1665Z" fill="white"/>
<path d="M107.758 2.16611H108.078V6.77601H107.118V3.96999L104.498 6.85619H104.158V2.24629H105.118V5.05231L107.758 2.16611ZM104.758 0.00146484H105.538C105.538 0.56267 105.758 0.843273 106.218 0.843273C106.678 0.843273 106.918 0.56267 106.918 0.00146484H107.718C107.718 0.462455 107.578 0.82323 107.298 1.10383C107.018 1.38444 106.658 1.52474 106.218 1.52474C105.778 1.52474 105.418 1.38444 105.158 1.10383C104.898 0.82323 104.758 0.462455 104.758 0.00146484Z" fill="white"/>
<path d="M115.718 6.7758V2.26611H116.678V6.7758H115.718ZM117.858 4.33055L119.838 6.7758H118.658L116.718 4.37063L118.518 2.28616H119.658L117.858 4.33055Z" fill="white"/>
<path d="M126.338 5.41287C126.338 5.81373 126.198 6.15446 125.898 6.39498C125.598 6.65554 125.218 6.7758 124.738 6.7758H122.498V2.26611H124.478C124.918 2.26611 125.278 2.38637 125.558 2.60685C125.838 2.82732 125.978 3.12796 125.978 3.48874C125.978 3.84951 125.838 4.13012 125.558 4.33055C126.078 4.53098 126.338 4.89175 126.338 5.41287ZM123.438 3.04779V4.06999H124.438C124.858 4.06999 125.078 3.8896 125.078 3.54887C125.078 3.20814 124.858 3.04779 124.438 3.04779H123.438ZM125.418 5.39283C125.418 5.21244 125.358 5.07214 125.218 4.97192C125.078 4.87171 124.898 4.81158 124.638 4.81158H123.438V5.99412H124.638C124.878 5.99412 125.058 5.93399 125.198 5.83378C125.338 5.71352 125.418 5.57322 125.418 5.39283Z" fill="white"/>
<path d="M132.897 4.05055V6.7764H131.997V6.27533C131.657 6.67619 131.177 6.87662 130.557 6.87662C130.097 6.87662 129.717 6.75636 129.417 6.51584C129.137 6.27533 128.997 5.95464 128.997 5.57382C128.997 5.193 129.137 4.87231 129.437 4.6318C129.737 4.39128 130.137 4.29107 130.637 4.29107H131.917V3.99042C131.917 3.66973 131.837 3.44926 131.657 3.26887C131.497 3.10853 131.257 3.02835 130.957 3.02835C130.497 3.02835 130.077 3.24883 129.717 3.68978L129.157 3.12857C129.597 2.48719 130.217 2.1665 131.057 2.1665C131.617 2.1665 132.057 2.32685 132.397 2.66758C132.737 3.00831 132.897 3.4693 132.897 4.05055ZM131.937 5.07275V4.99257H130.777C130.237 4.99257 129.977 5.17296 129.977 5.53374C129.977 5.71412 130.057 5.85442 130.197 5.97468C130.337 6.0749 130.537 6.13503 130.777 6.13503C131.097 6.13503 131.377 6.03481 131.597 5.83438C131.817 5.63395 131.937 5.37339 131.937 5.07275Z" fill="white"/>
<path d="M140.718 4.51154C140.718 5.193 140.518 5.75421 140.098 6.19516C139.678 6.6361 139.158 6.87662 138.518 6.87662C137.898 6.87662 137.398 6.65615 137.018 6.23524V8.43998H136.058V2.26672H136.958V2.9081C137.298 2.42706 137.818 2.1665 138.518 2.1665C139.158 2.1665 139.678 2.38698 140.098 2.84797C140.518 3.28891 140.718 3.85012 140.718 4.51154ZM139.338 5.57382C139.598 5.29322 139.738 4.95249 139.738 4.51154C139.738 4.09064 139.598 3.72986 139.338 3.44926C139.078 3.16866 138.758 3.02836 138.358 3.02836C137.978 3.02836 137.658 3.14861 137.398 3.40917C137.138 3.66973 136.998 4.03051 136.998 4.4915C136.998 4.95249 137.138 5.33331 137.398 5.57382C137.658 5.83438 137.978 5.95464 138.358 5.95464C138.758 5.99473 139.078 5.85442 139.338 5.57382Z" fill="white"/>
<path d="M144.478 6.7758V3.10792H143.038V2.26611H146.878V3.10792H145.438V6.7758H144.478Z" fill="white"/>
<path d="M153.137 4.05055V6.7764H152.237V6.27533C151.897 6.67619 151.417 6.87662 150.797 6.87662C150.337 6.87662 149.957 6.75636 149.657 6.51584C149.377 6.27533 149.237 5.95464 149.237 5.57382C149.237 5.193 149.377 4.87231 149.677 4.6318C149.977 4.39128 150.377 4.29107 150.877 4.29107H152.157V3.99042C152.157 3.66973 152.077 3.44926 151.897 3.26887C151.737 3.10853 151.497 3.02835 151.197 3.02835C150.737 3.02835 150.317 3.24883 149.957 3.68978L149.397 3.12857C149.837 2.48719 150.457 2.1665 151.297 2.1665C151.857 2.1665 152.297 2.32685 152.637 2.66758C152.977 3.00831 153.137 3.4693 153.137 4.05055ZM152.157 5.07275V4.99257H150.997C150.457 4.99257 150.197 5.17296 150.197 5.53374C150.197 5.71412 150.277 5.85442 150.417 5.97468C150.557 6.0749 150.757 6.13503 150.997 6.13503C151.317 6.13503 151.597 6.03481 151.817 5.83438C152.057 5.63395 152.157 5.37339 152.157 5.07275Z" fill="white"/>
<path d="M156.677 2.26611H159.977V6.7758H159.017V3.10792H157.577V3.54887C157.537 4.73141 157.417 5.55317 157.197 6.07429C156.977 6.57537 156.597 6.83593 156.077 6.83593C155.957 6.83593 155.837 6.81588 155.737 6.7758V5.97408C155.837 5.99412 155.897 5.99412 155.917 5.99412C156.177 5.99412 156.377 5.79369 156.497 5.39283C156.617 4.99197 156.677 4.33055 156.697 3.40857L156.677 2.26611Z" fill="white"/>
</svg>
