<svg width="58" height="46" viewBox="0 0 58 46" fill="none" xmlns="http://www.w3.org/2000/svg">
<path d="M56.6699 20.3963C57.5718 18.1157 57.8788 15.6435 57.5142 12.9221C57.1112 9.85578 55.8448 7.15358 53.6957 4.93049C49.551 0.637636 44.5044 -0.876362 38.7095 0.48432C32.3773 1.95999 27.8488 7.32606 27.2539 13.497C27.1964 14.0145 27.1772 14.5319 27.1772 15.0494C27.158 17.5791 27.7912 19.9363 29.0001 22.1403C29.7868 23.5776 30.7654 24.8808 32.0127 25.9348C33.8164 27.4488 35.6393 28.9628 37.4622 30.4577V30.0744C37.4622 30.3235 37.5773 30.5535 37.7692 30.7068C39.2084 31.895 40.6475 33.0832 42.0866 34.2714C42.432 34.5589 42.432 34.5589 42.7774 34.2714C44.3317 32.9874 45.886 31.6842 47.4594 30.4002L47.7664 30.151C48.7259 29.3653 49.6853 28.5604 50.6447 27.7746L50.6639 27.7555C51.4506 27.0272 52.3525 26.4331 53.12 25.6857C54.7127 24.0567 55.9024 22.3127 56.6699 20.3963Z" fill="#FFDA05"/>
<path d="M20.2119 28.6562C20.2119 25.8582 20.2119 23.0793 20.2119 20.2813C20.2119 20.1663 20.2119 20.0321 20.2119 19.9171C20.2311 19.4189 20.4422 19.1122 20.9411 18.9781C21.44 18.8439 21.9581 18.7098 22.457 18.5948C23.1286 18.4415 23.5507 18.7289 23.7042 19.3805C24.5869 23.0026 26.3906 26.069 29.1154 28.5987C30.094 29.4994 31.1494 30.3235 32.1855 31.1667C34.4306 33.0257 36.6756 34.8847 38.9207 36.7436C38.9591 36.7819 39.0166 36.8203 39.055 36.8586C39.3237 37.1077 39.3237 37.1077 39.0358 37.3377C37.2513 38.8134 35.4668 40.2891 33.6822 41.7839C32.4734 42.7804 31.2837 43.777 30.0748 44.7736C29.998 44.8502 29.9021 44.9077 29.8254 44.9844C29.384 45.3293 29.2113 45.3293 28.7892 44.9844C28.0408 44.3711 27.3117 43.7578 26.5633 43.1254C24.6253 41.5156 22.7064 39.9058 20.7492 38.3151C20.3654 38.0085 20.2119 37.6635 20.2119 37.1652C20.2119 34.348 20.2119 31.5117 20.2119 28.6562Z" fill="#AFBE2D"/>
<path d="M3.59473 23.3093C5.9741 22.7152 8.35347 22.1211 10.7328 21.527C12.1336 21.182 13.5344 20.8371 14.9159 20.4921C15.0119 20.4729 15.0886 20.4346 15.1846 20.4346C15.7602 20.3579 16.1824 20.7221 16.2208 21.2778C16.2208 21.3928 16.2208 21.4887 16.2208 21.6036C16.2208 25.2066 16.2208 28.8095 16.2208 32.4124C16.2208 32.5274 16.2208 32.6616 16.2208 32.7766C16.144 33.4857 15.3957 33.8306 14.82 33.4282C14.3787 33.1215 13.9757 32.7574 13.5727 32.4124C11.0591 30.3235 8.54536 28.2346 6.03167 26.1456C5.12981 25.3982 4.36227 24.5167 3.69067 23.5776C3.65229 23.5009 3.59473 23.4434 3.59473 23.3093Z" fill="#AE7F47"/>
<path d="M1.3492 11.7914C1.31082 11.5422 1.38757 11.3506 1.44514 11.159C1.77134 9.95159 2.25106 8.82088 2.8459 7.7285C2.99941 7.46019 3.15292 7.4027 3.42155 7.44103C4.13153 7.55602 4.78394 7.78599 5.41716 8.09262C5.78174 8.26511 6.12713 8.45675 6.49171 8.61007C7.43195 9.05085 8.39137 9.07002 9.33161 8.5909C9.73457 8.38009 10.1183 8.16928 10.5021 7.95847C11.7494 7.28771 13.035 7.21106 14.3782 7.671C14.8771 7.84349 15.376 8.07346 15.8557 8.3226C16.1627 8.47592 16.4889 8.6484 16.8151 8.76338C17.5635 9.01252 18.3118 9.01252 19.0602 8.68673C19.5015 8.49508 19.9045 8.26511 20.3266 8.03513C20.979 7.671 21.6698 7.44103 22.4182 7.4027C23.1281 7.36437 23.7805 7.51769 24.4521 7.7285C24.644 7.78599 24.6248 7.90098 24.5673 8.0543C24.2794 8.74422 24.03 9.45331 23.8381 10.1816C23.723 10.6032 23.627 11.0056 23.5311 11.4273C23.4927 11.5997 23.4352 11.6572 23.2625 11.6189C22.1495 11.4656 21.0942 11.7531 20.1155 12.2705C19.7126 12.4813 19.3096 12.7113 18.8875 12.9029C18.2543 13.2096 17.621 13.2096 16.9686 12.9796C16.5273 12.8071 16.1051 12.5771 15.683 12.3663C15.0306 12.0597 14.359 11.7914 13.649 11.6572C12.4593 11.4273 11.3272 11.6572 10.2718 12.213C9.83051 12.443 9.40837 12.6729 8.96703 12.8838C8.31462 13.1904 7.66221 13.1904 7.0098 12.9413C6.64522 12.8071 6.28064 12.6155 5.93525 12.443C5.1869 12.0597 4.41936 11.7722 3.59425 11.6381C2.94184 11.5231 2.30862 11.5806 1.6754 11.7147C1.56027 11.7339 1.48352 11.7531 1.3492 11.7914Z" fill="#1999D5"/>
<path d="M0.984496 14.9728C0.946119 14.2062 1.00369 13.4396 1.11882 12.6922C1.15719 12.4622 1.27232 12.3472 1.4834 12.2897C2.38526 12.0214 3.26793 12.0214 4.1506 12.2897C4.70706 12.4622 5.24434 12.673 5.76243 12.9413C6.12701 13.133 6.49159 13.3246 6.89455 13.4588C7.66209 13.7271 8.39125 13.7079 9.13961 13.3821C9.56175 13.1905 9.96471 12.9797 10.3677 12.7497C11.7301 11.9639 13.15 11.8873 14.6083 12.4622C15.088 12.6539 15.5678 12.8838 16.0283 13.1138C16.2969 13.248 16.5464 13.3629 16.8342 13.4588C17.5825 13.7271 18.3309 13.7079 19.0792 13.3821C19.5781 13.1713 20.0387 12.8838 20.5184 12.6347C21.1132 12.3281 21.7273 12.1364 22.3989 12.0789C22.514 12.0598 22.6483 12.0598 22.7634 12.0598C23.4158 12.0598 23.4158 12.0789 23.3391 12.7113C23.2431 13.5738 23.1856 14.4553 23.1856 15.3177C23.1856 15.7968 23.0896 15.9118 22.6483 16.0268C20.7295 16.5059 18.8106 16.9659 16.8918 17.4258C16.6615 17.4833 16.4696 17.4258 16.2777 17.33C15.7213 17.0425 15.1456 16.7742 14.5508 16.5634C13.0349 16.046 11.5957 16.1801 10.195 16.9467C9.8112 17.1575 9.40825 17.3683 9.00529 17.56C8.33369 17.9049 7.6429 17.9049 6.95212 17.6175C6.6451 17.5025 6.35728 17.3492 6.06945 17.215C5.57055 16.9659 5.07165 16.7359 4.55356 16.5634C3.49819 16.1993 2.42363 16.161 1.34908 16.4676C1.02287 16.5634 1.00368 16.5634 0.984496 16.2376C0.965308 15.816 0.984496 15.3944 0.984496 14.9728Z" fill="#1999D5"/>
<path d="M3.42178 6.94274C3.40259 6.80859 3.46016 6.7511 3.49853 6.6936C4.17013 5.67788 4.99524 4.77715 5.87791 3.95307C6.0506 3.79976 6.18492 3.76143 6.396 3.87641C7.47055 4.43219 8.54511 4.37469 9.60047 3.78059C9.90749 3.60811 10.2145 3.43563 10.5407 3.28231C11.7688 2.63072 13.0544 2.55406 14.3592 2.99485C14.8773 3.16733 15.357 3.3973 15.8367 3.62727C16.1437 3.78059 16.4508 3.93391 16.7578 4.04889C17.5637 4.35553 18.3504 4.33636 19.118 3.97224C19.5209 3.78059 19.9239 3.56978 20.3077 3.35897C21.67 2.59239 23.0708 2.51573 24.5099 3.05234C25.124 3.28231 25.7188 3.60811 26.3137 3.87641C26.5439 3.9914 26.6207 4.16388 26.5439 4.41302C26.5247 4.48968 26.4672 4.5855 26.4096 4.66216C25.8723 5.44791 25.3926 6.27198 24.9896 7.13439C24.9129 7.30687 24.8361 7.3452 24.6443 7.2877C24.2605 7.13439 23.8575 7.03856 23.4546 6.98107C22.4184 6.80859 21.4398 6.98107 20.4995 7.44102C20.039 7.67099 19.5785 7.92013 19.118 8.16927C18.3312 8.59089 17.5253 8.59089 16.7386 8.22676C16.374 8.05428 16.0286 7.8818 15.664 7.70932C14.9924 7.38352 14.2825 7.13439 13.5341 7.00023C12.4979 6.82775 11.5193 7.00023 10.5791 7.46018C10.1569 7.65183 9.75398 7.8818 9.35102 8.11178C8.42998 8.62922 7.50893 8.64838 6.58788 8.15011C6.396 8.05428 6.20411 7.95846 6.01223 7.86264C5.16793 7.40269 4.34283 7.07689 3.42178 6.94274Z" fill="#1999D5"/>
<path d="M24.6248 2.57322C24.1259 2.45823 23.7421 2.34324 23.3392 2.28575C22.3414 2.1516 21.4203 2.30491 20.5184 2.7457C20.0963 2.93734 19.6933 3.16732 19.2904 3.39729C18.3693 3.9339 17.4291 3.9339 16.4889 3.45479C15.8556 3.12899 15.2032 2.80319 14.5124 2.57322C13.0349 2.07494 11.615 2.18993 10.2526 2.91818C9.81127 3.14815 9.36993 3.41646 8.90941 3.62727C8.21862 3.9339 7.33595 3.91474 6.62598 3.47395C10.9818 -0.41645 18.8107 -1.35551 24.6248 2.57322Z" fill="#1999D5"/>
<path d="M15.7219 17.7324C14.7241 17.9816 13.7071 18.2307 12.7093 18.4798C9.46641 19.2656 6.22356 20.0513 2.9807 20.8371C2.88476 20.8562 2.80801 20.8946 2.71206 20.8946C2.32829 20.9521 2.13641 20.8562 2.00209 20.4921C1.67588 19.6872 1.42643 18.8823 1.27293 18.0391C1.25374 17.9624 1.23455 17.8857 1.23455 17.8091C1.13861 17.0617 0.946722 17.1575 1.77183 16.9275C2.57774 16.7167 3.38366 16.755 4.17039 16.985C4.70767 17.1383 5.24494 17.3683 5.74385 17.6174C5.95492 17.7133 6.1468 17.8282 6.35788 17.9241C7.43243 18.4607 8.50699 18.4798 9.56236 17.8857C9.92694 17.6749 10.2915 17.5024 10.6561 17.3108C11.8074 16.7167 12.9971 16.6209 14.2252 17.0233C14.6857 17.1767 15.1462 17.3491 15.5875 17.5791C15.6259 17.5983 15.7027 17.6174 15.7219 17.7324Z" fill="#1999D5"/>
<path d="M29.0001 22.1211C29.7868 23.5584 30.7654 24.8616 32.0127 25.9157C33.8164 27.4297 35.6393 28.9437 37.4622 30.4385V12.0406C37.4622 11.4848 36.9441 11.1015 36.426 11.2165L27.2539 13.4779C27.1964 13.9953 27.1772 14.5128 27.1772 15.0302C27.158 17.5791 27.7912 19.9363 29.0001 22.1211Z" fill="#83529B"/>
<path d="M47.7471 18.9014V30.151C48.7065 29.3652 49.6659 28.5603 50.6253 27.7746V19.1697C50.6253 18.6714 50.1456 18.3073 49.6659 18.4223L47.7471 18.9014Z" fill="#83529B"/>
<path d="M37.4805 12.1556V30.4577C39.0155 31.7226 40.5506 33.0066 42.0857 34.2715C42.4311 34.5589 42.4311 34.5589 42.7765 34.2715C44.3308 32.9874 45.885 31.6843 47.4585 30.4002L47.7655 30.1511V18.9015V15.2027C47.7655 14.8578 47.5352 14.532 47.209 14.417L38.5742 11.3698C38.0369 11.1782 37.4805 11.5807 37.4805 12.1556Z" fill="#9975B0"/>
<path d="M50.6247 27.7555C50.6247 27.7555 50.6056 27.7555 50.6247 27.7555C51.4115 27.0272 52.3325 26.4331 53.1001 25.6665C54.7119 24.0567 55.9208 22.2936 56.6691 20.3963L51.6609 18.5565C51.162 18.3648 50.6247 18.7481 50.6247 19.2847V27.7555Z" fill="#9975B0"/>
<path d="M50.625 19.2656V27.7555C50.6442 27.7363 50.625 27.7555 50.625 27.7555" fill="#9975B0"/>
</svg>
