<svg width="97" height="47" viewBox="0 0 97 47" fill="none" xmlns="http://www.w3.org/2000/svg">
<g filter="url(#filter0_d)">
<rect x="4" y="3.71921" width="88.6845" height="39.6472" rx="19.8236" fill="white"/>
</g>
<path d="M21.9755 29.1109C21.9407 29.1109 21.906 29.1109 21.8365 29.1109C21.7671 29.1109 21.715 29.1109 21.6455 29.1109V30.4309C21.6455 30.6046 21.6455 30.7436 21.6455 30.8652C21.6455 30.9867 21.6281 31.0736 21.6281 31.1604L22.4618 31.1083V31.5078H20.2213V31.2125C20.3949 31.2125 20.5165 31.1778 20.6034 31.1257C20.6902 31.0736 20.7423 30.9867 20.7771 30.8999C20.8118 30.7957 20.8292 30.6915 20.8292 30.5525C20.8292 30.4136 20.8292 30.2746 20.8292 30.1183V26.193C20.8292 26.0714 20.8292 25.9499 20.8292 25.8457C20.8292 25.7414 20.8465 25.6372 20.8465 25.533L20.1865 25.5678V25.1683C20.4992 25.1683 20.8292 25.1509 21.1765 25.1509C21.5065 25.1509 21.8539 25.1509 22.2186 25.1509C23.1044 25.1509 23.7644 25.3072 24.2334 25.6025C24.7197 25.9325 24.9629 26.4014 24.9629 27.0267C24.9629 27.1483 24.9455 27.2872 24.9281 27.4436C24.8934 27.5999 24.8413 27.7562 24.7544 27.9125C24.6676 28.0688 24.546 28.2251 24.4071 28.3815C24.2508 28.5378 24.0771 28.6594 23.8513 28.7809C23.6255 28.8851 23.3476 28.9894 23.035 29.0415C22.7571 29.0762 22.3923 29.1109 21.9755 29.1109ZM21.6455 28.7288C21.7497 28.7462 21.8539 28.7462 21.9407 28.7636C22.0276 28.7636 22.1318 28.7636 22.236 28.7636C22.4965 28.7636 22.7397 28.7288 22.9655 28.642C23.1913 28.5725 23.3997 28.4509 23.5734 28.312C23.7471 28.173 23.886 27.982 23.9729 27.7736C24.0771 27.5651 24.1292 27.322 24.1292 27.0614C24.1292 26.7662 24.0771 26.523 23.9902 26.332C23.9034 26.1235 23.7644 25.9672 23.6081 25.8457C23.4344 25.7241 23.2434 25.6372 23.0176 25.5678C22.7918 25.5157 22.5313 25.4809 22.2534 25.4809C22.0971 25.4809 21.9755 25.4983 21.8886 25.5504C21.8018 25.6025 21.7497 25.672 21.715 25.7762C21.6802 25.863 21.6628 25.9846 21.6628 26.1235C21.6628 26.2625 21.6628 26.4014 21.6628 26.5578V28.7288H21.6455Z" fill="black"/>
<path d="M29.1486 28.8157L25.9528 28.8678C25.9528 29.2152 25.9701 29.5278 26.0396 29.8231C26.0917 30.101 26.1785 30.3441 26.3001 30.5525C26.4217 30.761 26.578 30.9173 26.7691 31.0215C26.9601 31.1257 27.1859 31.1778 27.4638 31.1778C27.6028 31.1778 27.7591 31.1604 27.898 31.1257C28.0544 31.091 28.1933 31.0389 28.3322 30.9694C28.4712 30.8999 28.5928 30.8304 28.7144 30.7262C28.8359 30.6394 28.9228 30.5352 29.0096 30.431L29.2354 30.6047C29.1138 30.7957 28.9749 30.952 28.8012 31.091C28.6449 31.2299 28.4712 31.3341 28.2975 31.421C28.1238 31.5078 27.9501 31.5599 27.7591 31.5947C27.5854 31.6294 27.4117 31.6468 27.2554 31.6468C26.9428 31.6468 26.6475 31.5947 26.387 31.4731C26.1091 31.3689 25.8833 31.1952 25.6749 30.9868C25.4838 30.7783 25.3275 30.5178 25.2059 30.2225C25.0843 29.9273 25.0322 29.5973 25.0322 29.2152C25.0322 28.9025 25.0843 28.5899 25.1885 28.2946C25.2928 27.9994 25.4491 27.7388 25.6575 27.5131C25.8659 27.2873 26.0917 27.1136 26.387 26.9746C26.6649 26.8357 26.9775 26.7662 27.3249 26.7662C27.568 26.7662 27.8112 26.8009 28.037 26.8878C28.2628 26.9746 28.4538 27.0962 28.6275 27.2525C28.8012 27.4262 28.9228 27.6346 29.027 27.8778C29.1138 28.1904 29.1486 28.4857 29.1486 28.8157ZM27.3249 27.1657C26.9775 27.1657 26.6822 27.2699 26.4391 27.4783C26.2133 27.6867 26.057 28.0167 25.9875 28.4857H28.2975C28.2975 28.3294 28.2801 28.1731 28.2454 28.0167C28.2107 27.8604 28.1586 27.7215 28.0717 27.5999C27.9849 27.4783 27.898 27.3741 27.7591 27.2873C27.6549 27.2004 27.4986 27.1657 27.3249 27.1657Z" fill="black"/>
<path d="M32.2407 27.3046C32.1192 27.3046 32.015 27.322 31.8934 27.3741C31.7718 27.4262 31.6502 27.4957 31.546 27.5825C31.4244 27.6694 31.3202 27.7736 31.216 27.8951C31.1118 28.0167 31.0249 28.1557 30.9381 28.312L30.9555 30.5525C30.9555 30.6741 30.9555 30.7783 30.9555 30.8825C30.9555 30.9694 30.9381 31.0736 30.9207 31.1778L31.4939 31.1431V31.5078H29.6181V31.2299C29.757 31.2299 29.8613 31.1952 29.9307 31.1431C30.0002 31.091 30.0523 31.0041 30.087 30.9173C30.1218 30.8131 30.1391 30.7089 30.1391 30.5699C30.1391 30.431 30.1391 30.292 30.1391 30.1183V28.0341C30.1391 27.9473 30.1391 27.843 30.1391 27.7562C30.1391 27.652 30.1565 27.5651 30.1739 27.4609L29.5312 27.4957V27.1309H29.8091C29.9307 27.1309 30.0523 27.1309 30.1391 27.1136C30.226 27.0962 30.2955 27.0788 30.3476 27.0615C30.3997 27.0441 30.4518 27.0094 30.4865 26.992C30.5213 26.9572 30.556 26.9399 30.5907 26.9051H30.8513C30.8686 26.992 30.8686 27.1136 30.8686 27.2525C30.8686 27.3915 30.886 27.5825 30.886 27.7909C30.9555 27.6867 31.0423 27.5651 31.1465 27.4436C31.2507 27.322 31.3723 27.2351 31.5113 27.1309C31.6502 27.0441 31.7892 26.9746 31.9455 26.9051C32.1018 26.853 32.2581 26.8183 32.4144 26.8183C32.5013 26.8183 32.5707 26.8357 32.6576 26.853C32.7444 26.8704 32.7965 26.9051 32.866 26.9572C32.9181 27.0094 32.9702 27.0615 33.005 27.1309C33.0397 27.2004 33.0571 27.2872 33.0571 27.3915C33.0571 27.4262 33.0571 27.4783 33.0397 27.5304C33.0223 27.5825 33.005 27.6346 32.9529 27.6694C32.9181 27.7215 32.866 27.7562 32.8139 27.7736C32.7618 27.8083 32.6923 27.8257 32.6055 27.8257C32.536 27.8257 32.4839 27.8083 32.4144 27.7736C32.3623 27.7388 32.3102 27.7041 32.2755 27.652C32.2407 27.5999 32.206 27.5478 32.1886 27.4957C32.2407 27.4262 32.2234 27.3741 32.2407 27.3046Z" fill="black"/>
<path d="M36.1994 25.0641C36.1473 25.012 36.0952 24.9599 36.0257 24.9426C35.9562 24.9252 35.8867 24.9078 35.8173 24.9078C35.6783 24.9078 35.5567 24.9426 35.4699 25.012C35.3831 25.0815 35.3136 25.151 35.2441 25.2552C35.192 25.3594 35.1573 25.481 35.1225 25.6026C35.1052 25.7242 35.0878 25.8631 35.0878 25.9847V26.9399H36.321V27.2873L35.0878 27.3047L35.1052 30.5179C35.1052 30.6394 35.1052 30.7437 35.1052 30.8479C35.1052 30.9347 35.0878 31.0389 35.0704 31.1431L35.6436 31.1084V31.4731H33.7852V31.1952C33.9241 31.1952 34.0283 31.1605 34.0978 31.1084C34.1673 31.0563 34.2194 30.9694 34.2541 30.8826C34.2888 30.7784 34.3062 30.6742 34.3062 30.5352C34.3062 30.3963 34.3062 30.2573 34.3062 30.0837L34.2888 27.3047L33.542 27.3221V26.9052H34.2888V26.7142C34.2888 26.3842 34.3236 26.0715 34.3757 25.811C34.4278 25.5505 34.532 25.3073 34.6536 25.1336C34.7752 24.9426 34.9488 24.8036 35.1573 24.6994C35.3657 24.5952 35.6262 24.5431 35.9215 24.5431C36.0257 24.5431 36.1299 24.5605 36.2341 24.5778C36.3557 24.5952 36.4599 24.6473 36.5467 24.6994C36.651 24.7515 36.7204 24.821 36.7899 24.9078C36.8594 24.9947 36.8941 25.0989 36.8941 25.2205C36.8941 25.342 36.8594 25.4463 36.7899 25.5157C36.7204 25.5852 36.6336 25.6373 36.512 25.6373C36.4425 25.6373 36.3731 25.6199 36.321 25.6026C36.2689 25.5852 36.2341 25.5505 36.1994 25.5157C36.1646 25.481 36.1473 25.4289 36.1299 25.3942C36.1125 25.342 36.1125 25.3073 36.1125 25.2726C36.1125 25.2378 36.1125 25.2031 36.1299 25.1684C36.1646 25.151 36.182 25.1163 36.1994 25.0641Z" fill="black"/>
<path d="M40.7157 28.8157L37.5199 28.8678C37.5199 29.2152 37.5373 29.5278 37.6068 29.8231C37.6589 30.101 37.7457 30.3441 37.8673 30.5525C37.9889 30.761 38.1452 30.9173 38.3363 31.0215C38.5273 31.1257 38.7531 31.1778 39.031 31.1778C39.1699 31.1778 39.3263 31.1604 39.4652 31.1257C39.6215 31.091 39.7605 31.0389 39.8994 30.9694C40.0384 30.8999 40.16 30.8304 40.2815 30.7262C40.4031 30.6394 40.49 30.5352 40.5768 30.431L40.8026 30.6047C40.681 30.7957 40.5421 30.952 40.3684 31.091C40.2121 31.2299 40.0384 31.3341 39.8647 31.421C39.691 31.5078 39.5173 31.5599 39.3263 31.5947C39.1526 31.6294 38.9789 31.6468 38.8226 31.6468C38.5099 31.6468 38.2147 31.5947 37.9368 31.4731C37.6589 31.3689 37.4331 31.1952 37.2247 30.9868C37.0336 30.7783 36.8773 30.5178 36.7557 30.2225C36.6341 29.9273 36.582 29.5973 36.582 29.2152C36.582 28.9025 36.6341 28.5899 36.7383 28.2946C36.8426 27.9994 36.9989 27.7388 37.2073 27.5131C37.4157 27.2873 37.6415 27.1136 37.9368 26.9746C38.2147 26.8357 38.5273 26.7662 38.8747 26.7662C39.1178 26.7662 39.361 26.8009 39.5868 26.8878C39.8126 26.9746 40.0036 27.0962 40.1773 27.2525C40.351 27.4262 40.4726 27.6346 40.5768 27.8778C40.6636 28.1904 40.7157 28.4857 40.7157 28.8157ZM38.8747 27.1657C38.5273 27.1657 38.232 27.2699 37.9889 27.4783C37.7631 27.6867 37.6068 28.0167 37.5373 28.4857H39.8473C39.8473 28.3294 39.8299 28.1731 39.7952 28.0167C39.7605 27.8604 39.7084 27.7215 39.6215 27.5999C39.5347 27.4783 39.4478 27.3741 39.3089 27.2873C39.2047 27.2004 39.0484 27.1657 38.8747 27.1657Z" fill="black"/>
<path d="M44.4666 27.652C44.4319 27.5478 44.3624 27.4609 44.2929 27.3915C44.2061 27.322 44.1192 27.2699 44.0324 27.2352C43.9455 27.2004 43.8413 27.1831 43.7545 27.1657C43.6676 27.1483 43.5808 27.1483 43.5287 27.1483C43.3203 27.1483 43.1292 27.1831 42.9555 27.2699C42.7818 27.3567 42.6255 27.4783 42.4866 27.6346C42.3476 27.7909 42.2608 27.9994 42.1739 28.2425C42.1045 28.4857 42.0524 28.7636 42.0524 29.0762C42.0524 29.3715 42.0871 29.6494 42.1739 29.9099C42.2434 30.1704 42.3476 30.3789 42.4866 30.5699C42.6255 30.761 42.7818 30.8999 42.9729 31.0041C43.164 31.1083 43.3724 31.1604 43.6155 31.1604C43.7545 31.1604 43.8934 31.1431 44.0324 31.1083C44.1713 31.0736 44.3103 31.0215 44.4319 30.9347C44.5534 30.8652 44.675 30.7783 44.7792 30.6915C44.8834 30.6047 44.9703 30.5004 45.0398 30.3789L45.2829 30.5525C45.1613 30.7436 45.0224 30.8999 44.8661 31.0389C44.7098 31.1778 44.5534 31.282 44.3798 31.3689C44.2061 31.4557 44.0324 31.5252 43.8587 31.5599C43.685 31.5947 43.5287 31.6294 43.3724 31.6294C43.0597 31.6294 42.7818 31.5773 42.5039 31.4731C42.2261 31.3689 42.0003 31.2125 41.7918 31.0215C41.5834 30.8131 41.4271 30.5699 41.3055 30.292C41.1839 29.9968 41.1318 29.6668 41.1318 29.302C41.1318 29.0936 41.1492 28.8852 41.2013 28.6767C41.2534 28.4683 41.3229 28.2773 41.4271 28.0862C41.5313 27.8952 41.6355 27.7215 41.7745 27.5652C41.9134 27.4088 42.0697 27.2699 42.2434 27.1483C42.4171 27.0267 42.6082 26.9399 42.8166 26.8704C43.025 26.8009 43.2508 26.7662 43.4766 26.7662C43.7197 26.7662 43.9629 26.8009 44.1713 26.853C44.3798 26.9225 44.5534 26.992 44.7098 27.0962C44.8661 27.2004 44.9703 27.322 45.0571 27.4609C45.144 27.5999 45.1787 27.7388 45.1787 27.8778C45.1787 28.0167 45.144 28.121 45.0745 28.2078C45.005 28.2946 44.9008 28.3467 44.7619 28.3467C44.675 28.3467 44.6229 28.3294 44.5534 28.312C44.5013 28.2773 44.4492 28.2425 44.4319 28.2078C44.3971 28.1731 44.3798 28.121 44.3624 28.0688C44.345 28.0167 44.345 27.982 44.345 27.9299C44.345 27.8778 44.3624 27.8083 44.3798 27.7388C44.3624 27.7562 44.4145 27.7041 44.4666 27.652Z" fill="black"/>
<path d="M45.5625 26.9577C45.7188 26.9577 45.8751 26.9056 45.9967 26.8187C46.1357 26.7319 46.2399 26.6277 46.3441 26.5061C46.4483 26.3845 46.5351 26.2456 46.5872 26.0893C46.6567 25.933 46.7088 25.794 46.7436 25.6724H47.0562C47.0562 25.9156 47.0562 26.1414 47.0562 26.3498C47.0562 26.5582 47.0562 26.7666 47.0562 26.9403H48.5846V27.2877L47.0562 27.3051C47.0562 27.7045 47.0562 28.0345 47.0562 28.3124C47.0562 28.5903 47.0562 28.8161 47.0562 29.0072C47.0562 29.1982 47.0562 29.3372 47.0562 29.4414C47.0562 29.5456 47.0562 29.6325 47.0562 29.6846C47.0562 29.7367 47.0562 29.7714 47.0562 29.7888C47.0562 29.8061 47.0562 29.8061 47.0562 29.8235C47.0562 30.0319 47.0736 30.2056 47.0909 30.3793C47.1083 30.5356 47.143 30.6746 47.2125 30.7788C47.2646 30.883 47.3341 30.9698 47.4209 31.0219C47.5078 31.074 47.612 31.1088 47.7509 31.1088C47.9073 31.1088 48.0636 31.0567 48.2199 30.9698C48.3762 30.883 48.5152 30.744 48.6367 30.5704L48.8799 30.7788C48.7409 30.9872 48.6194 31.1435 48.4804 31.2477C48.3415 31.3693 48.2199 31.4561 48.0983 31.5083C47.9767 31.5604 47.8725 31.5951 47.7683 31.6125C47.6641 31.6298 47.5772 31.6298 47.5078 31.6298C47.4209 31.6298 47.3167 31.6298 47.2299 31.6125C47.1257 31.5951 47.0388 31.5604 46.952 31.5256C46.8651 31.4909 46.7783 31.4214 46.6915 31.3519C46.6046 31.2651 46.5351 31.1783 46.483 31.0393C46.4136 30.9177 46.3788 30.7614 46.3441 30.5877C46.3093 30.414 46.292 30.2056 46.292 29.9625L46.2572 27.3398H45.5625V26.9577Z" fill="black"/>
<path d="M53.7251 16.1366C53.5167 16.1366 53.3604 15.9802 53.3604 15.7718C53.3604 15.5634 53.5167 15.4071 53.7251 15.4071C53.9335 15.4071 54.0898 15.5808 54.0898 15.7718C54.0898 15.9629 53.9335 16.1366 53.7251 16.1366Z" fill="#006241"/>
<path d="M43.0249 16.1371C42.8165 16.1371 42.6602 15.9808 42.6602 15.7724C42.6602 15.5639 42.8165 15.4076 43.0249 15.4076C43.2333 15.4076 43.3896 15.5813 43.3896 15.7724C43.3896 15.9634 43.2159 16.1371 43.0249 16.1371Z" fill="#006241"/>
<path d="M48.3745 15.4596C48.1661 15.4596 48.0098 15.3033 48.0098 15.0949C48.0098 14.8865 48.1661 14.7302 48.3745 14.7302C48.5829 14.7302 48.7392 14.9038 48.7392 15.0949C48.7392 15.3033 48.5829 15.4596 48.3745 15.4596Z" fill="#006241"/>
<path d="M61.314 13.9654C61.2272 13.8438 60.0635 14.1217 59.7161 14.0696C59.4209 13.9654 59.2646 13.6354 59.004 13.6354C58.6567 13.618 58.4135 13.8438 58.4135 14.1738C58.4135 14.2085 58.4135 14.2607 58.4309 14.2954C58.2051 14.9033 57.1977 15.407 56.5551 15.3028C55.5998 15.1638 55.4087 14.3996 55.2351 13.7743C55.1482 13.4791 55.6172 13.5485 55.6866 13.1317C55.7387 12.7843 55.5477 12.4891 55.0787 12.3675C55.3219 12.298 55.4782 12.107 55.4782 11.8812C55.4782 11.6033 55.4261 11.2212 55.0266 11.1517C54.6619 11.0822 54.2798 11.6033 54.2798 11.8812C54.2798 12.0548 54.384 12.2112 54.5403 12.298C53.8456 12.3154 53.3245 12.5238 53.3766 12.9754C53.394 13.1317 53.5156 13.2706 53.4635 13.3922C53.4114 13.5138 52.265 14.5385 51.5008 14.5385C50.6845 14.5385 49.5208 13.4964 49.434 13.1143C49.4166 13.1143 49.9376 12.8191 49.9898 12.5064C50.0592 11.9333 49.5555 11.4991 48.9476 11.3254C49.0171 11.2212 49.0519 11.0996 49.0519 10.978C49.0519 10.6306 48.7566 9.91852 48.4266 9.91852C48.4092 9.91852 48.4092 9.91852 48.3918 9.91852C48.3745 9.91852 48.3745 9.91852 48.3571 9.91852C48.0271 9.91852 47.7318 10.6306 47.7318 10.978C47.7318 11.0996 47.7666 11.2212 47.8361 11.3254C47.2282 11.4991 46.7245 11.9333 46.7939 12.5064C46.8287 12.8191 47.3671 13.1143 47.3497 13.1143C47.2629 13.4964 46.0992 14.5385 45.2829 14.5385C44.5187 14.5385 43.3723 13.5138 43.3202 13.3922C43.2681 13.2706 43.3897 13.1491 43.4071 12.9754C43.4592 12.5238 42.9381 12.3154 42.2434 12.298C42.3997 12.2112 42.5039 12.0548 42.5039 11.8812C42.5039 11.6033 42.1218 11.0822 41.7571 11.1517C41.3576 11.2212 41.3055 11.6033 41.3055 11.8812C41.3055 12.107 41.4792 12.298 41.705 12.3675C41.236 12.4891 41.045 12.7843 41.0971 13.1317C41.1665 13.5659 41.6355 13.4791 41.5486 13.7743C41.375 14.3996 41.1665 15.1638 40.2286 15.3028C39.586 15.407 38.5786 14.8859 38.3528 14.2954C38.3528 14.2607 38.3702 14.2259 38.3702 14.1738C38.3702 13.8438 38.127 13.618 37.7797 13.6354C37.5191 13.6528 37.3628 13.9654 37.0676 14.0696C36.7202 14.1217 35.5565 13.8612 35.4697 13.9654C35.4697 13.9654 35.3828 14.0522 35.3828 14.1738C35.3828 14.2607 39.6207 17.7691 39.9507 18.2033C40.2634 18.6202 40.6628 21.2254 40.8365 21.7639C40.8539 21.8333 40.8713 21.8854 40.906 21.9375C41.3923 22.5454 45.1439 22.9449 48.3571 22.9449C48.3745 22.9449 48.3918 22.9449 48.4092 22.9449C48.4266 22.9449 48.444 22.9449 48.4613 22.9449C51.6745 22.9449 55.4261 22.5454 55.9124 21.9375C55.9645 21.8854 55.9819 21.816 55.9819 21.7639C56.1556 21.2254 56.5551 18.6202 56.8677 18.2033C57.1977 17.7691 61.4356 14.2607 61.4356 14.1738C61.3835 14.0522 61.314 13.9654 61.314 13.9654ZM48.4266 22.4933C48.4092 22.4933 48.3918 22.4933 48.3745 22.4933C48.3571 22.4933 48.3397 22.4933 48.3224 22.4933C44.6576 22.4933 41.896 22.0244 41.3229 21.7118C41.6876 21.3644 44.5534 20.6349 48.3224 20.6349C48.3397 20.6349 48.3571 20.6349 48.3745 20.6349C48.3918 20.6349 48.4092 20.6349 48.4266 20.6349C52.1956 20.6349 55.0614 21.3644 55.4261 21.7118C54.8356 22.0244 52.0913 22.4933 48.4266 22.4933ZM56.2598 18.5507C56.1556 18.8981 55.9993 20.8086 55.8082 21.2428C55.3566 20.8781 52.1261 20.0617 48.3745 20.0617C48.3745 20.0617 48.3745 20.0617 48.3571 20.0617C48.3571 20.0617 48.3571 20.0617 48.3397 20.0617C44.5708 20.0617 41.3576 20.8781 40.906 21.2428C40.715 20.8086 40.576 18.8807 40.4544 18.5507C40.4023 18.3944 40.5065 18.2554 40.5065 18.2554C41.0276 17.5433 44.3102 16.7096 48.305 16.7096C48.3224 16.7096 48.3918 16.7096 48.4092 16.7096C52.3866 16.7096 55.6866 17.5433 56.2077 18.2554C56.2251 18.2554 56.3119 18.4117 56.2598 18.5507ZM56.7287 17.6301C56.7287 17.6301 55.9124 17.2828 54.4535 16.9007C52.8035 16.4665 50.4761 16.2754 48.3918 16.2754C46.3076 16.2754 43.9802 16.5359 42.3302 16.9007C40.9581 17.1959 40.055 17.6301 40.055 17.6301L38.4049 15.8933C38.4049 15.8933 40.1939 16.1365 41.0971 15.7717C42.0002 15.407 42.4171 13.757 42.4171 13.757C42.4171 13.757 44.4145 15.2854 45.5781 15.2159C46.7592 15.1464 48.3918 12.9059 48.3918 12.9059C48.3918 12.9059 50.0419 15.1464 51.2056 15.2159C52.3692 15.2854 54.3666 13.757 54.3666 13.757C54.3666 13.757 54.8008 15.3896 55.6866 15.7717C56.5898 16.1365 58.3788 15.8933 58.3788 15.8933L56.7287 17.6301Z" fill="#006241"/>
<path d="M48.3746 17.2137C47.8188 17.2137 47.3672 17.7348 47.3672 18.3601C47.3672 19.0027 47.8188 19.5064 48.3746 19.5064C48.9304 19.5064 49.3819 18.9853 49.3819 18.3601C49.3646 17.7348 48.9304 17.2137 48.3746 17.2137Z" fill="#006241"/>
<path d="M52.8214 20.0097C53.2729 20.1313 53.7766 19.8013 53.933 19.2628C54.0893 18.7244 53.8461 18.1686 53.3772 18.047C52.9256 17.9254 52.4219 18.2555 52.2656 18.7939C52.1266 19.3497 52.3698 19.8881 52.8214 20.0097Z" fill="#006241"/>
<path d="M43.9118 20.0122C43.4602 20.1338 42.9565 19.8038 42.8002 19.2654C42.6439 18.7269 42.887 18.1711 43.356 18.0496C43.8076 17.928 44.3113 18.258 44.4676 18.7964C44.6239 19.3522 44.3807 19.8906 43.9118 20.0122Z" fill="#006241"/>
<path d="M57.5286 31.1782H57.2854C57.1812 31.1782 57.0596 31.1955 56.8859 31.2303C56.7122 31.265 56.5212 31.3345 56.3128 31.4039C56.2259 31.4387 56.1217 31.4734 56.0001 31.5082C55.8959 31.5429 55.7743 31.5603 55.6528 31.5776C55.5312 31.595 55.427 31.6124 55.3054 31.6297C55.1838 31.6471 55.0796 31.6471 54.9754 31.6471C54.5238 31.6471 54.107 31.5776 53.7249 31.4213C53.3427 31.2824 53.0127 31.0566 52.7522 30.796C52.4743 30.5181 52.2659 30.1881 52.1096 29.7887C51.9533 29.3892 51.8838 28.955 51.8838 28.4513C51.8838 28.1734 51.9185 27.8781 51.9706 27.6002C52.0227 27.3223 52.1096 27.0444 52.2312 26.7839C52.3527 26.5234 52.4917 26.2976 52.6654 26.0718C52.8391 25.846 53.0475 25.655 53.2733 25.4986C53.5164 25.3423 53.777 25.2034 54.0722 25.1165C54.3675 25.0297 54.6975 24.9776 55.0449 24.9776C55.2012 24.9776 55.3749 24.995 55.5486 25.0123C55.7222 25.0297 55.8786 25.0644 56.0522 25.1165C56.2086 25.1513 56.3649 25.2034 56.5212 25.2729C56.6775 25.3423 56.8165 25.4118 56.938 25.4813L56.9033 25.0471H57.407V27.1313H57.077C57.0596 26.8534 56.9901 26.5929 56.8859 26.3671C56.7817 26.1413 56.6428 25.9502 56.4691 25.8113C56.2954 25.655 56.087 25.5507 55.8612 25.4639C55.6354 25.3771 55.3922 25.3423 55.1143 25.3423C54.7843 25.3423 54.4891 25.4118 54.2112 25.5507C53.9333 25.6897 53.6727 25.8981 53.4643 26.1586C53.2559 26.4192 53.0822 26.7144 52.9606 27.0792C52.8391 27.4265 52.7696 27.826 52.7696 28.2429C52.7696 28.6771 52.8217 29.0766 52.9433 29.4239C53.0649 29.7887 53.2212 30.1013 53.447 30.3618C53.6554 30.6224 53.9159 30.8308 54.2112 30.9697C54.5064 31.126 54.8364 31.1955 55.2012 31.1955C55.3228 31.1955 55.4443 31.1782 55.5833 31.1608C55.7222 31.1434 55.8438 31.1087 55.9828 31.0739C56.1217 31.0392 56.2433 30.9871 56.3822 30.935C56.5212 30.8829 56.6428 30.8134 56.7643 30.7266V28.7292L56.1217 28.7639V28.3644H58.1712V28.6597C58.067 28.6597 57.9628 28.6771 57.8933 28.7292C57.8238 28.7639 57.7544 28.8334 57.7022 28.8855C57.6501 28.955 57.6154 29.0245 57.598 29.1113C57.5807 29.1981 57.5633 29.2676 57.5459 29.3545C57.5286 29.4413 57.5286 29.5108 57.5286 29.5802C57.5286 29.6497 57.5286 29.7018 57.5286 29.7539V31.1782Z" fill="#006241"/>
<path d="M61.2107 27.3225C61.0891 27.3225 60.9849 27.3399 60.8633 27.392C60.7417 27.4441 60.6201 27.5135 60.5159 27.6004C60.3944 27.6872 60.2901 27.7914 60.1859 27.913C60.0817 28.0346 59.9949 28.1735 59.908 28.3299L59.9254 30.5704C59.9254 30.692 59.9254 30.7962 59.9254 30.9004C59.9254 30.9872 59.908 31.0915 59.8907 31.1957L60.4638 31.1609V31.5257H58.6054V31.2478C58.7443 31.2478 58.8486 31.213 58.918 31.1609C58.9875 31.1088 59.0396 31.022 59.0743 30.9351C59.1091 30.8309 59.1265 30.7267 59.1265 30.5878C59.1265 30.4488 59.1265 30.3099 59.1265 30.1362V28.052C59.1265 27.9651 59.1265 27.8609 59.1265 27.7741C59.1265 27.6699 59.1438 27.583 59.1612 27.4788L58.5186 27.5135V27.1488H58.7965C58.918 27.1488 59.0396 27.1488 59.1265 27.1314C59.2133 27.1141 59.2828 27.0967 59.3349 27.0793C59.387 27.062 59.4391 27.0272 59.4738 27.0099C59.5086 26.9751 59.5433 26.9577 59.578 26.923H59.8386C59.8559 27.0099 59.8559 27.1314 59.8559 27.2704C59.8559 27.4093 59.8733 27.6004 59.8733 27.8088C59.9428 27.7046 60.0296 27.583 60.1338 27.4614C60.238 27.3399 60.3596 27.253 60.4986 27.1488C60.6375 27.062 60.7765 26.9925 60.9328 26.923C61.0891 26.8709 61.2454 26.8362 61.4017 26.8362C61.4886 26.8362 61.558 26.8535 61.6449 26.8709C61.7317 26.8883 61.7838 26.923 61.8533 26.9751C61.9054 27.0272 61.9575 27.0793 61.9923 27.1488C62.027 27.2183 62.0444 27.3051 62.0444 27.4093C62.0444 27.4441 62.0444 27.4962 62.027 27.5483C62.0096 27.6004 61.9923 27.6525 61.9402 27.6872C61.9054 27.7393 61.8533 27.7741 61.8012 27.7914C61.7491 27.8262 61.6796 27.8435 61.5928 27.8435C61.5233 27.8435 61.4712 27.8262 61.4017 27.7914C61.3496 27.7567 61.2975 27.722 61.2628 27.6699C61.228 27.6177 61.1933 27.5656 61.1759 27.5135C61.2107 27.4441 61.2107 27.392 61.2107 27.3225Z" fill="#006241"/>
<path d="M64.2331 26.819C64.5457 26.819 64.8583 26.8711 65.1362 26.9927C65.4141 27.1143 65.6573 27.2706 65.8657 27.479C66.0741 27.6875 66.2305 27.9306 66.352 28.2085C66.4736 28.4864 66.5257 28.799 66.5257 29.129C66.5257 29.4764 66.4736 29.8064 66.352 30.1191C66.2305 30.4317 66.0741 30.6922 65.8657 30.918C65.6573 31.1438 65.4141 31.3175 65.1362 31.4564C64.8583 31.5954 64.5631 31.6475 64.2331 31.6475C63.9204 31.6475 63.6078 31.5954 63.3299 31.4738C63.052 31.3522 62.8089 31.1959 62.6004 31.0049C62.392 30.7964 62.2357 30.5533 62.1141 30.2754C61.9925 29.9975 61.9404 29.6848 61.9404 29.3375C61.9404 28.9727 61.9925 28.6427 62.1141 28.3301C62.2357 28.0175 62.392 27.7569 62.6004 27.5311C62.8089 27.3054 63.052 27.1317 63.3299 26.9927C63.6078 26.8885 63.9031 26.819 64.2331 26.819ZM64.2331 27.1664C63.9899 27.1664 63.7815 27.2185 63.6252 27.3227C63.4515 27.4269 63.3125 27.5659 63.2083 27.7569C63.1041 27.9306 63.0173 28.139 62.9652 28.3648C62.9131 28.5906 62.8957 28.8338 62.8957 29.0769C62.8957 29.3548 62.9304 29.6327 62.9825 29.8933C63.0346 30.1538 63.1215 30.397 63.2431 30.6054C63.3646 30.8138 63.5036 30.9701 63.6947 31.1091C63.8683 31.2306 64.0768 31.3001 64.3199 31.3001C64.5631 31.3001 64.7541 31.248 64.9278 31.1438C65.0841 31.0396 65.2231 30.9006 65.3273 30.7096C65.4315 30.5359 65.501 30.3275 65.5531 30.1017C65.6052 29.8759 65.6226 29.6327 65.6226 29.4069C65.6226 29.129 65.6052 28.8685 65.5531 28.5906C65.501 28.3301 65.4141 28.0869 65.3099 27.8785C65.2057 27.6701 65.0668 27.4964 64.8931 27.3748C64.6673 27.2359 64.4762 27.1664 64.2331 27.1664Z" fill="#006241"/>
<path d="M70.3295 28.1559C70.3295 27.9996 70.3295 27.878 70.3469 27.7738C70.3469 27.6696 70.3643 27.5654 70.3816 27.4612L69.7216 27.4959V27.1312H69.9995C70.1385 27.1312 70.2427 27.1312 70.3295 27.1138C70.4164 27.0964 70.5032 27.0791 70.5727 27.0617C70.6422 27.0443 70.6943 27.0096 70.729 26.9922C70.7637 26.9575 70.8158 26.9401 70.8506 26.9054H71.1111L71.0937 30.3444C71.0937 30.3965 71.0937 30.4486 71.0937 30.5181C71.0937 30.5875 71.0937 30.6744 71.0937 30.7438C71.0937 30.8307 71.0937 30.9002 71.0764 30.987C71.0764 31.0738 71.059 31.1433 71.059 31.1954L71.719 31.1607V31.5428H70.4164C70.399 31.4386 70.3816 31.3517 70.3816 31.2649C70.3643 31.1781 70.3643 31.0912 70.3643 31.0044C70.2774 31.0912 70.1558 31.1954 70.0516 31.2649C69.93 31.3517 69.8085 31.4212 69.6869 31.4907C69.5653 31.5602 69.4264 31.5949 69.2874 31.647C69.1485 31.6817 69.0095 31.6991 68.8879 31.6991C68.6448 31.6991 68.419 31.6644 68.2279 31.5949C68.0369 31.5254 67.8806 31.4212 67.759 31.2649C67.6374 31.1086 67.5332 30.9002 67.4811 30.657C67.4116 30.3965 67.3942 30.0838 67.3942 29.7191V28.1038C67.3942 28.017 67.3942 27.9128 67.3942 27.8086C67.3942 27.7043 67.4116 27.6175 67.429 27.5133L66.8037 27.548V27.1833H67.0816C67.2032 27.1833 67.3248 27.1833 67.4116 27.1659C67.4985 27.1486 67.5853 27.1312 67.6548 27.1138C67.7242 27.0964 67.7764 27.0617 67.8111 27.0443C67.8458 27.0096 67.8979 26.9922 67.9327 26.9575H68.1932V29.7365C68.1932 29.997 68.2106 30.2228 68.2453 30.4312C68.28 30.6223 68.3321 30.7786 68.419 30.9175C68.5058 31.0391 68.5927 31.1433 68.7316 31.1954C68.8532 31.2475 69.0095 31.2823 69.1832 31.2823C69.3048 31.2823 69.409 31.2649 69.5306 31.2302C69.6348 31.1954 69.739 31.1433 69.8432 31.0738C69.9474 31.0044 70.0343 30.9349 70.1211 30.8481C70.2079 30.7612 70.2774 30.6744 70.3469 30.5875V30.1186V28.1559H70.3295Z" fill="#006241"/>
<path d="M72.3433 28.052C72.3433 27.9651 72.3433 27.8609 72.3433 27.7567C72.3433 27.6525 72.3606 27.5656 72.378 27.4614L71.7354 27.4962V27.1141C71.9264 27.1141 72.1001 27.1141 72.2217 27.0967C72.3432 27.0793 72.4475 27.062 72.5169 27.0446C72.5864 27.0272 72.6559 26.9925 72.6906 26.9751C72.7254 26.9404 72.7775 26.923 72.7948 26.8883H73.0554C73.0554 26.9404 73.0727 27.0099 73.0727 27.0967C73.0727 27.1835 73.0901 27.2704 73.0901 27.3746C73.1769 27.2877 73.2811 27.2183 73.4027 27.1488C73.5069 27.0793 73.6285 27.0272 73.7501 26.9751C73.8717 26.923 73.9933 26.8883 74.1322 26.8709C74.2538 26.8362 74.3927 26.8362 74.5143 26.8362C74.7748 26.8362 75.0354 26.8883 75.2785 26.9925C75.5217 27.0967 75.7301 27.253 75.9212 27.4441C76.1122 27.6351 76.2512 27.8783 76.3554 28.1562C76.4596 28.4341 76.5117 28.7467 76.5117 29.1114C76.5117 29.372 76.477 29.6151 76.4249 29.8409C76.3728 30.0667 76.2859 30.2751 76.1817 30.4662C76.0775 30.6572 75.9559 30.8309 75.817 30.9872C75.678 31.1436 75.5217 31.2651 75.348 31.3694C75.1743 31.4736 75.0006 31.5604 74.7922 31.6125C74.6012 31.6646 74.3927 31.6994 74.2017 31.6994C73.7848 31.6994 73.4201 31.5951 73.1075 31.4041V32.9152C73.1075 33.0367 73.1075 33.1409 73.1075 33.2452C73.1075 33.332 73.0901 33.4362 73.0727 33.5404L73.6459 33.5057V33.8704H71.7875V33.5925C71.9264 33.5925 72.0306 33.5578 72.1001 33.5057C72.1696 33.4536 72.2217 33.3667 72.2564 33.2799C72.2911 33.1757 72.3085 33.0715 72.3085 32.9325C72.3085 32.7936 72.3085 32.6546 72.3259 32.4809L72.3433 28.052ZM74.2017 27.2704C74.0975 27.2704 73.9933 27.2877 73.889 27.3051C73.7848 27.3399 73.698 27.3746 73.5938 27.4093C73.5069 27.4614 73.4201 27.5135 73.3333 27.5656C73.2464 27.6351 73.1769 27.6872 73.1248 27.7567C73.1248 27.7741 73.1248 27.8088 73.1248 27.8435C73.1248 27.8783 73.1248 27.9304 73.1248 27.9999C73.1248 28.0693 73.1248 28.1735 73.1248 28.3125C73.1248 28.4514 73.1248 28.6251 73.1248 28.8509C73.1248 29.0767 73.1248 29.3546 73.1248 29.702C73.1248 30.032 73.1248 30.4488 73.1248 30.9351C73.2812 31.0394 73.4375 31.1436 73.6285 31.1957C73.8022 31.2651 73.9933 31.2825 74.2017 31.2825C74.4101 31.2825 74.6185 31.2304 74.7748 31.1262C74.9485 31.022 75.0875 30.883 75.2091 30.692C75.3306 30.5009 75.4175 30.2925 75.487 30.032C75.5564 29.7714 75.5912 29.4936 75.5912 29.1983C75.5912 28.9551 75.5738 28.712 75.5217 28.4862C75.4696 28.2604 75.3827 28.0346 75.2785 27.8609C75.1743 27.6699 75.018 27.5309 74.8443 27.4267C74.6533 27.3225 74.4448 27.2704 74.2017 27.2704Z" fill="#006241"/>
<path d="M60.2205 36.3712C60.1337 36.3712 60.0642 36.3712 59.96 36.3712C59.96 36.1107 59.96 35.8328 59.96 35.5723C59.96 35.3117 59.96 35.0512 59.96 34.7907C59.9426 34.7907 59.9426 34.7733 59.9253 34.7733C59.8905 34.8081 59.8732 34.8428 59.8384 34.8775C59.4389 35.3465 58.9353 35.9023 58.5358 36.3712H58.3447C58.3447 35.6939 58.3447 34.9817 58.3447 34.287C58.4316 34.287 58.501 34.287 58.6053 34.287C58.6053 34.8081 58.6053 35.3465 58.6053 35.9023C58.6574 35.8675 58.5879 35.9196 58.6053 35.9023C59.0221 35.4333 59.6126 34.7733 60.0121 34.287H60.2032C60.2205 34.9817 60.2205 35.6765 60.2205 36.3712Z" fill="black"/>
<path d="M40.3334 36.3886C40.3508 36.406 40.0208 35.8154 40.0208 35.8154H38.7702C38.7702 35.8154 38.5271 36.3018 38.475 36.3886H38.1797C38.2144 36.3191 38.9613 34.8949 39.2739 34.287C39.3434 34.287 39.4997 34.287 39.4997 34.287C39.8471 34.947 40.2639 35.7286 40.6113 36.3886H40.3334ZM39.8992 35.5723C39.7255 35.2596 39.5692 34.9644 39.3955 34.6344C39.2218 34.9644 39.0655 35.2596 38.9092 35.5723C39.2565 35.5723 39.5692 35.5723 39.8992 35.5723Z" fill="black"/>
<path d="M69.3392 36.3536C69.3566 36.3709 69.0266 35.7804 69.0266 35.7804H67.7761C67.7761 35.7804 67.5329 36.2667 67.4808 36.3536H67.1855C67.2203 36.2841 67.9671 34.8599 68.2798 34.252C68.3492 34.252 68.5056 34.252 68.5056 34.252C68.8529 34.912 69.2698 35.6936 69.6171 36.3536H69.3392ZM68.905 35.5373C68.7313 35.2246 68.575 34.9294 68.4013 34.5994C68.2277 34.9294 68.0713 35.2246 67.915 35.5373C68.245 35.5373 68.575 35.5373 68.905 35.5373Z" fill="black"/>
<path d="M30.7806 34.2C30.8848 34.2347 30.989 34.2521 31.0932 34.2868C31.3016 34.3737 31.4753 34.5126 31.6143 34.7037C31.5448 34.7558 31.4753 34.8079 31.4059 34.86C30.989 34.391 30.468 34.3215 30.0859 34.7037C29.7385 35.051 29.7732 35.6937 30.138 36.0063C30.5374 36.3537 31.0759 36.2321 31.458 35.7284C31.5274 35.7805 31.5969 35.8326 31.6664 35.8847C31.458 36.2668 31.1453 36.4579 30.7111 36.4579C30.1553 36.4579 29.7211 36.1452 29.6169 35.6068C29.4606 34.9121 29.8774 34.3042 30.5201 34.2347C30.5374 34.2347 30.5548 34.2173 30.5548 34.2173C30.6243 34.2 30.6937 34.2 30.7806 34.2Z" fill="black"/>
<path d="M43.7033 36.4057C43.6339 36.4057 43.5644 36.4057 43.4775 36.4057C43.4775 35.6936 43.4775 34.9815 43.4775 34.252C43.547 34.252 43.6339 34.252 43.7033 34.252C43.7033 34.9641 43.7033 35.6762 43.7033 36.4057Z" fill="black"/>
<path d="M28.8191 35.1912C29.0623 35.3302 29.1838 35.556 29.1491 35.8339C29.1144 36.1812 28.8712 36.3897 28.5065 36.3897C28.0375 36.407 27.5859 36.3897 27.0996 36.3897C27.0996 35.6776 27.0996 34.9655 27.0996 34.2533C27.1517 34.2533 27.1865 34.2533 27.2386 34.2533C27.6554 34.2533 28.0722 34.2533 28.4891 34.2707C28.6975 34.2707 28.8886 34.3576 28.958 34.5833C29.0275 34.7918 29.0101 35.0176 28.8191 35.1739C28.8365 35.1739 28.8191 35.1739 28.8191 35.1912ZM27.3775 35.3476C27.3775 35.6081 27.3775 35.8686 27.3775 36.1465C27.7596 36.1465 28.1417 36.1465 28.5238 36.1465C28.7496 36.1465 28.8712 35.9902 28.8712 35.7644C28.8712 35.5386 28.7496 35.3649 28.5238 35.3649C28.1591 35.3476 27.777 35.3476 27.3775 35.3476ZM27.3775 35.1044C27.7422 35.1044 28.0896 35.1044 28.4544 35.1044C28.6454 35.1044 28.767 34.9828 28.7496 34.7918C28.7496 34.6007 28.628 34.5139 28.437 34.4965C28.1765 34.4965 27.9159 34.4965 27.6728 34.4965C27.5859 34.4965 27.4991 34.4965 27.3949 34.4965C27.3775 34.7049 27.3775 34.896 27.3775 35.1044Z" fill="black"/>
<path d="M36.3564 34.2693C36.8254 34.2693 37.277 34.252 37.7286 34.2693C38.0586 34.2867 38.2496 34.5299 38.2322 34.8599C38.2149 35.1899 37.9891 35.433 37.6765 35.4504C37.3638 35.4678 37.0686 35.4504 36.7559 35.4504C36.7212 35.4504 36.6691 35.4504 36.617 35.4504C36.617 35.763 36.617 36.0757 36.617 36.3883C36.5301 36.3883 36.4433 36.3883 36.3564 36.3883C36.3564 35.6762 36.3564 34.9815 36.3564 34.2693ZM36.617 34.5125C36.617 34.7557 36.617 34.9815 36.617 35.2072C36.9643 35.2072 37.3117 35.2072 37.6417 35.2072C37.8501 35.2072 37.9544 35.0683 37.9544 34.8772C37.9544 34.6862 37.8501 34.5299 37.6591 34.5299C37.3117 34.4951 36.9643 34.5125 36.617 34.5125Z" fill="black"/>
<path d="M41.2547 35.1028C41.6889 35.1028 42.0884 35.1028 42.5226 35.1028C42.5226 34.8249 42.5226 34.547 42.5226 34.2691C42.6094 34.2691 42.6963 34.2691 42.7831 34.2691C42.7831 34.9812 42.7831 35.676 42.7831 36.3881C42.6963 36.3881 42.6094 36.3881 42.5226 36.3881C42.5226 36.0407 42.5226 35.7107 42.5226 35.3634C42.1057 35.3634 41.6889 35.3634 41.2547 35.3634C41.2547 35.7107 41.2547 36.0407 41.2547 36.3881C41.1678 36.3881 41.081 36.3881 40.9941 36.3881C40.9941 35.676 40.9941 34.9812 40.9941 34.2691C41.081 34.2691 41.1505 34.2691 41.2547 34.2691C41.2547 34.547 41.2547 34.8249 41.2547 35.1028Z" fill="black"/>
<path d="M34.6883 36.3883C34.5841 36.3883 34.5146 36.3883 34.4277 36.3883C34.4277 35.6762 34.4277 34.9815 34.4277 34.252C34.9662 34.252 35.4872 34.252 36.0256 34.252C36.0256 34.3215 36.0256 34.4083 36.0256 34.4951C35.5741 34.4951 35.1398 34.4951 34.6883 34.4951C34.6883 35.1378 34.6883 35.763 34.6883 36.3883Z" fill="black"/>
<path d="M32.4314 36.3883C32.3446 36.3883 32.2577 36.3883 32.1709 36.3883C32.1709 35.6762 32.1709 34.9641 32.1709 34.252C32.2577 34.252 32.3446 34.252 32.4314 34.252C32.4314 34.9641 32.4314 35.6762 32.4314 36.3883Z" fill="black"/>
<path d="M45.6123 34.2691C46.116 34.2691 46.637 34.2691 47.1407 34.2865C47.2102 34.2865 47.2797 34.2865 47.3492 34.2865C47.3492 34.3733 47.3492 34.4428 47.3492 34.5297C46.8628 34.5297 46.3765 34.5297 45.8902 34.5297C45.8902 34.7381 45.8902 34.9118 45.8902 35.1202C46.0813 35.1202 46.2897 35.1202 46.4807 35.1202C46.637 35.1202 46.776 35.1202 46.9323 35.1202C47.3492 35.1376 47.5576 35.3634 47.5576 35.7455C47.5576 36.1276 47.2971 36.3881 46.9149 36.3881C46.4807 36.4055 46.0465 36.3881 45.6297 36.3881C45.6123 35.676 45.6123 34.9639 45.6123 34.2691ZM45.8728 36.1449C46.2028 36.1449 46.5155 36.1449 46.8107 36.1449C46.8802 36.1449 46.9497 36.1449 47.0192 36.1102C47.1755 36.0581 47.2623 35.9539 47.2623 35.7628C47.2623 35.5544 47.1928 35.4502 47.0365 35.3807C47.0018 35.3634 46.9671 35.346 46.9497 35.346C46.5849 35.346 46.2376 35.346 45.8728 35.346C45.8728 35.6239 45.8728 35.8844 45.8728 36.1449Z" fill="black"/>
<path d="M53.3945 36.3886C53.3945 35.6765 53.3945 34.9817 53.3945 34.3044C53.8982 34.3044 54.3845 34.287 54.8709 34.3044C55.0445 34.3044 55.1835 34.4259 55.2356 34.5996C55.3051 34.808 55.2877 35.0165 55.0793 35.1901C55.2877 35.3291 55.4093 35.5201 55.4093 35.7807C55.3919 36.1107 55.1835 36.3538 54.8188 36.3712C54.3498 36.4059 53.8809 36.3886 53.3945 36.3886ZM53.6551 35.3638C53.6551 35.6417 53.6551 35.8849 53.6551 36.1454C54.0545 36.1454 54.4366 36.1454 54.8188 36.1454C54.8535 36.1454 54.9056 36.128 54.9403 36.1107C55.0966 36.0412 55.1661 35.8675 55.1314 35.6765C55.0966 35.5028 54.9751 35.3638 54.8188 35.3638C54.4366 35.3465 54.0545 35.3638 53.6551 35.3638ZM53.6551 34.5301C53.6551 34.7386 53.6551 34.9122 53.6551 35.1033C54.0198 35.1033 54.3845 35.1207 54.7493 35.1033C54.923 35.1033 55.0098 34.9644 54.9924 34.7907C54.9751 34.6344 54.8882 34.5301 54.7145 34.5301C54.3672 34.5128 54.0198 34.5301 53.6551 34.5301Z" fill="black"/>
<path d="M66.6467 35.1897C66.8203 35.3112 66.9419 35.4502 66.9767 35.6586C67.0288 36.0755 66.7856 36.3707 66.3514 36.3881C65.8998 36.4055 65.4309 36.3881 64.9619 36.3881C64.9619 35.6934 64.9619 34.9986 64.9619 34.2691C65.0488 34.2691 65.1356 34.2691 65.2051 34.2691C65.5698 34.2691 65.9519 34.2691 66.3167 34.2865C66.5251 34.2865 66.6988 34.3733 66.7856 34.5644C66.8725 34.7902 66.8551 35.016 66.6467 35.1897ZM65.2224 36.1449C65.6219 36.1449 65.9867 36.1623 66.3688 36.1449C66.5946 36.1449 66.7335 35.9713 66.7161 35.7281C66.7161 35.4849 66.5772 35.3634 66.334 35.346C66.004 35.346 65.674 35.346 65.344 35.346C65.3093 35.346 65.2745 35.3634 65.2398 35.3634C65.2224 35.6239 65.2224 35.8844 65.2224 36.1449ZM65.2224 34.5297C65.2224 34.7207 65.2224 34.9118 65.2224 35.1028C65.6045 35.1028 65.9693 35.1202 66.334 35.1028C66.5077 35.1028 66.5772 34.9639 66.5772 34.8076C66.5598 34.6512 66.4903 34.547 66.334 34.547C65.9519 34.5297 65.5872 34.5297 65.2224 34.5297Z" fill="black"/>
<path d="M50.008 36.857C49.9212 36.857 49.8691 36.857 49.7822 36.857C49.7822 36.6313 49.7822 36.1449 49.7822 36.1449H50.0428L50.8417 34.2691H51.0501L51.8838 36.1449H52.1617C52.1617 36.1449 52.1617 36.6139 52.1617 36.857C52.0922 36.857 52.0228 36.857 51.9359 36.857C51.9359 36.7181 51.9359 36.5618 51.9359 36.4055C51.2759 36.4055 50.6507 36.4055 49.9906 36.4055C50.008 36.5444 50.008 36.6834 50.008 36.857ZM50.9633 34.6339C50.7375 35.1549 50.5464 35.6412 50.338 36.1449C50.7722 36.1449 51.1891 36.1449 51.6407 36.1449C51.4149 35.6412 51.1891 35.1549 50.9633 34.6339Z" fill="black"/>
<path d="M62.5127 36.1452C62.6169 36.1452 62.7212 36.1626 62.808 36.1626C62.808 36.3884 62.808 36.6142 62.808 36.8573C62.7385 36.8573 62.6691 36.8573 62.5822 36.8573C62.5822 36.701 62.5822 36.562 62.5822 36.4057C62.009 36.4057 61.4533 36.4057 60.8975 36.4057C60.8975 35.6936 60.8975 34.9989 60.8975 34.3041C60.9843 34.3041 61.0538 34.3041 61.158 34.3041C61.158 34.9294 61.158 35.5373 61.158 36.1626C61.5227 36.1626 61.8875 36.1626 62.2522 36.1626C62.2522 35.5373 62.2522 34.9294 62.2522 34.3041C62.3391 34.3041 62.4259 34.3041 62.5127 34.3041C62.5127 34.8947 62.5127 35.5199 62.5127 36.1452Z" fill="black"/>
<path d="M55.9824 34.287C56.0693 34.287 56.1387 34.287 56.2429 34.287C56.2429 34.5649 56.2429 34.8254 56.2429 35.1033C56.6598 35.1033 57.0766 35.1033 57.4935 35.1033C57.4935 34.8254 57.4935 34.5649 57.4935 34.287C57.5803 34.287 57.6672 34.287 57.7366 34.287C57.7366 34.9817 57.7366 35.6765 57.7366 36.3886C57.6498 36.3886 57.5803 36.3886 57.4935 36.3886C57.4935 36.0586 57.4935 35.7112 57.4935 35.3812C57.0766 35.3812 56.6598 35.3812 56.2429 35.3812C56.2429 35.7112 56.2429 36.0412 56.2429 36.3886C56.1561 36.3886 56.0693 36.3886 55.9824 36.3886C55.9824 35.6765 55.9824 34.9817 55.9824 34.287Z" fill="black"/>
<path d="M48.9309 35.4328C49.1393 35.1028 49.643 34.2691 49.643 34.2691H49.9557C49.9557 34.2691 49.0004 35.7976 48.653 36.3881H48.3404C48.4446 36.2144 48.7572 35.6934 48.7572 35.6934C48.4967 35.3286 47.8193 34.2691 47.8193 34.2691H48.1493C48.1493 34.2691 48.7051 35.1028 48.9309 35.4328Z" fill="black"/>
<path d="M63.6592 34.5302C63.3466 34.5302 63.0687 34.5302 62.7734 34.5302C62.7734 34.4433 62.7734 34.3738 62.7734 34.287C63.4508 34.287 64.1108 34.287 64.7882 34.287C64.7882 34.3565 64.7882 34.426 64.7882 34.5128C64.5103 34.5128 64.215 34.5128 63.9024 34.5128C63.9024 35.1381 63.9024 35.7633 63.9024 36.3712C63.8155 36.3712 63.7287 36.3712 63.6419 36.3712C63.6592 35.7633 63.6592 35.1554 63.6592 34.5302Z" fill="black"/>
<path d="M52.4922 34.2691C52.579 34.2691 52.6485 34.2691 52.7353 34.2691C52.7353 34.9812 52.7353 35.676 52.7353 36.3881C52.6485 36.3881 52.579 36.3881 52.4922 36.3881C52.4922 35.676 52.4922 34.9812 52.4922 34.2691Z" fill="black"/>
<defs>
<filter id="filter0_d" x="0.517217" y="0.236425" width="95.65" height="46.6127" filterUnits="userSpaceOnUse" color-interpolation-filters="sRGB">
<feFlood flood-opacity="0" result="BackgroundImageFix"/>
<feColorMatrix in="SourceAlpha" type="matrix" values="0 0 0 0 0 0 0 0 0 0 0 0 0 0 0 0 0 0 127 0"/>
<feOffset/>
<feGaussianBlur stdDeviation="1.74139"/>
<feColorMatrix type="matrix" values="0 0 0 0 0 0 0 0 0 0 0 0 0 0 0 0 0 0 0.1 0"/>
<feBlend mode="normal" in2="BackgroundImageFix" result="effect1_dropShadow"/>
<feBlend mode="normal" in="SourceGraphic" in2="effect1_dropShadow" result="shape"/>
</filter>
</defs>
</svg>
