<svg width="53" height="53" viewBox="0 0 53 53" fill="none" xmlns="http://www.w3.org/2000/svg">
<g filter="url(#filter0_d)">
<path d="M26.4783 48.9566C38.8927 48.9566 48.9566 38.8927 48.9566 26.4783C48.9566 14.0639 38.8927 4 26.4783 4C14.0639 4 4 14.0639 4 26.4783C4 38.8927 14.0639 48.9566 26.4783 48.9566Z" fill="white"/>
</g>
<path d="M13.3381 33.4189H12.752V35.2882H13.2826C13.6153 35.2882 13.8687 35.209 14.043 35.0426C14.2173 34.8763 14.3044 34.6466 14.3044 34.3377C14.3044 34.0525 14.2173 33.8228 14.0509 33.6644C13.8767 33.4981 13.6391 33.4189 13.3381 33.4189ZM13.3143 34.9555H13.148V33.7436H13.3618C13.7183 33.7436 13.8925 33.9416 13.8925 34.3456C13.8925 34.7496 13.7024 34.9555 13.3143 34.9555Z" fill="#405174"/>
<path d="M15.4688 35.2802H16.5459V34.9555H15.8648V34.4723H16.4984V34.1476H15.8648V33.7436H16.5459V33.4189H15.4688V35.2802Z" fill="#405174"/>
<path d="M18.4308 34.5278C18.3754 34.7258 18.3437 34.8604 18.3358 34.9397C18.3279 34.908 18.3199 34.8446 18.2962 34.7575C18.2724 34.6704 18.2566 34.5911 18.2328 34.5278L17.8843 33.4189H17.4883L18.1219 35.2882H18.5496L19.1833 33.4189H18.7873L18.4308 34.5278Z" fill="#405174"/>
<path d="M20.1963 35.2802H21.2735V34.9555H20.5923V34.4723H21.226V34.1476H20.5923V33.7436H21.2735V33.4189H20.1963V35.2802Z" fill="#405174"/>
<path d="M22.8413 33.4189H22.4453V35.2802H23.6017V34.9555H22.8413V33.4189Z" fill="#405174"/>
<path d="M25.5189 33.387C25.2338 33.387 25.012 33.4662 24.8615 33.6325C24.711 33.7989 24.6318 34.0365 24.6318 34.3454C24.6318 34.6543 24.711 34.8919 24.8615 35.0582C25.012 35.2246 25.2338 35.3038 25.5189 35.3038C25.8041 35.3038 26.0259 35.2166 26.1763 35.0582C26.3268 34.8919 26.406 34.6543 26.406 34.3454C26.406 34.0365 26.3268 33.7989 26.1763 33.6325C26.0179 33.4662 25.8041 33.387 25.5189 33.387ZM25.511 34.979C25.3526 34.979 25.2338 34.9236 25.1546 34.8206C25.0754 34.7176 25.0358 34.5592 25.0358 34.3533C25.0358 34.1474 25.0754 33.989 25.1546 33.8781C25.2338 33.7751 25.3526 33.7197 25.511 33.7197C25.8278 33.7197 25.9783 33.9335 25.9783 34.3533C25.9863 34.7652 25.8278 34.979 25.511 34.979Z" fill="#405174"/>
<path d="M28.1653 33.4189H27.5713V35.2882H27.9673V34.6228H28.1336C28.3633 34.6228 28.5455 34.5674 28.6722 34.4644C28.799 34.3614 28.8623 34.203 28.8623 34.005C28.8623 33.8149 28.8069 33.6644 28.6881 33.5694C28.5693 33.4664 28.395 33.4189 28.1653 33.4189ZM28.3713 34.2189C28.3079 34.2664 28.2208 34.2902 28.102 34.2902H27.9673V33.7357H28.1495C28.2604 33.7357 28.3396 33.7595 28.3871 33.7991C28.4346 33.8466 28.4663 33.91 28.4663 34.005C28.4584 34.108 28.4346 34.1713 28.3713 34.2189Z" fill="#405174"/>
<path d="M30.9842 34.8446L30.5327 33.4189H29.9941V35.2882H30.3506V34.4169C30.3506 34.3139 30.3426 34.1159 30.3268 33.8228H30.3347L30.7862 35.2882H31.1506L31.6337 33.8308H31.6416C31.6337 34.0684 31.6258 34.211 31.6258 34.2664C31.6258 34.3218 31.6258 34.3694 31.6258 34.409V35.2882H31.9981V33.4189H31.4515L30.9842 34.8446Z" fill="#405174"/>
<path d="M33.2422 35.2802H34.3194V34.9555H33.6382V34.4723H34.2719V34.1476H33.6382V33.7436H34.3194V33.4189H33.2422V35.2802Z" fill="#405174"/>
<path d="M36.7912 34.2981C36.7912 34.401 36.7991 34.5674 36.807 34.8129H36.7991L35.9912 33.4189H35.4922V35.2882H35.8486V34.409C35.8486 34.306 35.8407 34.1238 35.8249 33.8783H35.8328L36.6407 35.2882H37.1397V33.4189H36.7832V34.2981H36.7912Z" fill="#405174"/>
<path d="M38.2158 33.7436H38.7227V35.2802H39.1188V33.7436H39.6257V33.4189H38.2158V33.7436Z" fill="#405174"/>
<path d="M45.6778 29.4662L42.8897 23.2565L44.7511 19.1457L44.6481 19.0982L42.8264 23.1139L41.8125 20.8487H41.7571H40.6482H40.5928L36.7275 29.4583H37.8919L39.0166 26.9633H41.0918L39.1037 31.3592L39.2067 31.4068L42.3115 24.5396L44.5214 29.4504H45.6778V29.4662ZM41.567 25.902H39.4918L41.2027 22.0922L42.2402 24.4129L41.567 25.902Z" fill="#405174"/>
<path d="M31.0802 24.8486L33.6623 19.1457L33.5594 19.0982L32.6406 21.118C32.5455 21.0704 32.4426 21.0229 32.3396 20.9833C31.7772 20.7615 31.1753 20.6427 30.5416 20.6427C29.2902 20.6427 28.2288 21.0784 27.3576 21.9417C26.4863 22.813 26.0586 23.8743 26.0586 25.1495C26.0586 26.4168 26.4942 27.4861 27.3576 28.3574C27.817 28.8168 28.3318 29.1494 28.9021 29.3712L27.9991 31.3751L28.1021 31.4226L29.013 29.4108C29.4882 29.5771 29.9951 29.6643 30.5416 29.6643C31.8485 29.6643 32.9099 29.2365 33.7098 28.389C34.4227 27.6762 34.7791 26.7178 34.7791 25.506C34.7791 25.3 34.7554 25.0782 34.7158 24.8565H31.0802V24.8486ZM28.1655 27.6207C27.5239 26.9633 27.1992 26.1396 27.1992 25.1495C27.1992 24.1595 27.5239 23.3357 28.1655 22.6783C28.8149 22.0288 29.6149 21.7041 30.5495 21.7041C31.0327 21.7041 31.4842 21.7912 31.904 21.9734C32.0069 22.013 32.102 22.0684 32.1891 22.116L29.3535 28.3811C28.9179 28.2306 28.514 27.9772 28.1655 27.6207ZM32.696 27.8742C32.1257 28.3574 31.4129 28.595 30.5495 28.595C30.1614 28.595 29.7971 28.5395 29.4644 28.4286L30.6129 25.8861H33.6782C33.591 26.7257 33.2663 27.3911 32.696 27.8742Z" fill="#405174"/>
<path d="M12.7916 25.5775C12.4748 25.2131 11.9758 24.8963 11.2946 24.627L13.6549 19.4232L13.552 19.3757L12.5777 21.538C12.451 21.4033 12.3005 21.2687 12.1342 21.1578C11.651 20.8172 11.0807 20.6509 10.4233 20.6509C9.6788 20.6509 9.04516 20.8727 8.53032 21.3241C8.02341 21.7756 7.76995 22.3142 7.76995 22.9479C7.76995 23.8587 8.22934 24.5399 9.14021 25.0072C9.30654 25.0943 9.74217 25.2607 10.4313 25.5141C10.5342 25.5458 10.6293 25.5854 10.7243 25.6171L9.51247 28.2942C9.42535 28.2388 9.34614 28.1833 9.26693 28.12C9.09268 27.9695 8.94219 27.7952 8.81546 27.5814C8.68873 27.3754 8.58577 27.1378 8.51448 26.8844L7.45312 27.32C7.65906 28.0408 8.03925 28.611 8.58577 29.0308C8.73626 29.1417 8.88675 29.2368 9.04516 29.3239L7.99172 31.6446L8.09469 31.6921L9.14813 29.3714C9.55207 29.5615 9.99563 29.6566 10.4709 29.6566C11.2708 29.6566 11.9599 29.4348 12.5223 28.9833C13.0767 28.5239 13.3539 27.922 13.3539 27.1616C13.346 26.5359 13.1639 26.0052 12.7916 25.5775ZM10.9144 24.4844C10.0511 24.1914 9.49663 23.93 9.24317 23.7161C9.01348 23.5023 8.89467 23.2409 8.89467 22.9479C8.89467 22.5835 9.04516 22.2904 9.33822 22.0687C9.6392 21.8311 10.0035 21.7043 10.4313 21.7043C10.8431 21.7043 11.1916 21.8073 11.4768 22.0211C11.7382 22.2192 11.9124 22.4568 12.0154 22.7419L11.1837 24.5795C11.0966 24.5557 11.0095 24.5161 10.9144 24.4844ZM11.7302 28.2071C11.4055 28.4685 10.9936 28.5952 10.4867 28.5952C10.257 28.5952 10.0352 28.5556 9.82137 28.4685C9.74217 28.4368 9.67088 28.3972 9.59168 28.3576L10.8114 25.6646C11.2788 25.8547 11.6114 26.0448 11.8094 26.2349C12.0787 26.4883 12.2055 26.7972 12.2055 27.1616C12.2134 27.5972 12.055 27.9457 11.7302 28.2071Z" fill="#405174"/>
<path d="M23.357 19.1457L23.254 19.0982L21.4402 23.1139L20.4423 20.8883L21.2343 19.1457L21.1313 19.0982L20.3393 20.8566H19.3175L20.0937 19.1457L19.9908 19.0982L14.4385 31.3671L14.5414 31.4147L15.4285 29.4662H16.4503L15.587 31.3671L15.6899 31.4147L17.7017 26.9712H19.7056L17.7176 31.3671L17.8206 31.4147L20.9333 24.5476L23.1432 29.4662H24.3075L21.4957 23.2486L23.357 19.1457ZM20.165 25.902H18.1611L19.8482 22.1793L20.8462 24.405L20.165 25.902Z" fill="#405174"/>
<defs>
<filter id="filter0_d" x="0.517217" y="0.517217" width="51.9221" height="51.9221" filterUnits="userSpaceOnUse" color-interpolation-filters="sRGB">
<feFlood flood-opacity="0" result="BackgroundImageFix"/>
<feColorMatrix in="SourceAlpha" type="matrix" values="0 0 0 0 0 0 0 0 0 0 0 0 0 0 0 0 0 0 127 0"/>
<feOffset/>
<feGaussianBlur stdDeviation="1.74139"/>
<feColorMatrix type="matrix" values="0 0 0 0 0 0 0 0 0 0 0 0 0 0 0 0 0 0 0.1 0"/>
<feBlend mode="normal" in2="BackgroundImageFix" result="effect1_dropShadow"/>
<feBlend mode="normal" in="SourceGraphic" in2="effect1_dropShadow" result="shape"/>
</filter>
</defs>
</svg>
