<svg width="88" height="35" viewBox="0 0 88 35" fill="none" xmlns="http://www.w3.org/2000/svg">
<path d="M34.6885 16.1996H35.0384C35.0772 16.9559 35.4012 17.5795 36.0232 18.0571C36.6452 18.5347 37.4227 18.7868 38.3557 18.7868C39.2628 18.7868 40.0144 18.548 40.5975 18.0704C41.1807 17.5927 41.4657 16.9824 41.4657 16.2394C41.4657 15.6557 41.2714 15.1913 40.8697 14.8331C40.4679 14.4748 39.82 14.183 38.9129 13.9574L37.7337 13.6523C36.7748 13.4134 36.075 13.0818 35.6344 12.6837C35.1939 12.2857 34.9736 11.755 34.9736 11.1181C34.9736 10.3354 35.2975 9.67198 35.9325 9.14127C36.5674 8.61057 37.345 8.34521 38.2391 8.34521C39.1851 8.34521 39.9755 8.5973 40.6234 9.10147C41.2714 9.60564 41.6083 10.2292 41.6342 10.9722H41.2843C41.2454 10.3221 40.9474 9.77812 40.3643 9.34029C39.7941 8.90245 39.0814 8.69017 38.2391 8.69017C37.4227 8.69017 36.7359 8.91572 36.1787 9.38009C35.6085 9.84446 35.3364 10.415 35.3364 11.1181C35.3364 11.6754 35.5308 12.1132 35.9325 12.4582C36.3342 12.8031 36.9692 13.0817 37.8503 13.3073L39.0166 13.5992C39.9885 13.8513 40.7141 14.183 41.1547 14.5943C41.6083 15.0056 41.8286 15.5495 41.8286 16.2129C41.8286 17.062 41.5046 17.7519 40.8567 18.2959C40.2088 18.8399 39.3794 19.1052 38.3428 19.1052C37.3061 19.1052 36.4508 18.8266 35.764 18.2827C35.0902 17.7519 34.7144 17.0488 34.6885 16.1996Z" fill="white"/>
<path d="M52.8431 8.50439V18.9725H52.4932V9.34025H52.4673L48.3336 18.9725H47.9578L43.824 9.34025H43.7981V18.9725H43.4482V8.50439H43.824L48.1392 18.5214H48.1651L52.4543 8.50439H52.8431Z" fill="white"/>
<path d="M62.083 18.9725L60.7483 15.3372H55.9926L54.6319 18.9725H54.2432L58.1825 8.50439H58.5454L62.4847 18.9725H62.083ZM58.351 8.99529L56.1221 14.9923H60.6187L58.3899 8.99529H58.351Z" fill="white"/>
<path d="M64.2212 14.3952V18.9725H63.8584V8.50439H67.0332C68.0569 8.50439 68.8604 8.76975 69.4435 9.28718C70.0266 9.81789 70.3247 10.5343 70.3247 11.4498C70.3247 12.2193 70.1044 12.8562 69.6767 13.3603C69.2491 13.8645 68.6401 14.1962 67.8755 14.3289L70.5709 18.9725H70.1692L67.4997 14.3819C67.3313 14.3952 67.1758 14.3952 67.0332 14.3952H64.2212ZM64.2212 8.83608V14.0635H67.0332C67.9403 14.0635 68.666 13.8247 69.1843 13.3603C69.7027 12.896 69.9618 12.2591 69.9618 11.4498C69.9618 10.6272 69.7027 9.99036 69.1843 9.526C68.666 9.06163 67.9403 8.83608 67.0203 8.83608H64.2212Z" fill="white"/>
<path d="M75.3008 18.9725H74.951V8.84935H71.2578V8.50439H78.981V8.84935H75.2879L75.3008 18.9725Z" fill="white"/>
<path d="M39.2764 20.0332C40.65 20.0332 41.7515 20.5241 42.5549 21.4926C43.3713 22.4612 43.773 23.7747 43.773 25.4199C43.773 27.065 43.3713 28.3785 42.5549 29.3471C41.7385 30.3156 40.65 30.8065 39.2634 30.8065C37.8769 30.8065 36.7884 30.3156 35.972 29.3471C35.1556 28.3785 34.7539 27.065 34.7539 25.4199C34.7539 23.7747 35.1556 22.4744 35.972 21.4926C36.7884 20.5108 37.8769 20.0332 39.2764 20.0332ZM39.2764 20.3649C38.0065 20.3649 36.9957 20.816 36.2441 21.7315C35.4925 22.6337 35.1167 23.8675 35.1167 25.4066C35.1167 26.9456 35.4925 28.1662 36.2441 29.0817C36.9957 29.9972 38.0065 30.4483 39.2764 30.4483C40.5334 30.4483 41.5441 29.9972 42.2957 29.0817C43.0473 28.1662 43.4231 26.9456 43.4231 25.4066C43.4231 23.8675 43.0473 22.6469 42.2957 21.7315C41.5441 20.8293 40.5334 20.3649 39.2764 20.3649Z" fill="white"/>
<path d="M45.8208 26.0705V30.6478H45.458V20.1797H48.6328C49.6565 20.1797 50.46 20.445 51.0431 20.9625C51.6262 21.4932 51.9243 22.2096 51.9243 23.1251C51.9243 23.8946 51.704 24.5315 51.2764 25.0356C50.8358 25.5398 50.2397 25.8715 49.4751 26.0042L52.1705 30.6478H51.7688L49.0993 26.0572C48.9309 26.0705 48.7754 26.0705 48.6328 26.0705H45.8208ZM45.8208 20.5114V25.7388H48.6328C49.5399 25.7388 50.2656 25.5 50.7839 25.0356C51.3023 24.5713 51.5614 23.9344 51.5614 23.1251C51.5614 22.3025 51.3023 21.6657 50.7839 21.2013C50.2656 20.7369 49.5399 20.5114 48.6199 20.5114H45.8208Z" fill="white"/>
<path d="M60.8786 30.6478L59.5439 27.0125H54.7882L53.4405 30.6478H53.0518L56.9911 20.1797H57.3539L61.2933 30.6478H60.8786ZM57.1596 20.6706L54.9178 26.6675H59.4143L57.1855 20.6706H57.1596Z" fill="white"/>
<path d="M63.0162 30.6478H62.6533V20.1797H63.0421L69.8323 29.9579H69.8582V20.1797H70.2081V30.6478H69.8841L63.0421 20.79H63.0162V30.6478Z" fill="white"/>
<path d="M80.3801 26.5482C80.3801 27.8617 80.0173 28.8965 79.2916 29.6528C78.5659 30.4091 77.5681 30.7805 76.3111 30.7805C75.4559 30.7805 74.6913 30.555 74.0175 30.0906C73.3437 29.6395 72.8253 28.9894 72.4625 28.1668C72.0867 27.3442 71.9053 26.389 71.9053 25.3276C71.9053 23.7354 72.307 22.4485 73.1234 21.4799C73.9268 20.5114 75.0023 20.0205 76.3241 20.0205C77.3349 20.0205 78.2031 20.3124 78.9417 20.8829C79.6803 21.4534 80.1339 22.1964 80.3283 23.1251H79.9784C79.784 22.2893 79.3434 21.6259 78.6825 21.1217C78.0217 20.6176 77.2312 20.3655 76.3241 20.3655C75.106 20.3655 74.1212 20.8166 73.3825 21.732C72.6439 22.6475 72.2811 23.8416 72.2811 25.3408C72.2811 26.8533 72.6569 28.0872 73.4085 29.0292C74.16 29.9712 75.1319 30.4489 76.3371 30.4489C77.4904 30.4489 78.3975 30.1039 79.0583 29.414C79.7192 28.7241 80.0561 27.7688 80.0561 26.5747V25.845H76.2982V25.5133H80.406V26.5482H80.3801Z" fill="white"/>
<path d="M88.0008 30.3029V30.6478H82.1436V20.1797H88.0008V20.5246H82.5064V25.1152H87.7546V25.4469H82.5064V30.3161H88.0008V30.3029Z" fill="white"/>
<path d="M29.921 22.5815L29.7914 21.8386L31.3334 18.9595L29.8432 16.5182L30.4263 15.019L29.0009 13.8913L28.8065 10.8397L26.0075 9.55275L25.4892 8.31887L24.6598 8.04024L23.4288 6.03683L20.8241 6.15624L18.6212 4.15283L16.6127 4.85602L15.9647 4.49779L14.3708 5.29385L11.2997 4.6172L10.0687 5.94396L9.22635 5.82455L8.02122 7.72182L4.60019 8.82303L3.87452 11.9675L3.26547 12.4318L3.2266 13.135L2.9156 13.4402L2.94151 13.8647L0.868164 16.1866L1.77525 18.6411L1.02367 20.074L1.81413 21.5069L1.28284 23.9083L3.35618 26.0709L3.58943 27.9682L4.92415 28.6448L5.85716 31.5505L9.00606 32.1077L10.0687 33.5141L11.5848 33.461L13.4378 34.8541L15.8352 33.9254L18.5175 35L19.6708 33.9917L20.7075 34.204L22.4051 32.2669L25.4374 31.8954L26.2278 29.8655L26.798 29.6134L27.3163 27.9019L30.0506 26.0311L29.7136 22.9132L29.921 22.5815Z" fill="#727376"/>
<path d="M26.707 25.4474L26.0332 26.8273L27.3809 23.8022L26.707 25.4474Z" fill="#898A8D"/>
<path d="M21.9382 31.4176L20.9922 31.8023L23.6875 29.7856L21.9382 31.4176Z" fill="#A0A1A3"/>
<path d="M29.1696 17.3674L28.0293 13.7056L29.066 15.6426L29.1696 17.3674Z" fill="#8D8E91"/>
<path d="M9.44604 31.5104L8.44824 30.9399L11.7526 32.1473L9.44604 31.5104Z" fill="#6C6E70"/>
<path d="M29.9214 22.5818L28.9365 24.0545L29.6363 20.7642L29.9214 22.5818Z" fill="#F2F2F2"/>
<path d="M2.94193 14.9393L2.91602 13.4401L4.56174 11.7949L2.94193 14.9393Z" fill="#E5E5E5"/>
<path d="M23.2354 31.1789L25.3865 29.9582L26.7989 29.6133L23.2354 31.1789Z" fill="#A0A0A0"/>
<path d="M26.7982 29.6135L25.3857 29.9585L27.5109 27.2651L26.7982 29.6135Z" fill="#CCCCCC"/>
<path d="M23.7529 7.88086L25.4894 8.31869L26.3187 10.2956L23.7529 7.88086Z" fill="#D8D8D8"/>
<path d="M21.835 7.08496L25.4892 8.31885L23.7528 7.88102L21.835 7.08496Z" fill="#F2F2F2"/>
<path d="M3.48535 25.5933L5.53278 28.9367L3.58902 27.9682L3.48535 25.5933Z" fill="#999999"/>
<path d="M3.48551 25.5934L3.58918 27.9683L3.04492 23.7227L3.48551 25.5934Z" fill="#A5A5A5"/>
<path d="M20.7084 34.2041L17.0801 33.4346L19.4126 33.5407L20.7084 34.2041Z" fill="#BFBFBF"/>
<path d="M20.708 34.204L19.4121 33.5406L22.5869 32.0679L20.708 34.204Z" fill="#D8D8D8"/>
<path d="M2.25546 21.772L3.04593 23.7223L1.02441 20.0737L2.25546 21.772Z" fill="#BFBFBF"/>
<path d="M1.97038 18.23L2.25546 21.7724L1.02441 20.0742L1.97038 18.23Z" fill="#D8D8D8"/>
<path d="M17.0788 33.4346L13.4375 34.8542L15.8996 33.7663L17.0788 33.4346Z" fill="#CCCCCC"/>
<path d="M18.6211 4.15283L21.8348 7.08497L20.5649 6.16951L18.6211 4.15283Z" fill="#E5E5E5"/>
<path d="M31.3339 18.9593L29.6234 17.0886L29.0791 15.2842L31.3339 18.9593Z" fill="#E5E5E5"/>
<path d="M29.6237 17.0886L28.5352 13.5063L29.0794 15.2842L29.6237 17.0886Z" fill="#808183"/>
<path d="M29.0794 15.2845L28.5352 13.5066L28.8073 10.8398L29.0794 15.2845Z" fill="#D8D8D8"/>
<path d="M13.4378 34.8543L12.0771 33.1162L15.8999 33.7663L13.4378 34.8543Z" fill="#999999"/>
<path d="M13.4371 34.8541L10.042 32.2935L12.0765 33.116L13.4371 34.8541Z" fill="#999999"/>
<path d="M10.6776 6.28891L8.61719 7.53606L11.2996 4.61719L10.6776 6.28891Z" fill="#F2F2F2"/>
<path d="M11.2998 4.61719L14.9541 5.42651L13.8008 5.55919L11.2998 4.61719Z" fill="#F2F2F2"/>
<path d="M10.6787 6.28891L11.3007 4.61719L13.8017 5.55919L10.6787 6.28891Z" fill="#E5E5E5"/>
<path d="M17.1436 5.41325L18.6208 4.15283L20.5646 6.16951L17.1436 5.41325Z" fill="#F2F2F2"/>
<path d="M14.9541 5.42635L17.1441 5.41309L13.8008 5.55903L14.9541 5.42635Z" fill="#9C9EA0"/>
<path d="M14.9541 5.42652L18.6213 4.15283L17.1441 5.41326L14.9541 5.42652Z" fill="#E5E5E5"/>
<path d="M7.64551 8.29247L8.61739 7.53622L10.6778 6.28906L7.64551 8.29247Z" fill="#B9B9BA"/>
<path d="M7.64484 8.29239L4.59961 8.82309L8.61672 7.53613L7.64484 8.29239Z" fill="#E5E5E5"/>
<path d="M31.3336 18.9596L29.5713 20.2731L29.6231 17.0889L31.3336 18.9596Z" fill="#F2F2F2"/>
<path d="M29.6231 22.1835L29.5713 20.273L31.3336 18.9595L29.6231 22.1835Z" fill="#E5E5E5"/>
<path d="M19.4121 33.5406L21.4984 32.373L22.5869 32.0679L19.4121 33.5406Z" fill="#BFBFBF"/>
<path d="M2.19002 19.8221L2.25481 21.7724L1.96973 18.23L2.19002 19.8221Z" fill="#A5A5A5"/>
<path d="M10.0434 32.2936L8.5791 31.4976L12.0779 33.1162L10.0434 32.2936Z" fill="#6E6F72"/>
<path d="M10.042 32.2936L5.85645 31.5506L8.57771 31.4976L10.042 32.2936Z" fill="#999999"/>
<path d="M4.85878 11.3838L4.59961 8.82319L7.64484 8.29248L4.85878 11.3838Z" fill="#F2F2F2"/>
<path d="M4.85977 11.3839L3.58984 13.1219L4.6006 8.82324L4.85977 11.3839Z" fill="#E5E5E5"/>
<path d="M25.4375 9.30078L28.8067 10.8398L26.6815 11.1715L25.4375 9.30078Z" fill="#E5E5E5"/>
<path d="M26.6816 11.1715L28.8068 10.8398L28.5347 13.5066L26.6816 11.1715Z" fill="#F2F2F2"/>
<path d="M12.0771 33.1162L14.3708 33.355L15.8999 33.7663L12.0771 33.1162Z" fill="#CCCCCC"/>
<path d="M30.0514 26.0312L28.8203 23.0195L29.6237 22.1836L30.0514 26.0312Z" fill="#D8D8D8"/>
<path d="M28.8203 23.0194L29.5719 20.2729L29.6237 22.1835L28.8203 23.0194Z" fill="#CCCCCC"/>
<path d="M3.16211 14.6742L3.58974 13.1218L4.85966 11.3838L3.16211 14.6742Z" fill="#B9BABA"/>
<path d="M3.16181 14.6739L0.868164 16.1864L3.58943 13.1216L3.16181 14.6739Z" fill="#F2F2F2"/>
<path d="M17.1436 5.41309L20.5646 6.16934L19.4113 6.35509L17.1436 5.41309Z" fill="#CCCCCC"/>
<path d="M19.4121 6.35553L20.5654 6.16979L23.4292 6.03711L19.4121 6.35553Z" fill="#F2F2F2"/>
<path d="M10.6787 6.2888L13.8017 5.55908L12.8557 6.31534L10.6787 6.2888Z" fill="#CCCCCC"/>
<path d="M4.85938 11.3838L7.64544 8.29248L6.73835 9.76519L4.85938 11.3838Z" fill="#E5E5E5"/>
<path d="M6.0897 28.6182L8.57771 31.4972L5.85645 31.5503L6.0897 28.6182Z" fill="#A5A5A5"/>
<path d="M6.08998 28.6183L5.85673 31.5505L4.49609 27.2783L6.08998 28.6183Z" fill="#B2B2B2"/>
<path d="M30.0507 26.0313L27.459 25.8057L28.8196 23.0195L30.0507 26.0313Z" fill="#E5E5E5"/>
<path d="M26.8633 28.2204L27.4594 25.8057L30.0511 26.0312L26.8633 28.2204Z" fill="#F2F2F2"/>
<path d="M29.6229 17.0888L28.9102 17.6858L30.4263 15.019L29.6229 17.0888Z" fill="#CCCCCC"/>
<path d="M29.571 20.2731L28.9102 17.6859L29.6229 17.0889L29.571 20.2731Z" fill="#D8D8D8"/>
<path d="M27.7695 13.9575L28.5341 13.5063L30.426 15.0189L27.7695 13.9575Z" fill="#E5E5E5"/>
<path d="M27.7695 13.9575L30.426 15.0189L28.9099 17.6857L27.7695 13.9575Z" fill="#F2F2F2"/>
<path d="M26.6816 11.1714L28.5347 13.5065L27.7702 13.9576L26.6816 11.1714Z" fill="#CCCCCC"/>
<path d="M3.16181 14.6738L2.87672 17.8581L0.868164 16.1863L3.16181 14.6738Z" fill="#D8D8D8"/>
<path d="M2.87672 17.8582L2.18993 19.8219L0.868164 16.1865L2.87672 17.8582Z" fill="#B2B2B2"/>
<path d="M25.4379 9.30078L26.6819 11.1715L24.5049 9.56613L25.4379 9.30078Z" fill="#CCCCCC"/>
<path d="M23.4287 6.03711L25.4373 9.30094L24.5043 9.5663L23.4287 6.03711Z" fill="#E5E5E5"/>
<path d="M12.8545 6.31522L13.8005 5.55897L15.9645 4.49756L12.8545 6.31522Z" fill="#D8D8D8"/>
<path d="M25.4375 31.8953L25.5412 28.2335L26.8629 28.2202L25.4375 31.8953Z" fill="#D8D8D8"/>
<path d="M25.541 28.2336L27.4589 25.8057L26.8628 28.2204L25.541 28.2336Z" fill="#E5E5E5"/>
<path d="M18.5168 35.0003L14.3701 33.3551L16.91 32.7979L18.5168 35.0003Z" fill="#A5A5A5"/>
<path d="M18.517 34.9999L16.9102 32.7975L20.3053 31.8555L18.517 34.9999Z" fill="#CCCCCC"/>
<path d="M18.5176 34.9999L20.3058 31.8555L21.498 32.3729L18.5176 34.9999Z" fill="#E5E5E5"/>
<path d="M21.498 32.373L23.0401 30.3032L25.4374 31.8953L21.498 32.373Z" fill="#CCCCCC"/>
<path d="M25.4373 31.8953L23.04 30.3031L25.541 28.2334L25.4373 31.8953Z" fill="#E5E5E5"/>
<path d="M20.3057 31.8555L23.0399 30.3032L21.4978 32.373L20.3057 31.8555Z" fill="#D8D8D8"/>
<path d="M4.26364 24.9829L4.49689 27.2782L1.2832 23.9082L4.26364 24.9829Z" fill="#B2B2B2"/>
<path d="M6.08983 28.6182L4.49595 27.2782L4.2627 24.9829L6.08983 28.6182Z" fill="#999999"/>
<path d="M3.20105 21.2681L4.26364 24.983L1.2832 23.9083L3.20105 21.2681Z" fill="#999999"/>
<path d="M3.20118 21.2682L2.19043 19.822L2.87722 17.8584L3.20118 21.2682Z" fill="#D8D8D8"/>
<path d="M3.20105 21.2679L1.2832 23.9082L2.19029 19.8218L3.20105 21.2679Z" fill="#F2F2F2"/>
<path d="M21.6924 8.2926L23.4288 6.03711L24.5044 9.5663L21.6924 8.2926Z" fill="#F2F2F2"/>
<path d="M19.4121 6.35553L23.4292 6.03711L21.6928 8.2926L19.4121 6.35553Z" fill="#E5E5E5"/>
<path d="M9.31701 8.79665L6.73828 9.76519L9.2263 5.82471L9.31701 8.79665Z" fill="#D8D8D8"/>
<path d="M14.3706 33.3551L10.0684 33.5143L13.2043 32.1743L14.3706 33.3551Z" fill="#A5A5A5"/>
<path d="M14.3713 33.3551L13.2051 32.1743L16.9112 32.7979L14.3713 33.3551Z" fill="#999999"/>
<path d="M8.35757 29.6L8.57787 31.4972L6.08984 28.6182L8.35757 29.6Z" fill="#999999"/>
<path d="M8.3584 29.6001L10.0689 33.514L8.57869 31.4974L8.3584 29.6001Z" fill="#BFBFBF"/>
<path d="M9.31727 8.79665L9.22656 5.82471L12.4921 7.6291L9.31727 8.79665Z" fill="#E5E5E5"/>
<path d="M9.22656 5.82471L12.8549 6.31561L12.4921 7.6291L9.22656 5.82471Z" fill="#D8D8D8"/>
<path d="M3.26578 12.4316L4.21174 16.0404L3.16211 14.6739L3.26578 12.4316Z" fill="#D8D8D8"/>
<path d="M4.21167 16.0404L2.87695 17.8581L3.16204 14.6738L4.21167 16.0404Z" fill="#BFBFBF"/>
<path d="M19.412 6.35498L21.6927 8.29205L18.6475 7.66847L19.412 6.35498Z" fill="#CCCCCC"/>
<path d="M15.9648 4.49756L19.4118 6.35502L18.6472 7.66852L15.9648 4.49756Z" fill="#D8D8D8"/>
<path d="M6.66113 11.7816L6.73888 9.76492L9.31761 8.79639L6.66113 11.7816Z" fill="#F2F2F2"/>
<path d="M6.66073 11.7818L3.26562 12.4319L6.73848 9.76514L6.66073 11.7818Z" fill="#D8D8D8"/>
<path d="M12.8545 6.31522L15.9645 4.49756L15.4462 7.48277L12.8545 6.31522Z" fill="#F2F2F2"/>
<path d="M15.4463 7.48277L15.9646 4.49756L18.647 7.66852L15.4463 7.48277Z" fill="#E5E5E5"/>
<path d="M12.856 6.31543L15.4477 7.48298L12.4932 7.62892L12.856 6.31543Z" fill="#E5E5E5"/>
<path d="M27.7703 13.9575L28.9107 17.6857L27.0576 16.2395L27.7703 13.9575Z" fill="#E5E5E5"/>
<path d="M27.0576 16.2397L28.9107 17.6859L29.727 20.366L27.0576 16.2397Z" fill="#CCCCCC"/>
<path d="M27.4588 25.8057L27.2256 22.7939L28.8195 23.0195L27.4588 25.8057Z" fill="#D8D8D8"/>
<path d="M28.8195 23.0192L27.2256 22.7937L29.7266 20.3657L28.8195 23.0192Z" fill="#F2F2F2"/>
<path d="M24.5049 9.56592L26.6819 11.1713L26.967 11.4499L24.5049 9.56592Z" fill="#E5E5E5"/>
<path d="M26.9668 11.4502L27.7702 13.9578L27.0575 16.2398L26.9668 11.4502Z" fill="#D8D8D8"/>
<path d="M10.976 30.0247L10.0689 33.514L8.3584 29.6001L10.976 30.0247Z" fill="#A5A5A5"/>
<path d="M10.9754 30.0244L13.2043 32.1738L10.0684 33.5138L10.9754 30.0244Z" fill="#BFBFBF"/>
<path d="M21.6924 8.29248L24.5044 9.56617L23.4936 10.9195L21.6924 8.29248Z" fill="#E5E5E5"/>
<path d="M23.4932 10.9192L24.5039 9.56592L26.966 11.4499L23.4932 10.9192Z" fill="#F2F2F2"/>
<path d="M16.9102 32.7978L18.2449 30.874L20.3053 31.8558L16.9102 32.7978Z" fill="#D8D8D8"/>
<path d="M16.9105 32.7978L15.6406 33.2357L18.2453 30.874L16.9105 32.7978Z" fill="#E5E5E5"/>
<path d="M5.17086 22.754L4.26376 24.983L3.20117 21.2681L5.17086 22.754Z" fill="#BFBFBF"/>
<path d="M6.11648 14.7933L4.21159 16.0404L3.26562 12.4316L6.11648 14.7933Z" fill="#CCCCCC"/>
<path d="M6.66073 11.7817L6.11648 14.7935L3.26562 12.4319L6.66073 11.7817Z" fill="#E5E5E5"/>
<path d="M23.04 30.3032L23.4288 27.5303L25.541 28.2335L23.04 30.3032Z" fill="#D8D8D8"/>
<path d="M27.0564 16.2397L29.7258 20.366L26.0586 18.7871L27.0564 16.2397Z" fill="#F2F2F2"/>
<path d="M26.0586 18.7871L29.7258 20.366L27.2249 22.7939L26.0586 18.7871Z" fill="#D8D8D8"/>
<path d="M9.31738 8.79645L12.4922 7.62891L11.6499 9.97727L9.31738 8.79645Z" fill="#D8D8D8"/>
<path d="M27.0573 16.2398L26.0595 18.7872L24.7637 14.5283L27.0573 16.2398Z" fill="#CCCCCC"/>
<path d="M26.9666 11.4502L27.0573 16.2398L24.7637 14.5283L26.9666 11.4502Z" fill="#F2F2F2"/>
<path d="M23.4932 10.9194L26.966 11.4501L24.7631 14.5282L23.4932 10.9194Z" fill="#D8D8D8"/>
<path d="M5.2998 27.1987L8.35799 29.6002L6.09027 28.6184L5.2998 27.1987Z" fill="#A5A5A5"/>
<path d="M5.16979 22.7539L5.29937 27.1985L4.2627 24.9829L5.16979 22.7539Z" fill="#A5A5A5"/>
<path d="M14.4102 30.2104L15.6413 33.2355L13.2051 32.1741L14.4102 30.2104Z" fill="#B2B2B2"/>
<path d="M14.4096 30.2102L13.2044 32.1738L10.9756 30.0244L14.4096 30.2102Z" fill="#999999"/>
<path d="M14.4102 30.2104L18.2458 30.8738L15.6412 33.2355L14.4102 30.2104Z" fill="#D8D8D8"/>
<path d="M3.09766 19.0259L5.171 22.7541L3.20132 21.2681L3.09766 19.0259Z" fill="#B2B2B2"/>
<path d="M4.21167 16.0405L3.09725 19.0257L2.87695 17.8582L4.21167 16.0405Z" fill="#F2F2F2"/>
<path d="M3.09725 19.0259L3.20091 21.2682L2.87695 17.8584L3.09725 19.0259Z" fill="#A5A5A5"/>
<path d="M8.06055 9.56591L9.31751 8.79639L11.65 9.97721L8.06055 9.56591Z" fill="#E5E5E5"/>
<path d="M25.5409 28.2333L23.4287 27.5301L26.6424 25.938L25.5409 28.2333Z" fill="#CCCCCC"/>
<path d="M27.459 25.8057L26.6426 25.9384L27.2257 22.7939L27.459 25.8057Z" fill="#CCCCCC"/>
<path d="M25.541 28.2336L26.6425 25.9383L27.4589 25.8057L25.541 28.2336Z" fill="#D8D8D8"/>
<path d="M15.4463 7.48291L18.647 7.66866L17.6492 9.52612L15.4463 7.48291Z" fill="#D8D8D8"/>
<path d="M9.48537 27.3579L8.35799 29.6002L5.2998 27.1987L9.48537 27.3579Z" fill="#BFBFBF"/>
<path d="M10.976 30.0247L8.3584 29.6001L9.48578 27.3579L10.976 30.0247Z" fill="#999999"/>
<path d="M8.90227 13.0687L6.11621 14.7935L6.66047 11.7817L8.90227 13.0687Z" fill="#D8D8D8"/>
<path d="M8.06055 9.56592L11.65 9.97721L8.90284 13.0686L8.06055 9.56592Z" fill="#D8D8D8"/>
<path d="M8.06064 9.56592L8.90294 13.0686L6.66113 11.7816L8.06064 9.56592Z" fill="#E5E5E5"/>
<path d="M20.3065 31.8554L18.2461 30.8736L21.5764 30.5552L20.3065 31.8554Z" fill="#BFBFBF"/>
<path d="M23.0395 30.3032L21.5752 30.5553L23.4283 27.5303L23.0395 30.3032Z" fill="#BFBFBF"/>
<path d="M20.3057 31.8555L21.5756 30.5553L23.0399 30.3032L20.3057 31.8555Z" fill="#E5E5E5"/>
<path d="M6.56937 17.5929L4.21094 16.0406L6.11583 14.7935L6.56937 17.5929Z" fill="#BFBFBF"/>
<path d="M6.57051 17.5928L3.09766 19.0257L4.21208 16.0405L6.57051 17.5928Z" fill="#E5E5E5"/>
<path d="M17.6494 9.52641L18.6472 7.66895L21.3167 8.99571L17.6494 9.52641Z" fill="#F2F2F2"/>
<path d="M18.6475 7.66895L21.6927 8.29252L21.3169 8.99571L18.6475 7.66895Z" fill="#D8D8D8"/>
<path d="M21.3164 8.99566L21.6922 8.29248L23.4934 10.9195L21.3164 8.99566Z" fill="#CCCCCC"/>
<path d="M26.0591 18.7871L27.2253 22.7939L24.4004 21.4539L26.0591 18.7871Z" fill="#E5E5E5"/>
<path d="M24.4004 21.4541L27.2253 22.7941L26.6422 25.9386L24.4004 21.4541Z" fill="#F2F2F2"/>
<path d="M8.08654 24.2001L5.30048 27.1985L5.1709 22.7539L8.08654 24.2001Z" fill="#BFBFBF"/>
<path d="M8.08586 24.2002L9.48537 27.3579L5.2998 27.1987L8.08586 24.2002Z" fill="#A5A5A5"/>
<path d="M23.4939 10.9194L24.7638 14.5282L21.8223 13.3076L23.4939 10.9194Z" fill="#E5E5E5"/>
<path d="M21.3164 8.99561L23.4934 10.9194L21.8218 13.3076L21.3164 8.99561Z" fill="#F2F2F2"/>
<path d="M17.1436 28.353L21.5753 30.5554L18.245 30.8739L17.1436 28.353Z" fill="#A5A5A5"/>
<path d="M17.1444 28.353L18.2458 30.8739L14.4102 30.2105L17.1444 28.353Z" fill="#BFBFBF"/>
<path d="M8.08654 24.2001L5.1709 22.754L7.17945 20.8965L8.08654 24.2001Z" fill="#999999"/>
<path d="M6.57051 17.5928L7.17956 20.8964L3.09766 19.0257L6.57051 17.5928Z" fill="#B2B2B2"/>
<path d="M7.17956 20.8966L5.17101 22.7541L3.09766 19.0259L7.17956 20.8966Z" fill="#A5A5A5"/>
<path d="M14.5391 8.3055L15.4462 7.48291L17.6491 9.52612L14.5391 8.3055Z" fill="#CCCCCC"/>
<path d="M12.4932 7.62885L15.4477 7.48291L14.5406 8.3055L12.4932 7.62885Z" fill="#D8D8D8"/>
<path d="M11.6504 9.97727L12.4927 7.62891L14.5401 8.30556L11.6504 9.97727Z" fill="#F2F2F2"/>
<path d="M24.4005 21.4541L26.6423 25.9386L22.3271 24.0015L24.4005 21.4541Z" fill="#E5E5E5"/>
<path d="M22.3271 24.0015L26.6423 25.9385L23.4286 27.5307L22.3271 24.0015Z" fill="#CCCCCC"/>
<path d="M19.8135 26.4292L23.4289 27.5304L21.5758 30.5554L19.8135 26.4292Z" fill="#CCCCCC"/>
<path d="M19.813 26.4292L21.5753 30.5554L17.1436 28.353L19.813 26.4292Z" fill="#B2B2B2"/>
<path d="M22.3274 24.0015L23.4289 27.5307L19.8135 26.4294L22.3274 24.0015Z" fill="#BFBFBF"/>
<path d="M11.6504 9.97738L14.5401 8.30566L12.1428 12.6972L11.6504 9.97738Z" fill="#E5E5E5"/>
<path d="M11.6505 9.97754L12.1429 12.6974L8.90332 13.0689L11.6505 9.97754Z" fill="#CCCCCC"/>
<path d="M17.6494 9.52631L21.3167 8.99561L18.6343 12.4983L17.6494 9.52631Z" fill="#D8D8D8"/>
<path d="M21.3162 8.99561L21.8216 13.3076L18.6338 12.4983L21.3162 8.99561Z" fill="#E5E5E5"/>
<path d="M14.5389 8.30566L15.2775 12.2063L12.1416 12.6972L14.5389 8.30566Z" fill="#BFBFBF"/>
<path d="M14.5391 8.30566L17.6491 9.52628L15.2777 12.2063L14.5391 8.30566Z" fill="#E5E5E5"/>
<path d="M17.6497 9.52637L18.6346 12.4983L15.2783 12.2064L17.6497 9.52637Z" fill="#CCCCCC"/>
<path d="M11.5199 25.1157L9.48545 27.3579L8.08594 24.2002L11.5199 25.1157Z" fill="#999999"/>
<path d="M19.8134 26.4294L17.144 28.3532L15.5371 25.6333L19.8134 26.4294Z" fill="#A5A5A5"/>
<path d="M9.57666 18.8399L7.17936 20.8964L6.57031 17.5928L9.57666 18.8399Z" fill="#999999"/>
<path d="M12.5047 28.8306L14.4096 30.2104L10.9756 30.0246L12.5047 28.8306Z" fill="#BFBFBF"/>
<path d="M11.5205 25.1157L15.5376 25.6332L12.5053 28.8307L11.5205 25.1157Z" fill="#BFBFBF"/>
<path d="M15.5362 25.6333L17.143 28.3532L12.5039 28.8308L15.5362 25.6333Z" fill="#999999"/>
<path d="M12.5039 28.8307L17.143 28.353L14.4088 30.2105L12.5039 28.8307Z" fill="#B2B2B2"/>
<path d="M11.5198 25.1157L12.5047 28.8307L9.48535 27.358L11.5198 25.1157Z" fill="#A5A5A5"/>
<path d="M12.5047 28.8306L10.9756 30.0247L9.48535 27.3579L12.5047 28.8306Z" fill="#B2B2B2"/>
<path d="M24.4008 21.4538L22.3275 24.0011L20.7725 19.9678L24.4008 21.4538Z" fill="#CCCCCC"/>
<path d="M15.2775 12.2065L12.2453 15.6827L12.1416 12.6974L15.2775 12.2065Z" fill="#B2B2B2"/>
<path d="M21.8216 13.3074L19.4372 16.0272L18.6338 12.498L21.8216 13.3074Z" fill="#D8D8D8"/>
<path d="M24.7632 14.5283L26.059 18.7872L23.9209 16.8104L24.7632 14.5283Z" fill="#E5E5E5"/>
<path d="M21.8219 13.3076L23.9211 16.8103L19.4375 16.0275L21.8219 13.3076Z" fill="#E5E5E5"/>
<path d="M21.8223 13.3076L24.7638 14.5282L23.9215 16.8103L21.8223 13.3076Z" fill="#D8D8D8"/>
<path d="M23.9214 16.8101L24.4008 21.4537L20.7725 19.9677L23.9214 16.8101Z" fill="#F2F2F2"/>
<path d="M23.9209 16.8101L26.059 18.7869L24.4004 21.4537L23.9209 16.8101Z" fill="#D8D8D8"/>
<path d="M19.4375 16.0273L23.9211 16.8101L20.7722 19.9678L19.4375 16.0273Z" fill="#D8D8D8"/>
<path d="M8.21582 15.4834L12.2459 15.6824L9.57646 18.8401L8.21582 15.4834Z" fill="#BFBFBF"/>
<path d="M12.1422 12.6973L12.2459 15.6825L8.21582 15.4835L12.1422 12.6973Z" fill="#D8D8D8"/>
<path d="M8.21603 15.4834L9.57666 18.8401L6.57031 17.593L8.21603 15.4834Z" fill="#A5A5A5"/>
<path d="M8.21548 15.4834L6.56976 17.5929L6.11621 14.7935L8.21548 15.4834Z" fill="#B2B2B2"/>
<path d="M8.90227 13.0688L8.21548 15.4836L6.11621 14.7936L8.90227 13.0688Z" fill="#F2F2F2"/>
<path d="M8.90262 13.0688L12.1422 12.6973L8.21582 15.4835L8.90262 13.0688Z" fill="#E5E5E5"/>
<path d="M14.2159 22.3428L15.5376 25.6331L11.5205 25.1157L14.2159 22.3428Z" fill="#A5A5A5"/>
<path d="M12.2456 15.6826L13.049 19.0128L9.57617 18.8403L12.2456 15.6826Z" fill="#999999"/>
<path d="M16.8716 19.0923L14.2151 22.3429L13.0488 19.0127L16.8716 19.0923Z" fill="#999999"/>
<path d="M19.4378 16.0273L20.7725 19.9678L16.8721 19.0922L19.4378 16.0273Z" fill="#CCCCCC"/>
<path d="M9.80957 22.4489L14.2154 22.3428L11.5201 25.1157L9.80957 22.4489Z" fill="#BFBFBF"/>
<path d="M9.80941 22.4487L11.5199 25.1155L8.08594 24.2001L9.80941 22.4487Z" fill="#A5A5A5"/>
<path d="M9.577 18.8403L9.81025 22.4491L7.17969 20.8968L9.577 18.8403Z" fill="#A5A5A5"/>
<path d="M9.81025 22.4488L8.08678 24.2001L7.17969 20.8965L9.81025 22.4488Z" fill="#BFBFBF"/>
<path d="M13.0492 19.0127L14.2154 22.3429L9.80957 22.449L13.0492 19.0127Z" fill="#A5A5A5"/>
<path d="M9.57617 18.8403L13.049 19.0128L9.80942 22.4491L9.57617 18.8403Z" fill="#B2B2B2"/>
<path d="M15.6152 14.8462L19.438 16.027L16.8722 19.0918L15.6152 14.8462Z" fill="#D8D8D8"/>
<path d="M18.6345 12.498L19.438 16.0272L15.6152 14.8464L18.6345 12.498Z" fill="#F2F2F2"/>
<path d="M15.2783 12.2065L18.6346 12.4984L15.6152 14.8468L15.2783 12.2065Z" fill="#BFBFBF"/>
<path d="M15.6146 14.8462L16.8716 19.0918L13.0488 19.0122L15.6146 14.8462Z" fill="#A5A5A5"/>
<path d="M15.2774 12.2065L15.6143 14.8468L12.2451 15.6827L15.2774 12.2065Z" fill="#F2F2F2"/>
<path d="M12.2451 15.6821L15.6143 14.8462L13.0485 19.0122L12.2451 15.6821Z" fill="#B2B2B2"/>
<path d="M20.7723 19.9678L22.3274 24.0011L18.5176 23.3245L20.7723 19.9678Z" fill="#F2F2F2"/>
<path d="M18.5176 23.3247L22.3274 24.0014L19.8134 26.4293L18.5176 23.3247Z" fill="#D8D8D8"/>
<path d="M16.8723 19.0923L18.518 23.3247L14.2158 22.3429L16.8723 19.0923Z" fill="#B2B2B2"/>
<path d="M16.8721 19.0923L20.7725 19.9679L18.5178 23.3247L16.8721 19.0923Z" fill="#D8D8D8"/>
<path d="M18.5175 23.3247L19.8134 26.4293L15.5371 25.6333L18.5175 23.3247Z" fill="#BFBFBF"/>
<path d="M14.2158 22.3428L18.518 23.3246L15.5376 25.6331L14.2158 22.3428Z" fill="#999999"/>
<path d="M3.26562 3.88721L6.27198 5.2007L7.38641 7.96036L3.26562 3.88721Z" fill="#727272"/>
<path d="M6.73755 4.04654L7.38547 7.96049L6.27105 5.20082L5.23438 2.86572L6.73755 4.04654Z" fill="#A5A5A5"/>
<path d="M1.0625 2.86572L3.26543 3.88733L6.27179 5.20082L5.23512 2.86572H1.0625Z" fill="#8C8C8C"/>
<path d="M3.43389 1.19385L5.23512 2.86557H1.0625L3.43389 1.19385Z" fill="#B2B2B2"/>
<path d="M0 1.19385H3.43398L1.06259 2.86557L0 1.19385Z" fill="#BFBFBF"/>
<path d="M3.43398 1.19409L5.75354 1.36656L3.65428 0L0 1.19409H3.43398Z" fill="#8C8C8C"/>
<path d="M6.85601 1.36656H5.75454L3.65527 0L6.85601 1.36656Z" fill="#A5A5A5"/>
<path d="M6.73799 4.04638L5.75315 1.36632L3.43359 1.19385L5.23482 2.86557L6.73799 4.04638Z" fill="#727272"/>
<path d="M8.02117 7.76132L6.73828 4.04639L7.3862 7.96033L8.02117 7.76132Z" fill="#727272"/>
<path d="M6.85537 1.3667L8.02163 7.76169L6.73874 4.04676L5.75391 1.3667H6.85537Z" fill="#8C8C8C"/>
</svg>
