<svg viewBox="0 0 89 89" fill="none" xmlns="http://www.w3.org/2000/svg">
<path d="M48.4583 7.64971H47.4716L45.3186 4.60022H43.7936L43.7039 7.56002H42.8965L43.0759 0.384766L45.5877 0.474456C46.3054 0.474456 46.8436 0.743528 47.2024 1.10229C47.651 1.46105 47.8304 1.9992 47.8304 2.62703C47.8304 3.07548 47.651 3.52394 47.3818 3.8827C47.1127 4.24146 46.7539 4.42084 46.3054 4.60022L48.4583 7.64971ZM43.973 1.19198L43.8833 3.79301L45.498 3.8827C45.9465 3.8827 46.3054 3.79301 46.5745 3.52394C46.8436 3.25487 46.9333 2.98579 46.9333 2.62703C46.9333 2.26827 46.8436 1.90951 46.5745 1.64043C46.3054 1.37136 45.9465 1.28167 45.498 1.28167L43.973 1.19198Z" fill="white"/>
<path d="M54.0215 8.81551L55.9947 1.99902L56.8019 2.2681L54.8287 9.08458L54.0215 8.81551Z" fill="white"/>
<path d="M68.7333 7.73924L69.5407 8.18769L63.1715 12.8516L62.9023 12.6722L63.9788 4.86914L64.7862 5.31759L63.9788 11.3269L68.7333 7.73924Z" fill="white"/>
<path d="M70.1704 18.0544L75.3734 13.3008L78.4235 16.6193L77.8852 17.1575L75.3734 14.3771L73.7587 15.8121L75.6426 17.875L75.1043 18.4131L73.2205 16.3503L71.2469 18.1441L73.8484 21.0142L73.3102 21.5523L70.1704 18.0544Z" fill="white"/>
<path d="M79.052 31.4169L78.6034 30.52L80.3079 27.2014L79.6799 25.8561L76.9887 27.1117L76.6299 26.3942L82.9991 23.3447L84.0756 25.587C84.3447 26.2148 84.4344 26.753 84.255 27.2911C84.0756 27.8293 83.7167 28.2777 83.1785 28.4571C82.73 28.6365 82.2814 28.7262 81.9226 28.6365C81.4741 28.5468 81.1152 28.3674 80.7564 27.9189L79.052 31.4169ZM82.73 24.421L80.3079 25.4973L81.0255 26.9324C81.2049 27.3808 81.4741 27.6499 81.8329 27.7396C82.1917 27.8293 82.4608 27.8293 82.8197 27.6499C83.1785 27.4705 83.4476 27.2014 83.5373 26.9324C83.627 26.5736 83.627 26.2148 83.4476 25.8561L82.73 24.421Z" fill="white"/>
<path d="M81.8293 35.9915L82.3676 36.5296C81.6499 37.1574 81.3808 37.875 81.4705 38.6822C81.5602 39.1306 81.7396 39.3997 81.919 39.6688C82.1881 39.9378 82.4573 39.9378 82.8161 39.9378C83.0852 39.8482 83.3543 39.7585 83.444 39.5791C83.5338 39.3997 83.7132 39.0409 83.8926 38.5925L84.1617 37.7853C84.3411 37.2471 84.5205 36.7987 84.7897 36.4399C85.0588 36.1708 85.3279 35.9018 85.7764 35.9018C86.3147 35.8121 86.7632 35.9915 87.2117 36.3502C87.6603 36.709 87.8397 37.1574 87.9294 37.7853C88.0191 38.2337 87.9294 38.6822 87.8397 39.1306C87.6603 39.5791 87.4809 39.9378 87.122 40.2069L86.5838 39.6688C87.122 39.2203 87.3014 38.5925 87.2117 37.9646C87.122 37.6059 87.0323 37.3368 86.7632 37.1574C86.5838 36.9781 86.3147 36.8884 85.9558 36.8884C85.7764 36.8884 85.597 36.9781 85.5073 37.0677C85.3279 36.9781 85.2382 37.1574 85.2382 37.2471C85.2382 37.3368 85.0588 37.6059 84.9691 37.9646L84.6999 38.7719C84.5205 39.3997 84.2514 39.8482 84.072 40.1172C83.8926 40.3863 83.444 40.7451 82.9955 40.7451C82.4573 40.8347 81.919 40.6554 81.4705 40.2966C81.022 39.9378 80.7528 39.3997 80.6631 38.7719C80.5734 38.2337 80.6631 37.6956 80.8425 37.2471C81.0219 36.7987 81.3808 36.3502 81.8293 35.9915Z" fill="white"/>
<path d="M81.202 47.2041L88.2889 47.8319L88.1992 48.6392L81.1123 48.0113L81.202 47.2041Z" fill="white"/>
<path d="M80.0361 54.4678L86.7641 56.8894L86.0465 58.8626C85.6876 59.9389 85.0597 60.7461 84.1626 61.1946C83.2656 61.643 82.3685 61.643 81.3817 61.2843C80.3949 60.9255 79.6773 60.2977 79.3184 59.4008C78.9596 58.5039 78.9596 57.5173 79.3184 56.441L80.0361 54.4678ZM80.4846 55.4544L80.0361 56.6203C79.767 57.5173 79.767 58.2348 80.0361 58.9523C80.3052 59.6698 80.9332 60.1183 81.6508 60.3874C82.4582 60.6564 83.1758 60.6564 83.8038 60.2977C84.4317 59.9389 84.97 59.4008 85.2391 58.5039L85.6876 57.3379L80.4846 55.4544Z" fill="white"/>
<path d="M75.1039 65.1416L80.7554 69.4468L77.9745 73.1241L77.3466 72.6756L79.5892 69.7158L77.8848 68.3705L76.1804 70.6127L75.5524 70.1643L77.2569 67.922L75.1039 66.3076L72.7715 69.3571L72.1436 68.9086L75.1039 65.1416Z" fill="white"/>
<path d="M63.711 80.3005C64.1596 81.1974 64.1596 82.184 63.8007 83.0809C63.4419 84.0675 62.7242 84.6953 61.8272 85.1438C61.2889 85.4129 60.661 85.5026 60.1227 85.5026C59.4948 85.5026 59.0463 85.3232 58.508 84.9644L58.8668 84.2469C59.7639 84.785 60.5713 84.8747 61.4683 84.4263C62.186 84.0675 62.7242 83.6191 62.9934 82.8118C63.2625 82.0943 63.2625 81.3768 62.9037 80.5696C62.5448 79.8521 62.0066 79.3139 61.2889 79.0448C60.5713 78.7758 59.8536 78.7758 59.136 79.1345C58.2389 79.4933 57.7006 80.2108 57.5212 81.1974L56.7139 81.1077C56.8036 80.5696 56.983 80.0314 57.4315 79.583C57.7904 79.1345 58.2389 78.7758 58.8668 78.5067C59.7639 78.0582 60.7507 78.0582 61.7375 78.417C62.6345 78.7758 63.2625 79.4036 63.711 80.3005Z" fill="white"/>
<path d="M51.2398 84.6938C51.3295 85.6804 51.0604 86.5773 50.3428 87.3845C49.7148 88.1917 48.8177 88.5505 47.8309 88.6402C46.8442 88.7298 45.9471 88.4608 45.1397 87.8329C44.3324 87.2051 43.8838 86.3082 43.8838 85.3216C43.7941 84.335 44.0633 83.4381 44.7809 82.6309C45.4986 81.8237 46.3059 81.4649 47.2927 81.3752C48.2795 81.2855 49.1766 81.5546 49.9839 82.1824C50.7016 82.9 51.1501 83.7072 51.2398 84.6938ZM44.7809 85.2319C44.8706 86.0391 45.1397 86.667 45.7677 87.2051C46.3956 87.7432 47.0236 87.9226 47.8309 87.8329C48.6383 87.7432 49.2663 87.4742 49.8045 86.8463C50.253 86.2185 50.5222 85.5907 50.4325 84.6938C50.3428 83.8866 50.0736 83.169 49.4457 82.7206C48.9074 82.1824 48.1898 82.003 47.3824 82.0927C46.575 82.1824 45.9471 82.4515 45.4986 83.0793C44.8706 83.7072 44.6912 84.4247 44.7809 85.2319Z" fill="white"/>
<path d="M29.8907 86.4869L29.6216 86.3972L31.5054 79.4014L32.3128 79.5808L30.9672 84.5137L33.9275 82.0921L34.1966 82.1818L35.632 85.7694L36.9776 80.8364L37.7849 81.0158L35.9011 88.1014L35.632 88.0117L33.8378 83.2581L29.8907 86.4869Z" fill="white"/>
<path d="M25.675 76.7111L21.8176 82.7204L18.1396 80.2091L18.5882 79.5813L21.6382 81.5544L22.9838 79.4916L20.472 77.8771L20.9206 77.2493L23.4324 78.8637L25.1368 76.2627L25.675 76.7111Z" fill="white"/>
<path d="M15.3578 73.2127C14.5504 73.8405 13.6533 74.1096 12.6666 74.0199C11.6798 73.9302 10.7827 73.4817 10.1548 72.6745C9.5268 71.8673 9.25768 70.9704 9.34739 69.9838C9.43709 68.9972 9.88563 68.1003 10.693 67.4725C11.5004 66.8446 12.3974 66.5756 13.3842 66.6653C14.371 66.7549 15.2681 67.2034 15.896 68.0106C16.524 68.7281 16.7931 69.625 16.7034 70.7013C16.524 71.7776 16.0754 72.6745 15.3578 73.2127ZM11.1415 68.2797C10.5136 68.8178 10.1548 69.4457 10.065 70.2529C9.97534 71.0601 10.1548 71.6879 10.693 72.3158C11.2312 72.9436 11.8592 73.3024 12.5768 73.3024C13.3842 73.3921 14.0122 73.123 14.6401 72.5848C15.2681 72.0467 15.6269 71.4189 15.7166 70.6116C15.8063 69.8044 15.6269 69.1766 15.0886 68.5488C14.6401 67.9209 13.9225 67.5622 13.2048 67.5622C12.4871 67.4725 11.7695 67.7415 11.1415 68.2797Z" fill="white"/>
<path d="M8.54026 55.0068L8.89909 55.9037L6.92553 59.0429L7.46378 60.478L10.2447 59.4017L10.5138 60.2089L3.87549 62.8099L2.97842 60.478C2.7093 59.8501 2.7093 59.2223 2.88871 58.7738C3.06813 58.2357 3.51666 57.8769 4.05491 57.6976C4.50344 57.5182 4.95198 57.5182 5.40051 57.6079C5.84905 57.6976 6.20788 57.9666 6.477 58.3254L8.54026 55.0068ZM4.32403 61.6439L6.74612 60.6573L6.11817 59.1326C5.93876 58.6841 5.75934 58.4151 5.40051 58.2357C5.13139 58.0563 4.77256 58.0563 4.41373 58.2357C4.05491 58.4151 3.78578 58.5945 3.69608 58.9532C3.60637 59.312 3.60637 59.6707 3.69608 60.0295L4.32403 61.6439Z" fill="white"/>
<path d="M7.37357 48.0107L1.00436 48.5489L1.18377 51.0602L0.466114 51.1499L0.0175781 45.2303L0.735236 45.1406L0.91465 47.652L7.28386 47.1138L7.37357 48.0107Z" fill="white"/>
<path d="M9.25858 32.1354L2.70996 29.4447L3.06879 28.6374L8.98946 31.0591L10.2454 27.9199L10.963 28.189L9.25858 32.1354Z" fill="white"/>
<path d="M13.9203 23.3452L8.08936 19.2195L8.53789 18.502L14.2792 22.6277L13.9203 23.3452Z" fill="white"/>
<path d="M18.5876 17.7847L13.9229 12.4033L17.242 9.5332L17.7803 10.0713L15.089 12.4033L16.7038 14.2868L18.9465 12.3136L19.4847 12.8518L17.242 14.8249L19.3053 17.1569L18.5876 17.7847Z" fill="white"/>
<path d="M26.7504 11.8656L23.79 5.40792L27.9166 3.52441L28.2754 4.24194L24.8665 5.76668L25.7636 7.73987L28.3651 6.5739L28.7239 7.29142L26.1224 8.4574L27.2886 10.879L30.7872 9.26461L31.146 9.98214L26.7504 11.8656Z" fill="white"/>
<path d="M38.9239 31.7924C40.2979 32.0161 41.0535 32.4636 38.2026 32.7561C37.5671 32.825 32.5522 33.3928 31.5045 33.5477C29.9588 33.7886 31.1095 34.1672 32.7239 34.7179C33.9605 35.1481 37.4641 36.0602 41.5516 37.1099V32.5668C41.5344 31.6892 38.5804 31.7408 38.5804 31.7408C38.735 31.7752 38.8552 31.7924 38.9239 31.7924Z" fill="white"/>
<path d="M59.8414 41.6185C61.8852 42.1004 62.1428 43.2189 58.5877 44.5784C51.4946 47.2802 48.3688 48.3815 42.4951 50.4294C41.001 50.9456 41.1555 51.5996 42.5638 52.1158C50.8248 55.1101 61.3012 57.4333 62.8126 57.7603V43.1501C62.8126 41.6529 59.704 41.5153 59.3605 41.498C59.5666 41.5497 59.7384 41.6013 59.8414 41.6185Z" fill="white"/>
<path d="M29.7022 48.9839C32.5703 48.0374 41.9648 45.6109 49.1437 43.8384C51.7886 43.1845 51.0673 42.6338 49.5387 42.2552C40.3504 39.9493 29.9598 36.6968 26.1471 35.1653C25.9925 35.1136 25.8723 35.0448 25.7349 34.9932V50.481C25.7349 52.1158 28.9465 52.7698 28.9465 52.7698L28.9808 52.7526C25.6833 51.1694 27.5897 49.6894 29.7022 48.9839Z" fill="white"/>
</svg>