<svg viewBox="0 0 40 40" fill="none" xmlns="http://www.w3.org/2000/svg">
<circle cx="20" cy="20" r="20" fill="#0085FF"/>
<path d="M16.8261 13.0405C17.6522 13.1594 18.087 13.3974 16.3913 13.556C16 13.5957 13.0435 13.9129 12.4348 13.9923C11.4783 14.1112 12.1739 14.3095 13.1304 14.5871C13.8696 14.8251 15.9565 15.301 18.3478 15.8562V13.437C18.3478 12.9612 16.6087 13.0008 16.6087 13.0008C16.7297 13.0405 16.7826 13.0405 16.8261 13.0405ZM29.2174 18.3149C30.4348 18.5529 30.5652 19.1874 28.4783 19.9013C24.2609 21.3686 22.4348 21.9635 18.9565 23.0342C18.087 23.3118 18.1739 23.6687 19 23.9464C23.913 25.5723 30.087 26.8017 31 27V19.1478C31 18.3546 29.1739 18.2753 28.9565 18.2753C29.0435 18.2753 29.1304 18.3149 29.2174 18.3149ZM11.3478 22.2807C13.0435 21.7652 18.6087 20.4565 22.8696 19.5047C24.4348 19.1478 24 18.8702 23.087 18.6322C17.6522 17.4425 11.5217 15.6579 9.26087 14.8251C9.17391 14.8251 9.08696 14.7854 9 14.7458V23.1135C9 23.986 10.913 24.3429 10.913 24.3429C8.95652 23.4705 10.087 22.6773 11.3478 22.2807Z" fill="white"/>
</svg>
