<svg viewBox="0 0 40 40" fill="none" xmlns="http://www.w3.org/2000/svg">
<circle cx="20" cy="20" r="20" fill="#0085FF"/>
<path d="M25.6531 14.3445C24.1408 12.8323 22.1346 12 19.9965 12C17.8583 12 15.8521 12.8323 14.3399 14.3445C11.4168 17.2675 11.2138 21.9464 13.8358 25.1029C13.5786 25.6205 13.1659 26.2227 12.5536 26.5238C12.2592 26.6693 12.0935 26.9839 12.1442 27.3087C12.1949 27.6335 12.4453 27.8872 12.7701 27.938C12.9223 27.9616 13.1388 27.9853 13.4027 27.9853C14.1098 27.9853 15.1518 27.8195 16.2175 27.0516C17.405 27.691 18.7041 28.0022 19.9931 28.0022C22.0636 28.0022 24.1137 27.2004 25.6564 25.6577C27.1687 24.1455 28.001 22.1393 28.001 20.0011C28.001 17.863 27.1653 15.8568 25.6531 14.3445Z" fill="white"/>
<path d="M20 21C20.5523 21 21 20.5523 21 20C21 19.4477 20.5523 19 20 19C19.4477 19 19 19.4477 19 20C19 20.5523 19.4477 21 20 21Z" fill="#0085FF"/>
<path d="M23 21C23.5523 21 24 20.5523 24 20C24 19.4477 23.5523 19 23 19C22.4477 19 22 19.4477 22 20C22 20.5523 22.4477 21 23 21Z" fill="#0085FF"/>
<path d="M17 21C17.5523 21 18 20.5523 18 20C18 19.4477 17.5523 19 17 19C16.4477 19 16 19.4477 16 20C16 20.5523 16.4477 21 17 21Z" fill="#0085FF"/>
</svg>
