<svg viewBox="0 0 40 40" fill="none" xmlns="http://www.w3.org/2000/svg">
<circle cx="20" cy="20" r="20" fill="#0085FF"/>
<path d="M20.1931 9C15.1254 9 11 13.1254 11 18.1931C11 18.7701 11.0529 19.3518 11.1635 19.9192C11.1683 19.9529 11.1875 20.0538 11.226 20.2269C11.3654 20.8472 11.5722 21.4578 11.8414 22.0396C12.8319 24.3715 15.01 27.9535 19.7892 31.7904C19.9094 31.8866 20.0537 31.9347 20.1979 31.9347C20.3421 31.9347 20.4864 31.8866 20.6066 31.7904C25.381 27.9535 27.5639 24.3715 28.5544 22.0396C28.8236 21.4578 29.0304 20.852 29.1698 20.2269C29.2083 20.0538 29.2275 19.9529 29.2323 19.9192C29.3381 19.3518 29.3958 18.7701 29.3958 18.1931C29.3862 13.1254 25.2608 9 20.1931 9Z" fill="white"/>
<circle cx="20" cy="18" r="5" fill="#0085FF"/>
</svg>
