<svg viewBox="0 0 40 40" fill="none" xmlns="http://www.w3.org/2000/svg">
<circle cx="20" cy="20" r="20" fill="#0085FF"/>
<path d="M12.5269 22.3947C14.1587 22.3947 15.4816 21.0718 15.4816 19.44C15.4816 17.8082 14.1587 16.4854 12.5269 16.4854C10.8951 16.4854 9.57227 17.8082 9.57227 19.44C9.57227 21.0718 10.8951 22.3947 12.5269 22.3947Z" fill="white"/>
<path d="M13.6386 23.2021H11.4415C9.85053 23.2021 8.5121 24.3891 8.33532 25.98L8.00703 28.5054C7.95652 28.8337 8.1838 29.1367 8.5121 29.2125C9.77477 29.4903 11.1385 29.6165 12.5274 29.6165C13.1082 29.6165 13.6638 29.5913 14.1941 29.5408L14.4719 27.268C14.6234 26.081 15.2043 25.0709 16.0629 24.3638C15.5073 23.6567 14.5982 23.2021 13.6386 23.2021Z" fill="white"/>
<path d="M27.4781 22.3947C29.1099 22.3947 30.4328 21.0718 30.4328 19.44C30.4328 17.8082 29.1099 16.4854 27.4781 16.4854C25.8463 16.4854 24.5234 17.8082 24.5234 19.44C24.5234 21.0718 25.8463 22.3947 27.4781 22.3947Z" fill="white"/>
<path d="M31.6942 25.9556C31.5175 24.3646 30.1538 23.1777 28.588 23.1777H26.391C25.4061 23.1777 24.5222 23.6323 23.9414 24.3646C24.8 25.0717 25.4061 26.0819 25.5324 27.2688L25.8102 29.5416C26.3405 29.5921 26.9213 29.6174 27.4769 29.6174C28.8911 29.6174 30.2295 29.4659 31.4922 29.2133C31.8205 29.1376 32.0225 28.8345 31.9973 28.5062L31.6942 25.9556Z" fill="white"/>
<path d="M21.0889 24.6924H18.8918C17.3009 24.6924 15.9624 25.8793 15.7857 27.445L15.4826 29.9956C15.4321 30.3239 15.6594 30.6522 15.9877 30.7027C17.2504 30.9805 18.614 31.1068 20.003 31.1068C21.4172 31.1068 22.7556 30.9552 24.0183 30.7027C24.3466 30.627 24.5486 30.3239 24.5234 29.9956L24.2203 27.445C24.0183 25.8793 22.6799 24.6924 21.0889 24.6924Z" fill="white"/>
<path d="M20.0025 23.8849C21.6343 23.8849 22.9572 22.5621 22.9572 20.9302C22.9572 19.2984 21.6343 17.9756 20.0025 17.9756C18.3707 17.9756 17.0479 19.2984 17.0479 20.9302C17.0479 22.5621 18.3707 23.8849 20.0025 23.8849Z" fill="white"/>
<path d="M20.9365 14.8948C21.9719 15.4251 23.2346 15.3999 24.2952 14.8443L25.8104 15.3494C26.1387 15.4504 26.4165 15.1473 26.3155 14.8443L25.8104 13.3543C26.5175 11.9654 26.3155 10.2229 25.1539 9.06125C24.0175 7.92484 22.3002 7.69756 20.9365 8.40466C22.6285 10.2229 22.6285 13.0513 20.9365 14.8948Z" fill="white"/>
<path d="M14.2189 15.3488L15.7341 14.8437C17.0978 15.576 18.8403 15.374 20.002 14.2124C21.4162 12.7982 21.4162 10.4748 20.002 9.06065C18.5878 7.64645 16.2645 7.64645 14.8503 9.06065C13.6886 10.2223 13.4866 11.9648 14.2189 13.3285L13.7139 14.8437C13.5876 15.1467 13.8906 15.4498 14.2189 15.3488Z" fill="white"/>
</svg>
