<svg viewBox="0 0 40 40" fill="none" xmlns="http://www.w3.org/2000/svg">
<circle cx="20" cy="20" r="20" fill="#0085FF"/>
<path d="M23.498 20.1043L30.3631 24.4443V15.5811L23.498 20.1043Z" fill="white"/>
<path d="M10 15.5811V24.4443L16.8651 20.1043L10 15.5811Z" fill="white"/>
<path d="M29.0908 13H11.2726C10.6375 13 10.1335 13.4735 10.0381 14.0831L20.1817 20.7662L30.3254 14.0831C30.2299 13.4735 29.7259 13 29.0908 13Z" fill="white"/>
<path d="M22.333 20.8733L20.5321 22.0595C20.4252 22.1295 20.3043 22.1639 20.1821 22.1639C20.0599 22.1639 19.939 22.1295 19.8321 22.0595L18.0312 20.8721L10.041 25.9261C10.139 26.5306 10.6405 27.0003 11.273 27.0003H29.0912C29.7237 27.0003 30.2252 26.5306 30.3232 25.9261L22.333 20.8733Z" fill="white"/>
</svg>
