<svg width="40" height="40" viewBox="0 0 40 40" fill="none" xmlns="http://www.w3.org/2000/svg">
<circle cx="20" cy="20" r="20" fill="white"/>
<path fill-rule="evenodd" clip-rule="evenodd" d="M19.9321 10C22.4321 10 24.4571 12.025 24.4571 14.525C24.4571 17.025 22.4321 19.05 19.9321 19.05C17.4321 19.05 15.4071 17.025 15.4071 14.525C15.4071 12.025 17.4321 10 19.9321 10ZM19.9321 30H20.0571C23.6786 29.9571 26.8786 28.175 28.8643 25.4464L28.3429 23.2536C28.175 22.0821 27.4143 21.3 26.1607 20.8429L22.8964 19.9036C21.0643 20.9143 18.8 20.9143 16.9679 19.9036L13.7036 20.8429C12.45 21.3 11.6893 22.0821 11.5214 23.2536L11 25.4464C12.9857 28.175 16.1857 29.9607 19.8071 30H19.9321Z" fill="#0085FF"/>
</svg>
