<svg viewBox="0 0 40 40" fill="none" xmlns="http://www.w3.org/2000/svg">
<circle cx="20" cy="20" r="20" fill="#0085FF"/>
<path d="M26.2892 21.5863C25.8669 21.1465 25.3574 20.9114 24.8175 20.9114C24.282 20.9114 23.7682 21.1422 23.3284 21.5819L21.9525 22.9535C21.8393 22.8925 21.7261 22.8359 21.6172 22.7793C21.4605 22.7009 21.3125 22.6269 21.1862 22.5485C19.8974 21.73 18.7261 20.6632 17.6028 19.2829C17.0585 18.595 16.6928 18.0159 16.4272 17.4281C16.7842 17.1015 17.1151 16.7619 17.4373 16.4354C17.5592 16.3134 17.6811 16.1872 17.8031 16.0653C18.7174 15.1509 18.7174 13.9666 17.8031 13.0522L16.6144 11.8636C16.4794 11.7286 16.3401 11.5892 16.2095 11.4499C15.9482 11.18 15.6739 10.9013 15.3909 10.6401C14.9685 10.2221 14.4635 10 13.9323 10C13.4011 10 12.8873 10.2221 12.4519 10.6401C12.4475 10.6444 12.4475 10.6444 12.4432 10.6488L10.9628 12.1422C10.4054 12.6995 10.0876 13.3788 10.0179 14.1669C9.91342 15.4383 10.2879 16.6226 10.5752 17.3976C11.2806 19.3004 12.3343 21.0638 13.9061 22.9535C15.8132 25.2307 18.1078 27.0289 20.729 28.2959C21.7305 28.7705 23.0672 29.3322 24.5606 29.428C24.6521 29.4324 24.7478 29.4367 24.8349 29.4367C25.8407 29.4367 26.6854 29.0753 27.3472 28.3569C27.3516 28.3482 27.3603 28.3438 27.3647 28.3351C27.5911 28.0608 27.8523 27.8126 28.1266 27.547C28.3139 27.3685 28.5054 27.1813 28.6927 26.9854C29.1237 26.5369 29.3501 26.0144 29.3501 25.4788C29.3501 24.9389 29.1194 24.4208 28.6796 23.9854L26.2892 21.5863Z" fill="white"/>
</svg>
