<svg viewBox="0 0 136 161" fill="none" xmlns="http://www.w3.org/2000/svg">
<path d="M0 0.179688H79.8435L111.781 32.2235V160.399H0V0.179688Z" fill="#0085FF"/>
<path d="M80.1135 0.179688V31.8509H111.785L80.1135 0.179688Z" fill="#2B99FF"/>
<rect x="33.5347" y="76.5625" width="102.466" height="46.5754" fill="#2A99FF"/>
<path d="M62.9489 107.879V89.9269H69.5041C71.3175 89.9269 72.7863 90.4437 73.9105 91.4773C75.0348 92.4928 75.5969 93.8074 75.5969 95.4213C75.5969 97.0352 75.0257 98.3589 73.8833 99.3925C72.7591 100.426 71.2993 100.943 69.5041 100.943H65.8321V107.879H62.9489ZM65.8321 98.3861H69.4497C70.4471 98.3861 71.2268 98.1232 71.7889 97.5973C72.3511 97.0714 72.6321 96.3552 72.6321 95.4485C72.6321 94.5418 72.3511 93.8256 71.7889 93.2997C71.2268 92.7557 70.4471 92.4837 69.4497 92.4837H65.8321V98.3861ZM78.8068 107.879V89.9269H84.4372C87.3566 89.9269 89.714 90.752 91.5092 92.4021C93.3044 94.0522 94.202 96.2101 94.202 98.8757C94.202 101.505 93.2953 103.663 91.482 105.349C89.6868 107.036 87.3385 107.879 84.4372 107.879H78.8068ZM81.69 105.295H84.41C86.4772 105.295 88.1273 104.706 89.3604 103.527C90.6116 102.33 91.2372 100.78 91.2372 98.8757C91.2372 96.9536 90.6206 95.4213 89.3876 94.2789C88.1545 93.1184 86.4953 92.5381 84.41 92.5381H81.69V105.295ZM97.6396 107.879V89.9269H109.172V92.5109H100.523V97.8693H107.649V100.481H100.523V107.879H97.6396Z" fill="white"/>
</svg>
