<svg viewBox="0 0 54 68" fill="none" xmlns="http://www.w3.org/2000/svg">
<path d="M27 0C12.113 0 0.000274873 12.0395 0.000274873 26.8196C-0.0975991 48.4396 25.974 66.3663 27 67.0909C27 67.0909 54.0976 48.4396 53.9997 26.8364C53.9997 12.0395 41.887 0 27 0Z" fill="#0085FF"/>
<path d="M22.2788 16.4248C23.5077 16.6055 24.1545 16.9671 21.632 17.2081C21.0499 17.2684 16.6518 17.7505 15.7463 17.871C14.3234 18.0518 15.3582 18.3531 16.7812 18.7749C17.8807 19.1364 20.9853 19.8595 24.5426 20.7032V17.0274C24.5426 16.3043 21.9554 16.3645 21.9554 16.3645C22.0848 16.3645 22.2142 16.4248 22.2788 16.4248ZM40.7122 24.4392C42.5232 24.8008 42.7172 25.7649 39.6126 26.8496C33.3388 29.0792 30.6223 29.9831 25.4481 31.6101C24.1545 32.0319 24.2839 32.5742 25.5128 32.996C32.8214 35.4667 42.0057 37.3347 43.364 37.636V25.7047C43.364 24.4995 40.6475 24.379 40.3241 24.379C40.4535 24.379 40.5828 24.4392 40.7122 24.4392ZM14.1294 30.4652C16.6518 29.6818 24.9306 27.6932 31.2691 26.247C33.5976 25.7047 32.9508 25.2829 31.5925 24.9213C23.5077 23.1135 14.3881 20.4019 11.0248 19.1364C10.8954 19.1364 10.7661 19.0762 10.6367 19.0159V31.7306C10.6367 33.0563 13.4826 33.5986 13.4826 33.5986C10.572 32.2729 12.2537 31.0678 14.1294 30.4652Z" fill="white"/>
</svg>
