<svg xmlns:svg="http://www.w3.org/2000/svg" xmlns="http://www.w3.org/2000/svg" xmlns:xlink="http://www.w3.org/1999/xlink" version="1.1" id="Layer_1" x="0px" y="0px" viewBox="0 0 1920 1080" style="enable-background:new 0 0 1920 1080;" xml:space="preserve">
   <style type="text/css" id="style2"> .st0{fill:#F7F5FB;} .st1{fill:#40484E;} .st2{fill:#0085FF;} .st3{fill:#FFFFFF;} .st4{font-family:'CeraPro-Bold';} .st5{font-size:15px;} <!-- .st6{opacity:0.5;fill:#F7F5FB;stroke:#FFFFFF;stroke-miterlimit:10;} --> .st7{fill-rule:evenodd;clip-rule:evenodd;fill:#40484E;}</style>
   <image y="0" x="0" id="image4830" xlink:href="./assets/images/genplan/svg-v2/24.jpg" preserveAspectRatio="none" height="1080" width="1920" />
   <polygon class="st6" points="1298.8,440.6 1298.8,461.5 1290,461.9 1290,469.2 1285.8,469.2 1285.8,474 1280.8,474 1280.8,530.2   1265,530.2 1210.8,473.1 1210.8,469.2 1211.9,468.7 1211.9,462.9 1204.5,460 1204.5,456.7 1194.3,452.2 1194.3,449.6 1188.5,447.5   1166.3,424.5 1165.5,407.6 1165.5,378.2 1167.1,378.2 1167.1,355.1 1171.1,359.1 1171.1,352.3 1174.8,352.3 1174.8,346.1   1182.3,346.1 1195.7,346.1 1199.6,350 1208,350 1212.4,354.5 1218.6,354.5 1227.2,363 1227.2,370.7 1229.8,373.3 1237.4,373.3   1251.7,387.6 1251.7,394.9 1255.9,399.1 1264.1,399.1 1277.6,412.7 1277.6,422.2 1283.7,422.2 1283.7,425.2 1289.5,425.2   1298,433.7 1298,439.7 " id="polygon14" />
   <polygon class="st6" points="1417.2,587 1417.2,596.3 1308.5,557.8 1293.2,562.8 1280.8,549.4 1280.8,474 1285.8,474 1285.8,469.2   1290,469.2 1290,461.9 1312.9,460.8 1317,465.8 1325.4,465.1 1332.9,472.9 1339.8,472.9 1349.5,482.6 1349.5,491.4 1353.6,495.5   1363,495.5 1379.6,512.1 1379.6,520.8 1380.6,522 1384.1,522 1384.1,526.1 1394.4,526.1 1403.8,535.5 1403.8,568 1411.4,575.6   1411.4,580.9 " id="polygon16" />
   <g id="queue3">
      <polygon class="st6" points="1175,328 1175,325 1166.3,322.3 1166.3,320 1154,315.8 1136.7,314 1123.1,309.7 1123.1,306.9   1094.3,297.4 1085.9,298.2 1069.1,294.1 1069.1,289.1 1056.1,284.6 1040,283.3 1036.6,280.4 1030.3,280.6 1030.3,282.6   1021.3,279.1 1002.9,282.4 1002.9,294.2 998.2,294.2 996.8,294.2 996.5,321.5 1012,327 1012,329.9 1020.5,332.8 1020.5,335.6   1029.1,340.1 1029.1,354.7 1034.5,357.5 1034.5,366 1037.8,367.1 1037.8,357.2 1056.4,357.2 1056.4,353.1 1073.1,353.1   1074.5,354.5 1095.3,354.5 1106.6,365.8 1106.6,377.3 1109.2,379.9 1109.2,396.3 1160.8,409.5 1165.5,407.6 1165.5,378.2   1167.1,378.2 1167.1,355.1 1171.1,359.1 1171.1,352.3 1174.8,352.3 1174.8,346.1 1182.3,346.1 1182.3,330.1 " id="polygon18" />
      <polygon class="st6" points="1020.5,393.9 1034.5,393.9 1034.5,375 1037.8,375.2 1037.8,367.1 1034.5,366 1034.5,357.5   1029.1,354.7 1029.1,340.1 1020.5,335.6 1020.5,332.8 1012,329.9 1012,327 996.5,321.5 985.2,321.5 971.2,317.4 971.2,321.7   960,321.7 960,313 930.2,303.5 923.6,305.3 916,301.7 916,297.9 909.6,296.4 906.9,297.7 901.8,296.4 896.1,290.5 892.3,294.2   888.3,293.5 888.3,288.9 884.6,288.9 884.6,293.7 883.4,293.7 883.4,291 878.1,288.9 876,289.8 876,298.2 874.9,298.2 874.9,293.1   867.4,290.5 863.9,286.8 857.5,288.9 852.9,288.6 850.2,290.5 850.2,299.9 840.9,296.6 837.3,298.1 837.3,302.9 842.8,305.1   842.8,330.7 845.3,330.5 862.4,336.5 862.4,338.8 877.7,343.8 877.7,372.4 880.6,372.9 880.6,378.6 882.9,379.3 882.9,374.7   890.6,374 890.6,362.2 907,358.1 918.7,362.8 925.6,360.3 937.1,365.2 944.2,364.7 961.8,371.4 961.8,373.4 979.5,381.2   987.3,379.8 1005.3,387.7 1010.1,386.6 1020.5,390.7 " id="polygon22" />
   </g>
   <polygon class="st6" points="1037.8,375.2 1037.8,357.2 1056.4,357.2 1056.4,353.1 1073.1,353.1 1074.5,354.5 1095.3,354.5   1106.6,365.8 1106.6,377.3 1109.2,379.9 1109.2,421.6 1080.5,417.1 1080.5,412.2 1068.1,406.5 1059,407.7 1047.2,399.6   1039.7,401.1 1034.5,399.1 1034.5,375 " id="polygon24" />
   <g id="queue2">
      <polygon class="st6" points="823,298.1 823,239 829.5,239 829.5,228.1 843.3,228.1 843.3,225.4 846.4,225.4 854.2,228.2   854.2,231.9 857.4,231.9 857.4,227.1 861.7,225.4 866.5,228.1 874.7,231.1 882,230.4 891.3,233.4 891.3,240 894.8,240 894.8,237.9   905.3,237.9 905.3,240.9 918.7,240.9 932.2,246.4 932.2,248.7 933.7,248.7 935.2,247.3 940.9,247.3 943.7,249.8 943.7,253.3   945.1,253.3 953.8,257.2 955.2,257.2 955.2,258.9 960.6,258.9 960.6,256.5 968.5,256.5 968.5,258.2 986,266.1 986,269.1   991.8,271.6 991.8,285.6 996.5,285.6 998.2,290.7 998.2,294.2 996.8,294.2 996.8,321.5 985.2,321.5 971.2,317.4 971.2,321.7   960,321.7 960,313 930.2,303.5 923.6,305.3 916,301.7 916,297.9 909.6,296.4 906.9,297.7 901.8,296.4 896.1,290.5 892.3,294.2   888.3,293.5 888.3,288.9 884.6,288.9 884.6,293.7 883.4,293.7 883.4,291 878.1,288.9 876,289.8 876,298.2 874.9,298.2 874.9,293.1   867.4,290.5 863.9,286.8 857.5,288.9 852.9,288.6 850.2,290.5 850.2,299.9 840.9,296.6 837.3,298.1 837.3,302.9 " id="polygon20" />
      <polygon class="st6" points="880.6,372.9 880.6,395.7 868.9,399.8 733.5,350.9 716.1,355.3 716.1,367 710.1,367 710.1,377.8   699.9,374.2 699.9,371.1 647.9,351.7 647.9,321.8 640.9,319 640.9,308.6 646.9,308.6 646.9,281.8 648.7,281.8 648.7,278.4   671.6,273.3 686.4,279.1 693,277.8 729.6,294.6 738.9,292.8 763.3,303.5 763.3,310.1 769.7,309.7 780.8,311.9 791.9,311.9   791.9,316.1 803,318.3 803,316.3 816.5,321.5 816.5,325.2 821.1,326.1 821.1,328.1 832,328.1 832,331.6 845.3,330.5 862.4,336.5   862.4,338.8 877.7,343.8 877.7,372.4 " id="polygon26" />
   </g>
   <polygon class="st6" points="1222,493.3 1222,526.1 1061.1,468.7 1044.1,474 1044.1,484.9 1036.8,486.1 1036.8,497.7 1030.7,500   1030.7,502.6 1021.3,498.7 1021.3,489.2 960,465.3 960,432.6 882.9,404.8 882.9,374.7 890.6,374 890.6,362.2 907,358.1 918.7,362.8   925.6,360.3 937.1,365.2 944.2,364.7 961.8,371.4 961.8,373.4 979.5,381.2 987.3,379.8 1005.3,387.7 1010.1,386.6 1020.5,390.7   1020.5,393.9 1039.7,401.1 1047.2,399.6 1059,407.7 1068.1,406.5 1080.5,412.2 1080.5,417.1 1116.6,422.8 1122.7,429.6   1128.7,428.1 1143.7,434 1143.7,437.1 1155.9,441.1 1161.7,439.9 1161.7,444.5 1165.4,444.5 1173.5,442.1 1194.3,449.6   1194.3,452.2 1204.5,456.7 1204.5,460 1211.9,462.9 1211.9,468.7 1210.8,469.2 1210.8,477.7 1218,484.8 1218,494.7 " id="polygon28" />
   <polygon class="st6" points="960,465.3 1021.3,489.2 1021.3,535 987.1,546.1 698.8,435.2 698.8,390.6 702.8,389.7 702.8,378.2   710.1,377.8 710.1,367 716.1,367 716.1,355.3 733.5,350.9 960,432.6 " id="polygon30" />
   <polygon class="st6" points="699.9,371.1 699.9,390.4 698.8,390.6 698.8,412.5 665.9,419.3 564.8,372.5 564.8,340 569.7,340   569.7,328.7 575.9,328.7 575.9,307.9 593.7,303.5 603.7,308.8 609.3,306.2 647.9,321.8 647.9,351.7 " id="queue1" />
   <polygon class="st6" points="1264.1,620.8 1228.2,635.9 1026.1,560.8 1026,511.7 1030.7,510.6 1030.7,500 1036.8,497.7   1036.8,486.1 1044.1,484.9 1044.1,474 1061.1,468.7 1250.5,536.3 1250.5,540 1257.3,544.1 1257.3,553.9 1263.5,554.1 " id="polygon34" />
   <polygon class="st6" points="1423.7,716.7 1272.1,654.8 1272,605.2 1276.6,603.2 1276.6,591.4 1283.4,589.4 1283.4,577.2   1289.9,575.7 1289.9,563.9 1308.5,557.8 1444.5,606 1444.5,611 1452.1,614.3 1452.1,627.4 1459.8,624.8 1459.8,704.6 " id="polygon36" />
   <rect style="opacity:1;fill:#00000d;fill-opacity:0.03921569;stroke:none;stroke-width:0;stroke-miterlimit:4;stroke-dasharray:none" id="rect4852" width="17.926651" height="21.51198" x="592.7746" y="592.39508" />
   <path class="st6" d="m 379.01408,534.50704 12.25352,-23.23943 48.59156,-18.16902 50.70422,-4.64789 46.90141,-0.42253 33.80282,7.60563 166.47887,89.57747 7.60563,15.6338 -10.14085,19.85915 -28.30985,12.25353 -47.74648,8.4507 -49.85916,2.53521 -59.99999,-11.83098 z" id="football-field" />
   <path class="st6" d="m 1041.1268,845.91549 209.5774,-54.92957 81.9719,52.39436 33.8028,-7.60563 101.4084,45.6338 -105.6338,33.80282 -2.5352,-8.45071 -19.4366,4.22536 -2.5352,-23.66198 -37.1831,-36.33802 -38.0282,-15.21127 -169.8591,42.25352 -48.1691,-31.26761" id="tennis-courts" />
   <path class="st6" d="M 935.49296,750.42253 1087.8,713.1 l 105.4394,44.0831 12.6761,5.91549 -199.4366,50.70423 -84.50707,-60 z" id="skate-park" />
   <path class="st6" id="workout-zone" d="m549.3 632.11 188.45-46.901 6.2083 7.7831-6.3277 14.463-5.4237 7.2316-14.463 4.5198-9.9435 6.3277-37.062 9.9435-35.254 3.6158-26.215-2.7119-34.35-1.8079z"/>
   <path class="st6" d="m 1033.7702,218.32565 121.9012,-31.07286 25.0973,-1.19511 22.7071,1.19511 -83.6577,52.58484 -57.3653,2.39022 z" id="beach" />
   <path class="st6" d="m 779.21176,149.00927 114.73056,-38.24352 34.65819,-2.39022 89.63329,-22.707095 34.6582,-7.17066 80.0723,-13.146211 105.1697,-11.951101 242.6074,-5.97555 152.974,5.97555 109.9502,2.39022 107.5599,23.902202 -145.8035,28.682645 h -148.1936 l -53.78,-14.341325 -92.0234,2.39022 -58.5604,25.097315 -19.1218,-7.17066 -25.0973,14.34132 -8.3658,29.87775 -25.0973,-29.87775 -51.3897,23.9022 -20.3169,34.65819 h -47.8044 l -121.9012,31.07286 -52.58485,-16.73154 -90.82836,-5.97555 -114.73056,-33.46308 z" id="lake" />
   <path class="st6" d="m 1545.6338,897.46479 60.8451,-1.69014 -1110.42256,-505.35212 -11.83099,24.50705 109.85916,55.77464 13.52112,-4.22535 171.5493,81.97183 1.69014,9.29578 70.14085,43.09859 L 1087.8,713.1 l 118.1155,49.99859 160.5634,72.67606 101.4084,45.6338 z" id="water-channel" />
   <path class="st6" d="M 561.70173,358.15353 564.8,340 h 4.9 v -11.3 h 6.2 v -20.8 0 l -14.19827,4.83935 c 0,0 -15.0468,-13.37316 -15.89187,-13.16189 -0.84507,0.21127 -9.29577,3.69719 -9.29577,3.69719 l -5.28169,-3.06338 -9.19014,4.01408 -32.11268,-5.70423 -56.61972,23.02817 -9.82394,9.08451 0.10563,9.40141 42.67606,4.64789 17.11267,-6.2324 38.02817,9.40141 11.40845,-4.85915 20.07043,5.38732 z" id="eco-bazar"  />
   <path class="st6" d="m 1227.378,719.07676 21.512,-8.36577 -1.1951,-15.53643 45.4142,-21.51198 13.1462,4.78044 8.3658,-5.97555 52.5848,19.12176 2.3902,48.99951 -39.4386,13.14622 -22.7071,4.78044 z" id="public-center" />
   <path id="eco-shop" d="m832 331.6 10.8-0.9v-25.6l-19.8-7-51.175-17.175-5.7527 3.196-16.619-5.1135-7.3507 14.701 21.197 9.791v6.6l6.4-0.4 11.1 2.2h11.1v4.2l11.1 2.2v-2l13.5 5.2v3.7l4.6 0.9v2h10.9z"/>
   <path id="park" d="m379.01 534.51 12.254-23.239 48.592-18.169 50.704-4.6479 46.901-0.42253 33.803 7.6056-22.567-13.826 45.384-11.104-109.86-55.775 11.831-24.507-11.989-17.089-98.079-11.299-61.017 29.831-14.011 14.463-33.446 13.559-34.35 47.458 28.475 51.073 44.746 45.65 49.718 32.542 72.316-30.734z" />
   <path id="workout-zone" d="m549.3 632.11 188.45-46.901 6.2083 7.7831-6.3277 14.463-5.4237 7.2316-14.463 4.5198-9.9435 6.3277-37.062 9.9435-35.254 3.6158-26.215-2.7119-34.35-1.8079z"/>
   <path id="playground" d="m921.97 753.8 165.83-40.703-236.81-112.25-199.23 54.522 169.94 52.429z"/>
   <path id="parking" d="m1405.2 551.86 77.74 77.74-12.655 0.90396 19.887 74.576 104.86 42.486-32.542 23.503-113.45-50.169-18.531-8.1356 29.292-8.1684v-79.8l-7.7 2.6v-13.1l-7.6-3.3v-5l-27.3-9.7v-9.3l-5.8-6.1v-5.3l-7.6-7.6z"/>
</svg>