<svg
   xmlns:svg="http://www.w3.org/2000/svg"
   xmlns:xlink="http://www.w3.org/1999/xlink"
   width="479.77777"
   height="239.8889"
   viewBox="0 0 479.77777 239.8889"
   version="1.1">
  <g
     id="layer1"
     transform="translate(227.79366,2.8611181)">
    <image
       y="-2.8611181"
       x="-227.79366"
       id="footbal-field"
       xlink:href="./assets/images/genplan/bg.jpg"
       preserveAspectRatio="none"
       height="239.8889"
       width="479.77777"
       inkscape:label="" />
    <path
       d="m -158.57085,69.449782 12.29439,-7.483548 18.97614,-5.078121 18.70887,-1.069077 28.063297,1.870887 29.399648,42.495857 -20.847024,9.35443 -27.261493,5.21175 -20.045208,-0.4009 -26.99423,-6.1472 z"
       id="football-field" />
    <path
       d="m -109.12599,123.17096 41.159505,-9.88898 36.883194,-4.81085 -6.681737,5.34539 0.534538,5.87993 10.423511,6.68174 1.870887,4.54358 5.078122,4.81085 3.741774,4.54359 0.267269,6.41446 4.543581,6.68174 9.0871649,5.34539 -0.2672688,2.40543 -51.5830201,6.68174 -10.156241,-10.42351 -15.768901,-15.23437 z"
       id="workout-zone"/>
    <path
       d="m -52.732121,173.15036 71.360963,-9.88898 28.063309,32.87416 -86.595335,13.63074 z"
       id="skate-park" />
    <path
       d="m -45.248575,237.29504 -2.138156,-7.21627 105.3042,-14.16529 12.294394,21.11429 z"
       id="tennis-courts"
      />
    <path
       d="m -87.74443,29.626622 8.552624,-1.603616 12.294399,6.414468 104.235108,116.529516 90.337109,85.52624 -27.57413,0.0621 -38.837052,-40.06547 -90.997766,-98.935269 z"
       id="water-channel"
      />
    <path
       d="m 143.00099,56.355155 7.55951,-0.377976 44.60118,90.714291 -5.66962,-0.37798 -7.55954,-0.37798 9.82739,21.92262 -9.82739,-1.5119 -13.98511,-30.2381 0.75594,-7.18155 -2.26785,-20.03273 -11.71726,-29.104171 -6.80357,-7.559524 z"
       id="parking"
      />
  </g>
</svg>
