<svg width="44" height="31" viewBox="0 0 44 31" fill="none" xmlns="http://www.w3.org/2000/svg">
<path d="M15.3605 0.0607954C16.9605 0.321355 17.8404 0.842474 14.5205 1.18321C13.7805 1.26338 7.94068 1.9248 6.72071 2.10519C4.92075 2.38579 6.26072 2.82674 8.14067 3.46811C9.58064 3.96919 13.6605 5.03147 18.4204 6.2541V0.962732C18.4004 -0.0594628 14.9605 0.000666249 14.9605 0.000666249C15.1405 0.0407523 15.2805 0.0607954 15.3605 0.0607954Z" fill="white"/>
<path d="M39.7179 11.5055C42.0978 12.0667 42.3978 13.3695 38.2579 14.9529C29.9981 18.0997 26.3582 19.3825 19.5184 21.7676C17.7784 22.3689 17.9584 23.1305 19.5984 23.7318C29.2182 27.2193 41.4179 29.9251 43.1778 30.3059V13.2894C43.1778 11.5456 39.5579 11.3853 39.1579 11.3652C39.3979 11.4254 39.5979 11.4855 39.7179 11.5055Z" fill="white"/>
<path d="M4.61989 20.0841C7.9598 18.9817 18.8995 16.1556 27.2593 14.0912C30.3392 13.3296 29.4993 12.6882 27.7193 12.2472C17.0196 9.56146 4.91988 5.77332 0.479988 3.98949C0.299993 3.92936 0.159996 3.84919 0 3.78906V21.8278C0 23.7319 3.73991 24.4935 3.73991 24.4935L3.77991 24.4735C-0.0599987 22.6295 2.15995 20.9058 4.61989 20.0841Z" fill="white"/>
</svg>
